<svg xmlns="http://www.w3.org/2000/svg" xmlns:xlink="http://www.w3.org/1999/xlink" width="900" height="673" viewBox="0 0 238.1 178.1"><defs><path id="reuse-0" fill="#ffffc0" d="M354.8 199.5a7.8 7.8 0 011.4 4.6 7.8 7.8 0 01-7.7 7.7 7.8 7.8 0 01-4.8-1.7 7.8 7.8 0 006.2 3.3 7.8 7.8 0 007.8-7.8 7.8 7.8 0 00-3-6z"/></defs><defs><linearGradient id="c"><stop offset="0" stop-color="#fff"/><stop offset="1" stop-color="#912509" stop-opacity=".6"/></linearGradient><linearGradient id="b"><stop offset="0" stop-color="#ff0"/><stop offset="1" stop-color="#912500"/></linearGradient><linearGradient id="a"><stop offset="0" stop-color="red" stop-opacity=".7"/><stop offset="1" stop-color="#fff" stop-opacity="0"/></linearGradient><linearGradient id="e" x1="72.3" x2="87.9" y1="-10.1" y2="6" gradientUnits="userSpaceOnUse" xlink:href="#c"/><radialGradient id="f" cx="180.5" cy="154.5" r="37.4" fx="180.5" fy="154.5" gradientTransform="matrix(-.93166 .9947 -1.63732 -1.53353 603 210.3)" gradientUnits="userSpaceOnUse" xlink:href="#a"/><radialGradient id="d" cx="192.9" cy="91.3" r="373.1" fx="192.9" fy="91.3" gradientTransform="matrix(2.23974 1.34226 -.37646 .62818 -204.8 -159.7)" gradientUnits="userSpaceOnUse" xlink:href="#b"/></defs><g transform="rotate(-1 2648.5 2472.7) scale(1.15007)"><path fill-opacity=".2" d="M165.9-20.3h-.8c-6.2.4-11 3.9-14 8-2.9 4.1-4.2 8.9-3.8 13.2.1 4.9 2 9.2 5 12.5a3.5 3.5 0 00-.4 1.7l-.1 10.7-1.1-3a89.2 89.2 0 00-24.4-32l1-3.3a3.5 3.5 0 00-3.4-4.4c-17 0-34 3.3-49.8 9.4A3.5 3.5 0 0072-4.9c-1.8 9.2-3.4 16.8-4.2 25.5l-5 .7a3.5 3.5 0 00-2.9 3c-.8 5.7-1 11.4-.8 17.1a3.5 3.5 0 004 3.3l3.7-.5a215 215 0 0010 63.6 3.5 3.5 0 005 2l22.5-12a3.5 3.5 0 001.5-4.6 128.7 128.7 0 01-14.5-52c4.4-.5 8.7-1 12.4-1.1a3.5 3.5 0 002.2-1c-.3 3.7-.4 7.5-.4 11.3h-3a3.5 3.5 0 00-3.5 3.9l1.8 16.5a3.5 3.5 0 002.6 3l3.3.8c.5 5.3 1 10.6 1.7 15.8a3.5 3.5 0 004 3l15-2.6a3.5 3.5 0 002.8-4.3l-1-4.7c6 3.4 10.7 8.9 13 15.6a3.5 3.5 0 004.2 2.2l-.4 2.1a3.5 3.5 0 004.4 4.1l1.4-.4a14.8 45.7-89 0043.8 11.7 14.8 45.7-89 0046-14A14.8 45.7-89 00204 87.7C221.6 60 225.3 23.6 223-16a3.5 3.5 0 00-5-3L196-8.7a3.5 3.5 0 00-2 4c5.2 21.8 4.7 44.5-1.3 66a90.8 90.8 0 01-4.7-43.3 3.5 3.5 0 00-4.4-3.9l-3.5 1 .3-4.7a3.5 3.5 0 00-.5-2c1.8-3.2 2.8-7 2.7-10.7-.3-6.1-2.6-10.9-6-13.9a16.3 16.3 0 00-10.8-4.1zm63.3 1.6a4 4 0 00-4 4 4 4 0 003.9 4 4 4 0 004-4 4 4 0 00-4-4zM111 7.8c-1 3.6-1.8 7.3-2.5 11a3.5 3.5 0 00-3.8-3c-4.7.5-9.2 1.2-13.6 1.9l.4-6c6.3-2 12.8-3.4 19.5-3.9zm18.6 16.5a38 38 0 015 13c.5 3.5 0 6.4-1.6 8.5-1.2 1.6-3.2 3-6.7 3.9.2-8.8 1.3-17.3 3.3-25.4zm21.5 29.5l-.8 14.3a54.8 54.8 0 00-8.4-3.5 34 34 0 009.2-10.8zm27.1 28.4c1.2 2 2.4 3.9 3.7 5.7a14.8 45.7-89 00-3.6.4v-6z" color="#000" font-family="sans-serif" font-weight="400" overflow="visible" paint-order="fill markers stroke" style="line-height:normal;font-variant-ligatures:normal;font-variant-position:normal;font-variant-caps:normal;font-variant-numeric:normal;font-variant-alternates:normal;font-feature-settings:normal;text-indent:0;text-align:start;text-decoration-line:none;text-decoration-style:solid;text-decoration-color:#000;text-transform:none;text-orientation:mixed;white-space:normal;shape-padding:0;isolation:auto;mix-blend-mode:normal;solid-color:#000;solid-opacity:1"/><path fill="none" stroke="#5b1700" stroke-linecap="square" stroke-linejoin="round" stroke-width="7" d="M125.2 10.3c7 7.7 21.2 35-5.5 37.6-.1-13.2 1.8-26 5.5-37.6zm37-33c-10 .7-15.3 11-14.5 17.5.1 6.3 3.6 11.5 8.4 13.6l-3.8.8c-.1 20-.2 39.9-1.9 58.9-6-4-12.7-6.7-19.8-8 39.5-21.8 1.1-65-11.3-74l1.5-5.4a135 135 0 00-48.5 9.2c-2 10.3-3.8 18.2-4.5 27.9l-7.5 1.1c-.8 5.5-1 11-.8 16.5l7.6-1c-.2 23.7 3.4 45.8 10 66.5l22.5-12c-9.3-17.6-14.5-37-15.2-56.8 6-.7 11.3-1.1 16-1.4.3-5.6.9-11.8 1.7-17.3-6 .6-12 1.7-17.7 2.4.1-4 .4-8.6.8-12.6a85 85 0 0127.3-5c-4.6 16.2-6.9 33-6.7 49.8h-6.4l1.8 16.5 5.6 1.4c.5 6.2 1.2 12.2 2 18.2l15-2.6a125 125 0 01-2.5-11.5 32 32 0 0121.1 20.4l5.6-2.8c-.5 3-1 6-1.7 9l25.7-8.3c-.5-9.1-.6-18.2-.5-27.3 4.3 11 10.7 21 18.8 29.7 23.5-27.7 28.8-67.7 26-112.4l-21.8 10.3a137 137 0 01-4.4 77.2 94.5 94.5 0 01-8.5-54.2l-8.2 2.4.5-9.7-2.8.6a18 18 0 005-13c-.4-10.6-7.7-14.9-13.9-14.6z" paint-order="fill markers stroke"/><path fill="url(#d)" d="M544.2 65l-2.5.2c-43.4 3.8-65.7 49-61.7 77a64.6 64.6 0 0037.5 58.5l-16.4 3.8c1 87 2.1 173.4-3.8 256a223.4 223.4 0 00-86.7-33.2c170-97.7-.1-282.5-54.7-320.7l6.1-23.5a586.7 586.7 0 00-210 43.6c-8 45-15.2 79.4-17.5 121.6l-32.5 5.3c-3 24-3.5 48-2.2 71.8l33-5a919 919 0 0048.5 288.3l96.8-53.9a575 575 0 01-70.3-245.6c26-3.5 49-5.7 69.4-7.3.9-24.4 3-51.4 6-75.3-26 3-52 8.3-76.7 11.7.2-17.3 1.1-37.4 2.5-54.8a369.4 369.4 0 01118.3-23.8 757.5 757.5 0 00-25.3 217l-27.9.4 9.1 71.6 24.5 5.6c2.6 27 6 53 10 79l65-12.5c-4.7-16.4-8.6-33-11.7-49.7a139 139 0 0193.2 87l24.1-12.6c-2 13-3.9 26.1-6.7 39.2l111-38c-2.8-39.5-4-79-4.2-118.6a404.6 404.6 0 0084 127.7c100-122.2 120-296.4 104.4-490.4l-94 46.4a595.4 595.4 0 01-13.2 335.8 410.7 410.7 0 01-41-234.9l-35.5 11 1.4-42.1-12 2.8a78.2 78.2 0 0020.7-56.9c-2.6-44.5-32.7-62.9-59-62.4zM383.4 211.4c31 33 94.8 150.5-21 163.8a527.1 527.1 0 0121-163.8z" transform="scale(.2301) rotate(1 10008.2 9336)"/><path fill="#fff" fill-opacity=".2" d="M210.4-3.7c-1.5 0-2.6.5-2.6 1.1 0 .5 1.8 1 1.8 1.8v.4a7.8 7.8 0 00-4.3 1.7l-.1-.2c-.5-.5.5-2.2.1-2.6-.4-.5-1.7 0-2.7 1-1 1-1.5 2.1-1 2.6.3.4 2-.6 2.5 0l.2.2a7.8 7.8 0 00-1.8 4.2h-.1c-.7 0-1.2-1.9-1.8-1.9-.6 0-1.2 1.2-1.2 2.6 0 1.4.5 2.6 1.1 2.6.5 0 1-1.8 1.9-1.8a7.8 7.8 0 001.9 4.3c-.6.6-2.3-.4-2.7 0-.5.4 0 1.6 1 2.6s2.2 1.5 2.6 1c.4-.3-.6-1.9 0-2.5h.1a7.8 7.8 0 004.4 1.7c0 .8-2 1.3-2 1.8 0 .7 1.2 1.3 2.6 1.3 1.4 0 2.6-.5 2.6-1.2 0-.5-1.8-1-1.8-1.8V15a7.8 7.8 0 004.2-1.8l.2.1c.5.6-.5 2.3-.1 2.6.2.3.6.3 1 .1v-.5h-.5c-.2-.2.1-.8.7-1.4a230.1 230.1 0 000-1.8l-.3-.2a7.8 7.8 0 00.4-.5l.2-8.2a7.8 7.8 0 00-.7-1l.2-.3.6-.2V.8l-.1-.1c-.8-.8-1.2-1.6-1-1.8l.3-.1.8.3v-.5c-.7-.3-1.3-.4-1.6-.1-.3.3.6 2 0 2.5l-.2.3A7.8 7.8 0 00211-.4v-.3c0-.8 2-1.3 2-1.8 0-.6-1.2-1.2-2.6-1.2zm0 .4c1 0 1.8.3 1.8.7 0 .3-.8.6-1.9.6-1 0-2-.3-1.9-.7 0-.3.9-.6 2-.6zM204.4-1h.2c.3.3-.2 1-1 1.8-.7.7-1.5 1.1-1.7.9-.3-.3.1-1 1-1.8.5-.6 1.2-1 1.5-1zm4.3 1.9a1 1.7 68.5 01.8.4 1 1.7 68.5 01-1.2 1.5 1 1.7 68.5 01-1.9-.3 1 1.7 68.5 011.3-1.4 1 1.7 68.5 011-.2zm3 .2a1.7 1 23.5 011 .2 1.7 1 23.5 011.1 1.5 1.7 1 23.5 01-1.9.2 1.7 1 23.5 01-1.2-1.5 1.7 1 23.5 01.4-.4 1.7 1 23.5 01.5 0zm3.4 2.4a1.7 1 68.5 011.3 1.3 1.7 1 68.5 01-.3 1.8 1.7 1 68.5 01-1.5-1.2 1.7 1 68.5 01.3-1.9 1.7 1 68.5 01.2 0zm-9.9 0a1 1.7 23.5 01.2 0 1 1.7 23.5 01.2 1.9 1 1.7 23.5 01-1.5 1.1 1 1.7 23.5 01-.2-1.9 1 1.7 23.5 011-1.1 1 1.7 23.5 01.3 0zm5 0a1.5 1.1 1 011.6 1.2 1.5 1.1 1 01-1.6 1 1.5 1.1 1 01-1.5-1 1.5 1.1 1 011.6-1.1zm-9.8 2c.3 0 .6.8.6 1.9 0 1-.3 1.9-.7 1.9-.3 0-.6-1-.6-2s.4-1.9.7-1.9zm12.7.3a1.1 1.5 1 011 1.6 1.1 1.5 1 01-1 1.5 1.1 1.5 1 01-1.1-1.6 1.1 1.5 1 011-1.5zm-5.8 0a1.1 1.5 1 011.1 1.5 1.1 1.5 1 01-1.1 1.5 1.1 1.5 1 01-1-1.6 1.1 1.5 1 011-1.5zm8.5 2a1 1.7 23.5 01.2 0 1 1.7 23.5 01.2 2 1 1.7 23.5 01-1.5 1 1 1.7 23.5 01-.2-1.8 1 1.7 23.5 011-1.2 1 1.7 23.5 01.3 0zm-11.5.4a1.7 1 68.5 011.3 1.2 1.7 1 68.5 01-.3 2A1.7 1 68.5 01204 10a1.7 1 68.5 01.2-1.9 1.7 1 68.5 01.2 0zm6 .5a1.5 1.1 1 011.5 1.1 1.5 1.1 1 01-1.5 1.1 1.5 1.1 1 01-1.5-1.1 1.5 1.1 1 011.5-1zm3 3a1 1.7 68.5 01.8.4 1 1.7 68.5 01-1.2 1.5 1 1.7 68.5 01-1.9-.2 1 1.7 68.5 011.2-1.5 1 1.7 68.5 011-.2zm-5.9 0a1.7 1 23.5 01.1 0 1.7 1 23.5 011 .3 1.7 1 23.5 011.1 1.5 1.7 1 23.5 01-1.9.2 1.7 1 23.5 01-1.1-1.5 1.7 1 23.5 01.3-.3 1.7 1 23.5 01.5-.1zM155 12c-.4 0-.7.1-.9.3-.6.6 1 3.3 0 4.4l-.4.5a13.3 13.3 0 00-1.3-1c0 7.6-.2 15.1-.3 22.6a13.3 13.3 0 001.9-1.4l.2.3c.9 1-.8 3.8-.2 4.5.8.8 2.8 0 4.6-1.6 1.8-1.7 2.6-3.8 1.8-4.6-.6-.6-3.4 1-4.4 0l-.4-.3a13.3 13.3 0 002.9-7.3h.5c1.2 0 2.1 3.3 3 3.3 1.1 0 2-2 2.1-4.4 0-2.4-.8-4.4-2-4.4-.8 0-1.6 3-3 3l-.7.1a13.3 13.3 0 00-3-7.1l.4-.4c1-.9 3.9.8 4.5.2.8-.8 0-2.9-1.6-4.6-1.3-1.3-2.8-2.1-3.7-2.1zm47.3.9c.4 0 1 .4 1.6 1 .8.7 1.1 1.6.9 1.8-.2.2-1-.2-1.8-1-.7-.7-1.1-1.5-.9-1.8h.2zm-66.3-.9c-1 0-2.5.7-3.8 2a6.6 6.6 0 00-2 3.3l.7 1.4c1 0 3-1 3.9-.1l.3.2a13.3 13.3 0 00-2.3 3.9 37 37 0 012 6.2 2.9 1.6 68.5 01.1 0 2.9 1.6 68.5 01.4-.1 2.9 1.6 68.5 012.2 2.1 2.9 1.6 68.5 01-.5 3.2 2.9 1.6 68.5 01-1.6-.7c0 2-.2 3.8-.8 5.5 1 1.2 1.5 2.3 1.2 2.7-.3.3-1.2 0-2-.7l-.5.6c1.4 1 2.7 1.4 3.4.8.6-.7-1-3.4 0-4.4l.1-.2a13.3 13.3 0 007.4 3v.2c0 1.2-3.2 2-3.3 3 0 1.1 2 2 4.4 2.1h.1l.4-.8h-.4c-1.8 0-3.3-.5-3.2-1.1 0-.6 1.4-1 3.2-1h1.2l.5-1.4c-.2-.2-.4-.5-.4-.8v-.3a13.3 13.3 0 00.7 0l.4-2.3a1.6 2.9 68.5 01-1-.7 1.6 2.9 68.5 011.3-2.1v-3.5a2.6 1.9 1 01-2.6 1.4 2.6 1.9 1 01-2.6-1.9 2.6 1.9 1 012.6-1.8 2.6 1.9 1 012.4 1.2 39 39 0 00-1.3-6.5 2.6 1.9 1 01-1.2.2 2.6 1.9 1 01-2.6-2 2.6 1.9 1 012.6-1.8l-1.2-3.1a1.6 2.9 68.5 01-2 1.8 1.6 2.9 68.5 01-3.3-.4 1.6 2.9 68.5 012-2.6 1.6 2.9 68.5 011.9-.3 1.6 2.9 68.5 01.8.2l-1-2a13.3 13.3 0 00-5.8 2.7l-.2-.3c-.9-.9.8-3.8.2-4.4l-.8-.4zm19.4.8c.6 0 1.7.7 2.7 1.8 1.2 1.3 2 2.7 1.5 3-.4.5-1.8-.2-3-1.5-1.3-1.3-2-2.7-1.6-3.1l.4-.2zm-20 .2h.4c.4.5-.3 1.9-1.6 3.1-1.3 1.3-2.7 2-3.1 1.5-.4-.4.3-1.7 1.6-3 1-1 2.2-1.7 2.8-1.6zm75 3.6c1.1 0 2 .3 2 .6 0 .4-.9.6-2 .6-1 0-1.9-.3-1.9-.6 0-.4.9-.6 2-.6zm-56.7 4.1a2.9 1.6 68.5 012.2 2.2 2.9 1.6 68.5 01-.4 3.2 2.9 1.6 68.5 01-2.6-2 2.9 1.6 68.5 01.5-3.3 2.9 1.6 68.5 01.3 0zm-16.9-.1a1.6 2.9 23.5 01.3 0 1.6 2.9 23.5 01.3 3.3 1.6 2.9 23.5 01-2.6 2 1.6 2.9 23.5 01-.3-3.2 1.6 2.9 23.5 011.8-2 1.6 2.9 23.5 01.5-.1zm-50 1.7c-4.2-.1-7.8 1.4-7.8 3.4 0 1.6 5.5 3 5.4 5.5l.1 1 4.3-.5v-.4c0-2.2 5.8-3.7 5.8-5.3 0-2-3.4-3.7-7.7-3.7zM84.5 32a23.5 23.5 0 00-12.8 5.1l-.4-.4c-1.6-1.6 1.4-6.7.3-7.9-1.4-1.4-5-.1-8.1 2.9a15 15 0 00-2.7 3.4l1.7-.2 1.9-2.2C66 31 68 30 69.2 30c.2 0 .4.1.5.3.7.7-.4 3-2.6 5.1v4l.9.6.4.4a23.5 23.5 0 00-1.2 1.6c0 1.8 0 3.6.2 5.4a2.8 5 23.5 010-.2 2.8 5 23.5 013.3-3.6 2.8 5 23.5 01.8 0 2.8 5 23.5 01.5 0 2.8 5 23.5 01.6 5.8 2.8 5 23.5 01-4.6 3.5 2.8 5 23.5 01-.3-.2l.5 5.4a5 2.8 68.5 01.6-.2 5 2.8 68.5 01.2 0 5 2.8 68.5 013.7 3.8 5 2.8 68.5 01-.8 5.7 5 2.8 68.5 01-2.7-1c.4 3.1 1 6.1 1.5 9.2 0-.6.2-1.2.6-1.6l.2-.2a23.5 23.5 0 0013.1 5.2v.3c0 2.2-5.8 3.7-5.8 5.4 0 2 3.4 3.6 7.8 3.7 4.3 0 7.8-1.5 7.9-3.5 0-1.5-5.5-2.9-5.5-5.5v-.5a23.5 23.5 0 005.3-1.3L93 74.6a2.8 5 68.5 01-4-1.2 2.8 5 68.5 012.2-3.7L90 65.2a4.6 3.3 1 01-3.1.9 4.6 3.3 1 01-4.5-3.4 4.6 3.3 1 014.6-3.3 4.6 3.3 1 011.5.2c-.8-3-1.5-6-2-9.1A4.6 3.3 1 0182 47a4.6 3.3 1 013.3-3.1c-.5-4-.9-8-1-11.9zm77.8-8.2c.6 0 1 1.5 1 3.3 0 1.8-.5 3.2-1 3.2-.7 0-1.1-1.5-1-3.3 0-1.8.5-3.2 1-3.2zm-21.8.5a1.9 2.6 1 011.8 2.7 1.9 2.6 1 01-2 2.5 1.9 2.6 1 01-1.8-2.6 1.9 2.6 1 012-2.6zm-53.7-.9c3.2.1 5.7 1 5.7 2s-2.6 1.9-5.8 1.8c-3.2 0-5.8-1-5.8-2s2.7-1.8 5.9-1.8zm119.6 4.6c-3.4 0-6.4.6-8.6 1.6l-.2 2.7c.6-1.3 4.3-2.3 8.6-2.2 4.3 0 7.9 1.2 8.5 2.5l.4-2.6a19.9 19.9 0 00-8.7-2zm-51.4-.1a1.6 2.9 23.5 01.3 0 1.6 2.9 23.5 01.3 3.3 1.6 2.9 23.5 01-2.6 2 1.6 2.9 23.5 01-.3-3.3 1.6 2.9 23.5 011.8-2 1.6 2.9 23.5 01.5 0zm-48.3 1.2l-.1 1.4c.8.6 1.7 1.3 2.6 2.2 2.2 2.3 3.4 4.8 2.6 5.5-.7.7-3.1-.6-5.3-2.9l-.3-.2-.2 4.1c2.1-.4 6 1.7 7 .7 1.5-1.3.2-5-2.8-8a15 15 0 00-3.5-2.8zm90.8 4l-.3 2.8c2.4 1.5 5.5 3.2 5.5 5.6l.1 1.4a35.2 35.2 0 00-6.8 1.3 137 137 0 01-1 4.8 4.2 7.6 68.5 014.2-.7 4.2 7.6 68.5 013.9 2 4.2 7.6 68.5 01-5.5 6.6 4.2 7.6 68.5 01-4.9 1 137 137 0 01-2.5 7.8c-2.4-5-4.4-10.3-5.9-15.6a35.2 35.2 0 00-.7.5l-.6-.6c-1-1.1-.7-3.4-.1-5.6-.5-2.4-1-4.7-1.2-7-2.7-.4-6.8 1.5-10.4 5-4.6 4.5-6.8 10-4.7 12 1.6 1.7 8.9-2.7 11.6.2l.7.6a35.2 35.2 0 00-5.7 9.4c1 2.4 2.2 4.7 3.4 7a4.2 7.6 23.5 01.9-6.3 4.2 7.6 23.5 014.7-5.2 4.2 7.6 23.5 011.3-.2 4.2 7.6 23.5 01.8.2 4.2 7.6 23.5 01.8 8.6 4.2 7.6 23.5 01-6.8 5.2 4.2 7.6 23.5 01-.6-.3 93.1 93.1 0 0012.7 17 95.6 95.6 0 0013.2-20.6 6.9 5 1 01-4.2-4.6 6.9 5 1 017-5 6.9 5 1 011.2.2l2-5.7a7.6 4.2 23.5 01-1-3.8 7.6 4.2 23.5 011.6-1.5 7.6 4.2 23.5 011-.3c.6-1.9 1-3.8 1.5-5.8a35.2 35.2 0 00-3.5-.5l.1-1.3c0-1.8 2.4-3.2 4.7-4.6l.5-3.3c-1 1.2-4.4 2-8.4 2-4.5-.1-8.2-1.3-8.6-2.8zm-56.9 1.6a2.9 1.6 23.5 01.2 0 2.9 1.6 23.5 011.6.4 2.9 1.6 23.5 012 2.6 2.9 1.6 23.5 01-3.3.3 2.9 1.6 23.5 01-2-2.6 2.9 1.6 23.5 01.6-.5 2.9 1.6 23.5 01.9-.2zm18.8 1.9l.3.1c.4.4-.3 1.8-1.6 3-1.3 1.3-2.7 2-3.1 1.6-.4-.5.3-1.8 1.6-3 1-1.1 2.2-1.7 2.8-1.7zm-77.3-1a2.8 5 68.5 012.6 1.3 2.8 5 68.5 01-3.7 4.4 2.8 5 68.5 01-5.7-.7 2.8 5 68.5 013.7-4.4 2.8 5 68.5 013.1-.6zm97.9 4.1c.4 0 .6.1.9.3 1 1.2-.9 4.8-4.3 8-3.5 3.4-7.1 5.2-8.2 4-1.1-1 .8-4.6 4.2-8 2.9-2.7 5.8-4.4 7.4-4.3zm-74 2.7l-.1 5.5h-.4a5 2.8 68.5 01-1 5.2 5 2.8 68.5 01-4.4-3.7 5 2.8 68.5 01-.4-1.5h-.2l1.2 10.6a2.8 5 23.5 012.2-1.9 2.8 5 23.5 01.8-.1 2.8 5 23.5 01.5.1 2.8 5 23.5 01.6 5.8A2.8 5 23.5 01103 65l3.8.9v.9a23.5 23.5 0 003-9.6h.8c2.3.1 3.8 5.9 5.4 5.9 2 0 3.7-3.4 3.7-7.8.1-4.3-1.4-7.8-3.4-7.9-1.6 0-3 5.5-5.5 5.5h-1.1a23.5 23.5 0 00-3.9-10.4zm10.7 6.9c1 0 1.8 2.6 1.8 5.8-.1 3.2-1 5.8-2 5.8s-1.9-2.7-1.8-5.9c0-3.2 1-5.7 2-5.7zm-38.7 1a3.3 4.6 1 013.3 4.6 3.3 4.6 1 01-3.4 4.6 3.3 4.6 1 01-3.3-4.7 3.3 4.6 1 013.4-4.5zm60.3 13.8c-1.5 0-2.7.5-2.7 1.1 0 .6 1.8 1 1.8 1.9v.3a7.8 7.8 0 00-4.2 1.7l-.1-.1c-.5-.6.5-2.3 0-2.7-.4-.4-1.6 0-2.6 1s-1.5 2.2-1 2.6c.3.4 2-.6 2.5 0l.2.2a7.8 7.8 0 00-1.8 4.1 32 32 0 016.1 5.6 1.7 1 23.5 011.1 1.4c.5.6 1 1.2 1.4 2V83A7.8 7.8 0 00143 81l.1.2c.6.5-.4 2.2 0 2.6.4.4 1.6 0 2.6-1s1.5-2.2 1-2.6c-.3-.4-1.9.6-2.5 0l-.2-.2a7.8 7.8 0 001.7-4.3h.3c.7 0 1.2 2 1.7 2 .7 0 1.2-1.2 1.3-2.6 0-1.4-.5-2.6-1.2-2.6-.5 0-1 1.8-1.8 1.8h-.4a7.8 7.8 0 00-1.7-4.2l.2-.2c.5-.5 2.3.5 2.6.1.5-.4 0-1.6-1-2.7-1-1-2.1-1.5-2.6-1-.3.4.6 2 0 2.6l-.2.3a7.8 7.8 0 00-4.2-1.8v-.3c0-.7 2-1.2 2-1.8 0-.6-1.2-1.2-2.6-1.2zm0 .5c1 0 1.8.3 1.8.6 0 .4-.9.6-2 .6-1 0-1.8-.3-1.8-.6 0-.4.9-.7 2-.6zm24 1.2c-3 0-5.5 5.1-5.6 11.6-.1 6.5 2.2 11.8 5.2 11.8 2.3 0 4.3-8.1 8.3-8l.5-.1a35.2 35.2 0 001.4 7.1c-.3-6.2-.5-12.4-.5-18.6a35.2 35.2 0 00-1 5l-.3-.1c-3.3 0-5.6-8.7-8-8.7zm-18.3.8c.4 0 1 .4 1.6 1 .8.8 1.2 1.6 1 1.8-.3.3-1.1-.1-1.9-.9-.7-.8-1.1-1.6-.8-1.8h.1zm-11.6 0l.2.2c.2.2-.2 1-1 1.7-.7.8-1.5 1.2-1.8 1-.2-.3.2-1.1 1-1.9.6-.6 1.3-1 1.6-1zm29.3 2.4c1.6 0 2.8 4 2.7 8.7 0 4.8-1.4 8.7-3 8.6-1.5 0-2.7-3.9-2.6-8.7 0-4.8 1.4-8.7 3-8.6zm-25-.4a1 1.7 68.5 01.8.4 1 1.7 68.5 01-1.2 1.5 1 1.7 68.5 01-1.9-.3 1 1.7 68.5 011.2-1.4 1 1.7 68.5 011-.2zm2.9.2a1.7 1 23.5 011 .2 1.7 1 23.5 011.2 1.5 1.7 1 23.5 01-2 .2 1.7 1 23.5 01-1-1.5 1.7 1 23.5 01.3-.3 1.7 1 23.5 01.5-.1zm53.5 1.5a5 6.9 1 014.9 7 5 6.9 1 01-5 6.8 5 6.9 1 01-5-7 5 6.9 1 015.1-6.8zM78.2 68.7a5 2.8 23.5 01.3 0 5 2.8 23.5 012.8.7 5 2.8 23.5 013.5 4.5 5 2.8 23.5 01-5.7.6 5 2.8 23.5 01-3.5-4.6 5 2.8 23.5 011-1 5 2.8 23.5 011.6-.2zm34.2 1.7c-1.3 0-3.4.8-5.1.8 0 1 .2 1.8.3 2.7 1.5-1.2 3-2 3.8-1.9.2 0 .4 0 .5.2.8.8-.5 3.2-2.8 5.4l-1 .9.2 1.6 1.7-1.4c3-3 4.5-6.6 3.1-8-.1-.2-.4-.3-.7-.3zm30.6 1a1.7 1 68.5 011.2 1.2 1.7 1 68.5 01-.2 1.9 1.7 1 68.5 01-1.5-1.2 1.7 1 68.5 01.3-2 1.7 1 68.5 01.2 0zm-10-.2a1 1.7 23.5 01.3 0 1 1.7 23.5 01.1 2 1 1.7 23.5 01-1.5 1.2 1 1.7 23.5 01-.1-2 1 1.7 23.5 011-1.1 1 1.7 23.5 01.3 0zm5.1.2a1.5 1.1 1 011.5 1.1 1.5 1.1 1 01-1.5 1 1.5 1.1 1 01-1.5-1 1.5 1.1 1 011.5-1.1zm-9.7 1.1c-.2 0-.4.1-.5.3l1.4.9c-.3-.5-.6-1.1-.9-1.2zm19.6.7c.4 0 .6.9.6 2 0 1-.3 1.9-.6 1.9-.4 0-.7-1-.6-2 0-1 .3-1.9.6-1.9zm-7 .4a1.1 1.5 1 011 1.6 1.1 1.5 1 01-1 1.5 1.1 1.5 1 01-1.1-1.6 1.1 1.5 1 011-1.5zm-5.8 0a1.1 1.5 1 011.1 1.5 1.1 1.5 1 01-1.1 1.5 1.1 1.5 1 01-1.1-1.5 1.1 1.5 1 011.1-1.5zm8.5 2a1 1.7 23.5 01.2 0 1 1.7 23.5 01.2 2 1 1.7 23.5 01-1.5 1.1 1 1.7 23.5 01-.2-1.9 1 1.7 23.5 011-1.1 1 1.7 23.5 01.3 0zm-5.5 1a1.5 1.1 1 011.5 1 1.5 1.1 1 01-1.5 1.2 1.5 1.1 1 01-1.5-1.2 1.5 1.1 1 011.5-1zm3 3a1 1.7 68.5 01.8.4 1 1.7 68.5 01-1.2 1.4 1 1.7 68.5 01-1.9-.2 1 1.7 68.5 011.2-1.5 1 1.7 68.5 011-.2zm5.1 1.1h.2c.2.3-.2 1.1-1 1.9-.7.7-1.5 1.1-1.8.9-.2-.3.2-1 1-1.8.6-.6 1.2-1 1.6-1zm-7 3.1a32 32 0 01.8 1.3l.2.5c.3-.2.4-.4.4-.6 0-.4-.9-.7-1.4-1.2zm-52.5-.7c3.2 0 5.7 1 5.7 2S90 87 86.7 87c-3.2 0-5.8-1-5.8-2s2.7-1.8 5.9-1.8z"/><path fill="none" stroke="url(#e)" stroke-linejoin="round" stroke-width="4" d="M125.2 10.3c7 7.7 21.2 35-5.5 37.6-.1-13.2 1.8-26 5.5-37.6zm37-33c-10 .7-15.3 11-14.5 17.5.1 6.3 3.6 11.5 8.4 13.6l-3.8.8c-.1 20-.2 39.9-1.9 58.9-6-4-12.7-6.7-19.8-8 39.5-21.8 1.1-65-11.3-74l1.5-5.4a135 135 0 00-48.5 9.2c-2 10.3-3.8 18.2-4.5 27.9l-7.5 1.1c-.8 5.5-1 11-.8 16.5l7.6-1c-.2 23.7 3.4 45.8 10 66.5l22.5-12c-9.3-17.6-14.5-37-15.2-56.8 6-.7 11.3-1.1 16-1.4.3-5.6.9-11.8 1.7-17.3-6 .6-12 1.7-17.7 2.4.1-4 .4-8.6.8-12.6a85 85 0 0127.3-5c-4.6 16.2-6.9 33-6.7 49.8h-6.4l1.8 16.5 5.6 1.4c.5 6.2 1.2 12.2 2 18.2l15-2.6a125 125 0 01-2.5-11.5 32 32 0 0121.1 20.4l5.6-2.8c-.5 3-1 6-1.7 9l25.7-8.3c-.5-9.1-.6-18.2-.5-27.3 4.3 11 10.7 21 18.8 29.7 23.5-27.7 28.8-67.7 26-112.4l-21.8 10.3a137 137 0 01-4.4 77.2 94.5 94.5 0 01-8.5-54.2l-8.2 2.4.5-9.7-2.8.6a18 18 0 005-13c-.4-10.6-7.7-14.9-13.9-14.6z" paint-order="markers fill stroke"/><circle cx="164.8" cy="-8.2" r=".8" fill="none"/><circle cx="227.4" cy="-17.6" r="3.4" fill="#912500" stroke="#5b1700" stroke-width="1.2"/><g style="line-height:1.25"><path fill="#5b1700" d="M227.3-18c.4 0 .4 0 .4-.3 0-.2-.2-.3-.4-.4h-.3v.8zm-.3.6v1h-.8v-2.9h1.2c.5 0 1 .2 1 .9 0 .5-.2.7-.5.8.3 0 .4.3.5.5l.4.8h-.8l-.3-.7c-.2-.3-.3-.4-.5-.4z" aria-label="R" font-family="sans-serif" font-size="99.3" font-weight="700" letter-spacing="0" style="-inkscape-font-specification:'sans-serif Bold'" word-spacing="0"/></g><g transform="translate(8.8 -119)"><circle cx="181.9" cy="189.6" r="38.7" fill="#00b9ba" stroke="#006869" stroke-width="2.3" paint-order="markers fill stroke" transform="rotate(1)"/><circle cx="181.9" cy="189.6" r="37.5" fill="url(#f)" paint-order="markers fill stroke" transform="rotate(1)"/><path fill-opacity=".2" d="M198.7 159.7a38.7 38.7 0 0110.2 27 38.7 38.7 0 01-39.3 37.9 38.7 38.7 0 01-19.3-5.6 38.7 38.7 0 0027.7 12.4 38.7 38.7 0 0039.3-38 38.7 38.7 0 00-18.6-33.7z" paint-order="markers fill stroke"/><ellipse cx="63" cy="220.7" fill="#fff" fill-opacity=".2" paint-order="markers fill stroke" rx="14.5" ry="5.1" transform="matrix(.8789 -.477 .4872 .8733 0 0)"/><g transform="matrix(-.41775 -.0302 -.0302 .41775 398 157.2)"><ellipse cx="-439.7" cy="291.2" fill="#007475" paint-order="markers fill stroke" rx="21.1" ry="21.2" transform="matrix(-.94136 .3374 .5198 .85429 0 0)"/><ellipse cx="-439.9" cy="288.7" fill="#fff" paint-order="markers fill stroke" rx="21.1" ry="21.2" transform="matrix(-.94136 .3374 .5198 .85429 0 0)"/><path fill="#ffffc0" d="M550.4 81.4a23.2 18.9 20 00-1.8 20.9 23.2 18.9 20 0030.8 11 23.2 18.9 20 002.7-1.3 23.2 18.9 20 01-7 4.4 23.2 18.9 20 01-30.9-11 23.2 18.9 20 016.2-24z" paint-order="markers fill stroke"/><circle cx="550.6" cy="98.8" r="6.5" paint-order="markers fill stroke"/><path fill="#00a0a1" d="M561 76.4a24.7 21.7 35.7 00-8.3 1.8 24.7 21.7 35.7 00-7.2 5.3l42.6 21.5a24.7 21.7 35.7 00-3-14.7A24.7 21.7 35.7 00561 76.4z" paint-order="markers fill stroke"/><path fill="none" stroke="#007475" stroke-linecap="round" stroke-width="5.5" d="M544 83.3l45.3 22.9"/><ellipse cx="502.6" cy="-83.1" fill="#007475" paint-order="markers fill stroke" rx="21.1" ry="21.2" transform="matrix(.94136 .3374 -.5198 .85429 0 0)"/><ellipse cx="502.4" cy="-85.5" fill="#fff" paint-order="markers fill stroke" rx="21.1" ry="21.2" transform="matrix(.94136 .3374 -.5198 .85429 0 0)"/><circle cx="-532" cy="97.6" r="6.3" paint-order="markers fill stroke" transform="scale(-1 1)"/><path fill="#ffffc0" d="M503.1 83.1a18.9 23.2 70 00-1 1.5 18.9 23.2 70 008.9 25.2 18.9 23.2 70 0025.2-4.7 18.9 23.2 70 01-29.8 9.5 18.9 23.2 70 01-8.9-25.3 18.9 23.2 70 015.6-6.2z" paint-order="markers fill stroke"/><path fill="#00a0a1" d="M520.6 74.6a21.7 24.7 54.3 018.2 1.8 21.7 24.7 54.3 017.3 5.3l-42.7 21.5a21.7 24.7 54.3 013-14.7 21.7 24.7 54.3 0124.2-13.9z" paint-order="markers fill stroke"/><path fill="none" stroke="#007475" stroke-linecap="round" stroke-width="5.5" d="M537.5 81.5l-45.2 22.9"/><circle cx="-529.9" cy="93.2" r="3.2" fill="#fff" paint-order="markers fill stroke" transform="scale(-1 1)"/><circle cx="-548.4" cy="94.9" r="3.2" fill="#fff" paint-order="markers fill stroke" transform="scale(-1 1)"/></g><g transform="matrix(-.24685 -.03264 -.06725 .50858 235.3 125.2)"><ellipse cx="224" cy="166.7" fill="#370606" paint-order="markers fill stroke" rx="23.2" ry="16"/><path fill="#fff" stroke="#3b3b3b" stroke-linejoin="round" stroke-width="8" d="M1172.4 2034.1a16.4 16.4 0 00-12.7 6h-147.6v22.8h149.4a16.4 16.4 0 0011 4.1 16.4 16.4 0 0016.4-16.4 16.4 16.4 0 00-16.5-16.5z" paint-order="markers fill stroke" transform="matrix(.58726 -.1407 .2899 .28504 -961 -267.5)"/><path fill="red" d="M230.1 172.5l76.4-18.3 3 3-76.4 18.2z" paint-order="markers fill stroke"/><path fill="none" stroke="#3b3b3b" stroke-width="3.1" d="M655 9.8l-1.4 5.7M663.8 12.2l-1.5 5.6M672.5 14.5L671 20M680.9 16.7l-1.5 5.7" transform="matrix(1.26423 -.53856 1.10957 .61362 -601.8 515.2)"/><path fill="#196022" d="M229 170a12.3 30 80 00-26.6 2.4 23.2 16 0 0021.6 10.4 23.2 16 0 0017.7-5.7 12.3 30 80 00-3.4-4.2 12.3 30 80 00-9.2-3z" paint-order="markers fill stroke"/></g><circle cx="-154" cy="234.5" r="3" fill="red" fill-opacity=".3" paint-order="markers fill stroke" transform="scale(-1 1) rotate(10.9)"/><circle cx="-143.2" cy="228.6" r="3.5" fill="red" fill-opacity=".5" paint-order="markers fill stroke" transform="scale(-1 1) rotate(10.9)"/><circle cx="-157.5" cy="206.9" r="2.4" fill="red" fill-opacity=".2" paint-order="markers fill stroke" transform="scale(-1 1) rotate(10.9)"/><circle cx="-119.8" cy="220.7" r="3" fill="red" fill-opacity=".4" paint-order="markers fill stroke" transform="scale(-1 1) rotate(10.9)"/><circle cx="-141.3" cy="241" r="2.4" fill="red" fill-opacity=".4" paint-order="markers fill stroke" transform="scale(-1 1) rotate(10.9)"/><g fill="#ffd9d9" stroke="#007475" stroke-width="1.3"><path stroke-width=".927381" d="M197 185.5l9.4 8-2.9 3.2-8.9-8.7z"/><path stroke-width=".927381" d="M206 188l-8.4 8.8-3-3 9.1-8.4z"/></g><path fill="#2ad4ff" d="M195.8 163c5.8 2.7 4.4 4 3.3 4.6-2.8 1.4-3.7 0-3.3-4.7zM187.2 163.6c-5.8 2.5-4.5 4-3.4 4.5 2.8 1.5 3.7.2 3.4-4.5z"/><ellipse cx="235.1" cy="-80.8" fill="#fff" fill-opacity=".3" paint-order="markers fill stroke" rx=".6" ry="1.4" transform="rotate(60.7)"/><ellipse cx="169" cy="193.4" fill="#fff" fill-opacity=".3" paint-order="markers fill stroke" rx=".6" ry="1.4" transform="rotate(-8.8)"/><circle cx="-110.2" cy="234.4" r="2" fill="red" fill-opacity=".2" paint-order="markers fill stroke" transform="scale(-1 1) rotate(10.9)"/></g><g transform="translate(324.9 -113.5)"><circle cx="95.8" cy="189.6" r="38.7" fill="#00b9ba" stroke="#006869" stroke-width="2.3" paint-order="markers fill stroke" transform="rotate(1)"/><path fill-opacity=".2" d="M112.6 158.2a38.7 38.7 0 0110.3 27A38.7 38.7 0 0183.5 223a38.7 38.7 0 01-19.3-5.6A38.7 38.7 0 0092 229.9a38.7 38.7 0 0039.4-38 38.7 38.7 0 00-18.7-33.7z" paint-order="markers fill stroke"/><path fill="#009495" d="M99.5 193.6c-2.7-.2-1-1.7.4-1.6 5.2-.2 8.5 2.2 4.3 10-1.2 2.6-2.1 1.9-1.3 0 2.3-5.8 2.7-8.2-3.4-8.4z"/><path fill="#370606" d="M96.7 196.5c5.9-2.7 6.5 2.7 2 8.8-8 10.9-23 10.3-29.1.1-4.4-7.4-2.5-13.1 2.8-9.4 8.2 5.1 15.2 5 24.3.5z"/><path fill="#9a0000" d="M83.4 205.8a5.5 8.5 87.5 00-.9 0 5.5 8.5 87.5 00-8.1 4.7 17.1 17.1 0 0016.8 1 5.5 8.5 87.5 000-.6 5.5 8.5 87.5 00-7.8-5.1z" paint-order="markers fill stroke"/><g paint-order="markers fill stroke" transform="rotate(1 3574.7 -18750) scale(1.15843)"><circle cx="349.6" cy="204.5" r="7.8" fill="#007475"/><circle cx="349.9" cy="205.6" r="7.8" fill="#fff"/><use xlink:href="#reuse-0"/><path d="M350.9 202.6a2 2.5 0 00-.8.2.8.8 0 01.6.7.8.8 0 01-.8.8.8.8 0 01-.7-.5 2 2.5 0 00-.3 1.4 2 2.5 0 002 2.5 2 2.5 0 002-2.5 2 2.5 0 00-2-2.6z"/></g><g paint-order="markers fill stroke" transform="rotate(1 3557.3 -17589.3) scale(1.15843)"><circle cx="350.7" cy="204.5" r="7.8" fill="#007475"/><circle cx="349.9" cy="205.6" r="7.8" fill="#fff"/><use xlink:href="#reuse-0"/><path d="M350 203a2 2.5 0 00-.7.2.8.8 0 01.6.8.8.8 0 01-.8.7.8.8 0 01-.7-.5 2 2.5 0 00-.3 1.4 2 2.5 0 002 2.5 2 2.5 0 002-2.5 2 2.5 0 00-2-2.5z"/></g><ellipse cx="-11.4" cy="178.3" fill="#fff" fill-opacity=".2" paint-order="markers fill stroke" rx="14.5" ry="5.1" transform="matrix(.8789 -.477 .4872 .8733 0 0)"/></g><path fill="#ff9" d="M75.8 6L69.3-4 57.8-1.3l7.4-9.2L59-20.7l11 4.2 7.8-9-.5 11.9L88.3-9 76.9-6zM105.8-7.8l-2.2-5.2-5.7.2 4.3-3.7-2-5.4 4.9 3 4.5-3.6-1.3 5.6 4.7 3.1-5.7.5zM64.4 27.3L60 23.6l-5 2.8 2.2-5.3-4.2-3.8 5.7.4 2.4-5.2 1.3 5.5 5.7.7-4.8 3zM78.6 19.2l-1.8-2.7-3.1.7 2-2.5-1.7-2.8 3 1.2 2.2-2.5L79 14l3 1.2-3.1.9z" paint-order="fill markers stroke"/><circle cx="71.4" cy="-12.8" r="11" fill="#fff" fill-opacity=".2" paint-order="fill markers stroke" transform="rotate(1)"/><circle cx="63.6" cy="-21.1" r="5.4" fill="#fff" fill-opacity=".2" paint-order="fill markers stroke" transform="rotate(1)"/><g fill="#ffffad"><path d="M132.9 71l-8.6-1.3-3.3 14.7 7.2 1.5.3-2-4.8-.8.8-4.4 3.6.9.6-3-3.2-.6.4-3.3 4.2.4c.9 0 1.7 0 2.5-.2zM121.6 73.7h-9a54.7 54.7 0 01-.4 15.2l2.9-.3c-.3-.9-.4-1.8-.5-2.7v-3.3l3.6.2v-3H115l-.2-3.4a53 53 0 016.2-.7zM98.2 71c-1 0-2 .4-2.8 1.1-.8.8-1.2 1.7-1.2 2.8 0 1.5.3 3 1.2 4.6.4.8 1.2 1.8 2.3 3.2.8 1 1.2 1.7 1.2 2 0 .8-.6 1.4-1.9 1.7-.8.3-1.8.4-2.8.4a999.4 999.4 0 01-3.8-.9L89.2 87c1 .5 2 .8 3 1 1 .2 2.2.3 3.4.3 1.6 0 2.8-.2 3.9-.7 1.3-.6 2-1.6 2-3 0-1.2-.5-2.4-1.4-3.7l-2.6-3.2a6 6 0 01-1.4-3.7c0-.6.1-1 .3-1.3.3-.4.7-.6 1.2-.6s1 .3 1.3 1c.2.5.3 1 .3 1.6v.3l2.2-1.1a7 7 0 00-1.3-2c-.6-.6-1.3-1-2-1zM109.4 67.5l-3.6.3a56.5 56.5 0 00-3.7 12.9h2.1l1-4.6 2.8-.2.4 5h2.7a167 167 0 01-1.7-13.4zm-1.9 1.6l.2 3H106l.8-2.6zM72.2 65.8l-13.5 1.1.6 3 2.6-.2.4 11.9 3.5-.2-1.6-12.7 7.8-1.4zM80 64.6l-3.2.4a19.5 19.5 0 002.6 6.5c.7 1.2 1.4 1.7 2.1 1.7l.7-.2.7-.2-1.1 6.9 3.3-.8a188.4 188.4 0 00-.7-7.4 30.5 30.5 0 01.3-7l-3 .2 1 6c-.2.2-.4.3-.7.3-.6 0-1.1-.5-1.5-1.8a11.7 11.7 0 01-.5-3.7v-1zM54.9 71.2c-1.1 0-2 .5-2.8 1.3-.7.8-1 1.8-1 2.8.1 1.6.6 3.1 1.6 4.6a23 23 0 002.6 3c.9.9 1.3 1.5 1.4 1.9 0 .8-.6 1.4-1.8 1.9-.8.3-1.8.5-2.8.6-.6 0-1.2 0-2-.2l-2-.4-.9 1.3c1 .4 2 .6 3.1.7h3.5c1.5 0 2.8-.4 3.8-1 1.2-.7 1.8-1.8 1.7-3.1 0-1.2-.6-2.4-1.7-3.6l-2.9-3a6 6 0 01-1.7-3.6c0-.6 0-1 .3-1.4.2-.4.6-.6 1.1-.6.5 0 1 .2 1.3.8.4.5.5 1 .6 1.6v.4l2-1.4c-.4-.7-.8-1.3-1.4-1.8-.7-.6-1.4-.9-2-.8zM75.4 70.7l-3.5.6c-.8 2-1.4 4.1-1.9 6.4-.4 2-.6 4.3-.8 6.8l2.1-.2.6-4.7 2.8-.4.8 5 2.7-.2a167.6 167.6 0 01-2.8-13.3zM73.1 73h.8l.4 3.3h-2c-.2 0 .8-3.3.8-3.3z" font-family="KG Piece by Piece" font-size="31" font-weight="400" letter-spacing="0" style="line-height:1.25;-inkscape-font-specification:'KG Piece by Piece'" word-spacing="0"/><path d="M48.8 75l-5.3-2.5 1.7-3 4 3.9zM47.5 68.3l2.4-1.2 1.5 4.2-1.2 1zM137.1 77.8l5.2-2.7-1.9-2.8-3.8 4zM138 71.1l-2.3-1-1.4 4.2 1.3 1z"/></g></g></svg>