<svg xmlns="http://www.w3.org/2000/svg" xmlns:xlink="http://www.w3.org/1999/xlink" id="svg28" width="900" height="673" version="1.1" viewBox="0 0 238.1 178.1"><defs><path id="path18995" fill="#ff0" fill-opacity=".2" stroke="none" stroke-linejoin="round" stroke-width="4" d="M261 297.6a4.6 4.6 0 0 0-4.7 4.5 4.6 4.6 0 0 0 4.6 4.6 4.6 4.6 0 0 0 4.6-4.5 4.6 4.6 0 0 0-4.5-4.6zm-64.7-.5h-.6c-10 .7-15.3 11-14.5 17.5.1 6.3 3.6 11.5 8.4 13.6l-3.8.8c0 20-.2 39.9-1.9 58.9-6-4-12.7-6.8-19.8-8 39.5-21.8 1.1-65-11.3-74l1.5-5.4a135 135 0 0 0-48.5 9.2c-2 10.3-3.8 18.2-4.5 27.9l-7.5 1c-.8 5.6-1 11-.8 16.6l7.6-1c-.2 23.7 3.4 45.8 10 66.5l22.5-12c-9.2-17.6-14.4-37-15.2-56.8 6-.7 11.3-1.1 16-1.4.3-5.6 1-11.8 1.7-17.3-6 .6-12 1.7-17.7 2.4.1-4 .4-8.6.8-12.6a85 85 0 0 1 27.3-5c-4.6 16.2-6.8 33-6.7 49.8H133l1.8 16.5 5.6 1.4c.5 6.2 1.2 12.2 2 18.2l15-2.6a125 125 0 0 1-2.5-11.5 32 32 0 0 1 21.1 20.4l5.6-2.8c-.5 3-1 6-1.7 9l25.7-8.3c-.5-9.1-.6-18.2-.5-27.3 4.4 11 10.7 21 18.8 29.7 23.5-27.7 28.8-67.7 26-112.4L228 308.4a137 137 0 0 1-4.4 77.2 94.5 94.5 0 0 1-8.5-54.2l-8.2 2.4.5-9.7-2.8.6a18 18 0 0 0 5-13c-.4-10.3-7.2-14.6-13.3-14.6zm-37.6 33c7 7.7 21.2 35-5.5 37.6 0-13.2 1.8-26 5.5-37.6z"/><path id="path18901" fill="#000" fill-opacity="1" stroke-width="1.2" d="M160.7 316.1v.1c0 1-.6 1.7-1.4 1.7-.8 0-1.5-.8-1.5-1.7-.5.5-.9 1.2-.9 2 0 .7.2 1.4.6 2-.7.4-1 .9-1 1.5-.1 1 1 2.8 2.1 4.5-.2.6-.3 1.2-1.1 2 1.2-.2 2.5 0 3.7 0-.6-.5-1-1.2-1-2 2.1-1.9 3-5 1-6.2a3 3 0 0 0-.5-3.9z"/><path id="path18917" fill="#fff" fill-opacity=".2" stroke-width="5" d="m422.7 1399.9-13.5-2.6-7.1 11.8-1.7-13.7-13.4-3 12.4-6-1.1-13.6 9.4 10 12.7-5.3-6.7 12z"/><path id="path18913" fill="#000" fill-opacity="1" stroke-width="1.2" d="M233.5 311.1c-3.8-.2-5.4 1.3-7.3 2.7.7-.9 4.4 1.2 3.1 3 1.1-2.2 5.4-.1 4.6 1.5 1.1-1 2.5-1.6 6.2 1.2 3.3-3.7 4.3-2.9 5.9-3-1-1.3 2.3-4.5 3.3-3.3-.6-1.3 2-4.4 2.4-3.6-1.6-1-3.8-1.4-7.8-.2.6-.1-1 5.2-2.2 5.2.5-.4-.8-3-1.1-2.8l-.2 1.8c-.8-.4-1.5-.2-2.1.4l-.7-1.8c-.4.8-.6 1.7-.3 2.8-2-.6-3.1-2.1-3.8-3.9z"/><path id="path13958" fill="#008b70" d="M1065.9 364.8c-10 1.3-11.4 6.7-12.6 10.8a61.1 61.1 0 0 1-42.4-9.4c-10-6.4-5.2 3.7-3.4 5.7 2.5 5 11.9 17.4 33 21.6-1.2 2.1-2 4.8-1.8 8.7.8 5.7 5.4 11.6 12.6 10.8 5.2-1.2 5-5.1 6-9.3 6.3 1.5 14.2 1.5 19.6-2.3 3.2 0 2.5 5.6 2.9 5.4-.4.9 7 1.4 7.8.3 3-1.6 4.6-6.3 3.6-10.3 4.2 3 6.7 2.7 8.9.5 4.2-2 1-7.7 0-10.7-4.3-6.4-9.5-10-15.7-9.9-4.4-12.4-15-11.9-18.5-12z"/><path id="path13960" fill="#000" d="M1065.6 361.8c-11.2 1.6-12.6 7.6-14 12.2-19 3.8-32.7-3.7-45.9-12 3 2.3 11.3 19 47.9 17.8 1 3.6 2.5 6.6 4.8 9a29 29 0 0 1-1.7-13c.4-1.8.6-3.5 4.6-6 4-2.4 9.3-3.5 15.5.3 1.4.9 6.7 5.3 5 10.3-1 1.3-1.3 3-4.5 2.8-2.4-.2-4.3.5-11.8-6.9.1 1.7.2 2.6 1.7 4.4-1.6 1.6-2 3.5-2.3 5.5a10 10 0 0 1 4.2-3.4c4.6 4.9 8.7 4.2 12.7 2.6 3.3 2.7 5.4 5.4 6.2 8.7 1 4.2 2 8.3-.1 10.2-2 1.8-3.8 2.7-5.4-1a22.7 22.7 0 0 1-1.8-8.2c-.4-3.7-3.2-5-4.8-5.8 1.1 2.3 2.6 5 1.8 7-5.5 6.5-11 6-17 5.1-5.4-.5-5.3-4.3-6.2-7.5a43 43 0 0 1-1.1 10c-1.9 5-4.2 8.7-8.6 6.4-3.2-2.6-4-6.2-3.6-10.2 1-6.3 5.4-7.7 9.3-10-24.6 1.7-36.2-11.7-47.7-24 2.1 3 8.6 23 34.7 28.3a17.8 17.8 0 0 0-2 9.8c.8 6.5 6 13.1 13.9 12.2 5.8-1.3 7.7-5.5 8.9-10.2a22.4 22.4 0 0 0 19.5-3c-.9.7 1.3 5.4 3.5 6.5 2 1.5 5.4 1.7 8.3 0 3.2-1.8 4.2-5.4 3.1-10 4.6 3.4 8.3 1.5 10.7-1 2.5-3.2 2-8.8 0-12.1-4.8-7.3-10.5-11.5-17.4-11.2-4.8-14-16.5-13.5-20.4-13.6zm19.8 18a18 18 0 0 1 13.3 7.1 10 10 0 0 1 2.1 7.4c-1 3-3.7 2.1-5.3 1.3a31.5 31.5 0 0 1-7-7.8c-1.3-2.1-3.1-3-4.8-4.3.9 0 2-3.7 1.7-3.7z"/><path id="path14016" fill="#000" stroke-width="0" d="M1204.6 227.8c-1.5 4.6-3.2 9.1-2.6 15.3.5 3.1.8 5.4 3.5 9.3 3.1 2.7 6.4 3 9.7 2.2a9.6 9.6 0 0 0 7 2.7c5 0 9.5-1 12-5.8 1.2-4.7.6-7 0-10-1.9-6-5-9.6-8.2-13.3 1.8 5.6 3.8 11.3 3.8 16.1-.4 4-1.7 4.8-3.7 5.9-2 1.1-6 1-8.3-2-2.9-3.6-2.3-9.8-3-15.2-2 4.8-4 10-3.1 14.7l.1.4c-1.8-.3-3.2-.9-4.7-4-1.8-4.5-2-10.5-2.5-16.3z"/></defs><defs id="defs32"><linearGradient id="linearGradient18845"><stop id="stop18841" offset="0" stop-color="#141a26" stop-opacity="1"/><stop id="stop18843" offset="1" stop-color="#476d8f" stop-opacity="1"/></linearGradient><linearGradient xlink:href="#linearGradient18845" id="linearGradient18847" x1="187.6" x2="187.6" y1="286.3" y2="414.7" gradientUnits="userSpaceOnUse"/><linearGradient xlink:href="#linearGradient18845" id="linearGradient18997" x1="187.6" x2="187.6" y1="286.3" y2="414.7" gradientUnits="userSpaceOnUse"/><linearGradient xlink:href="#linearGradient18845" id="linearGradient19061" x1="187.6" x2="187.6" y1="286.3" y2="414.7" gradientUnits="userSpaceOnUse"/><clipPath id="clipPath18993" clipPathUnits="userSpaceOnUse"><use xlink:href="#path18995" fill-opacity=".2" stroke-linejoin="round" stroke-width="4"/></clipPath><clipPath id="clipPath19075" clipPathUnits="userSpaceOnUse"><use xlink:href="#path18995" id="path19077" fill-opacity=".2" stroke-linejoin="round" stroke-width="4"/></clipPath></defs><g id="g26" transform="rotate(-1 2648.5 2472.7) scale(1.15007)"><path id="path19079" fill="#000" fill-opacity=".2" fill-rule="nonzero" stroke="none" stroke-dasharray="none" stroke-dashoffset="0" stroke-linecap="butt" stroke-linejoin="round" stroke-miterlimit="4" stroke-opacity="1" stroke-width="17.4" d="M560 66.4h-2.9a8.7 8.7 0 0 0-.2 0 74.6 74.6 0 0 0-55 33.3 79 79 0 0 0-14.5 53.2 76 76 0 0 0 24.9 54.4 8.7 8.7 0 0 0-4 7.3c1 82 1.9 163.4-3 241.4-18-10.2-37.2-18-57.2-23 32.5-23.2 51.3-50.6 57.8-79.7 7.7-34.2 0-69.5-14.5-102.2-27.7-62.3-79.6-115-109.7-137.6l4.7-18.3a8.7 8.7 0 0 0-8.6-10.8 595.4 595.4 0 0 0-213.1 44.3 8.7 8.7 0 0 0-5.3 6.5c-7.4 42.2-14 76-16.8 115.6l-26 4.3a8.7 8.7 0 0 0-7.2 7.4c-3.1 24.6-3.6 49-2.3 73.4a8.7 8.7 0 0 0 10 8l23.5-3.4c1 51.3 5.9 100.8 14.5 148.7A73 419 90 0 0 37 540a73 419 90 0 0 24.7 24.5A53 136.5 90 0 0 10 606a53 136.5 90 0 0 136.5 53 53 136.5 90 0 0 136.4-52.6A73 419 90 0 0 456 613a73 419 90 0 0 99.3-2.2 53 115.5 90 0 0-.3 3.2 53 115.5 90 0 0 115.5 53A53 115.5 90 0 0 786 614a53 115.5 90 0 0-15-26 73 419 90 0 0 104-48 73 419 90 0 0-126.8-52.3c55.8-115 65.7-258.2 53.3-413a8.7 8.7 0 0 0-12.5-7.1L695 114a8.7 8.7 0 0 0-4.6 10 586.4 586.4 0 0 1-6.5 309 401.8 401.8 0 0 1-30.7-209.2 8.7 8.7 0 0 0-11.2-9.4l-23.8 7.4 1-30a8.7 8.7 0 0 0-3.2-7 86.8 86.8 0 0 0 11.8-47.7c-1.4-25-11-43.6-24.6-55.2A64.6 64.6 0 0 0 560 66.4zm274.5 6.4a21 21 0 0 0-21 21 21 21 0 0 0 21 21 21 21 0 0 0 21-21 21 21 0 0 0-21-21zm-274 11A47.4 47.4 0 0 1 591.7 95c9.9 8.4 17.5 21.9 18.7 42.9a69.5 69.5 0 0 1-18.5 50.5 8.7 8.7 0 0 0 8.4 14.4l1-.3-1 30.9a8.7 8.7 0 0 0 11.3 8.6l23.1-7.2c-7 78 7.7 156.5 43 226.6a8.7 8.7 0 0 0 16-1.1 604 604 0 0 0 15-333.8l76-37.6c11 150.5-.9 287.3-55.3 395.8a73 419 90 0 0-98.3-11c-7-12.6-13.2-25.6-18.8-39a8.7 8.7 0 0 0-16.7 3.4l.5 33a73 419 90 0 0-74-3.2c5.5-80 4.6-163.2 3.6-246.6l9.6-2.2a8.7 8.7 0 0 0 1.5-16.5 56 56 0 0 1-32.2-50.7 8.7 8.7 0 0 0-.1-1 64.3 64.3 0 0 1 11.6-41.5 56.5 56.5 0 0 1 44.2-25.7zm-193.9 18.7-3.1 12a8.7 8.7 0 0 0 3.4 9.3c25.4 17.7 81.5 73.4 108.6 134.4 13.6 30.5 20 62 13.5 91.3-6.6 29.2-25.8 56.8-66.7 80.3a8.7 8.7 0 0 0 3 16.1 214.7 214.7 0 0 1 65 21.4 73 419 90 0 0-34.3-.3 73 419 90 0 0-123 3.2 949 949 0 0 1-.7-6.7 8.7 8.7 0 0 0-6.7-7.6l-18.5-4.3-7.1-56 18.1-.3a8.7 8.7 0 0 0 8.5-9c-2-72.2 6.4-144.4 25-214.3a8.7 8.7 0 0 0-8.6-11 378.1 378.1 0 0 0-121 24.4 8.7 8.7 0 0 0-5.6 7.4 778.9 778.9 0 0 0-2.6 55.5 8.7 8.7 0 0 0 10 8.6c21.6-3 43.8-7 66-10a873 873 0 0 0-4.7 57 1229 1229 0 0 0-62.5 6.7 8.7 8.7 0 0 0-7.5 9c3 53.8 13.5 106.7 31 157.3a73 419 90 0 0-73.9 9.5c-9.1-50-14.3-102-14.8-156a8.7 8.7 0 0 0-10-8.5l-23 3.4c-.6-18-.2-36.2 1.8-54.2L152 267a8.7 8.7 0 0 0 7.2-8.1c2.2-39.8 9-73.2 16.5-115.6a577.6 577.6 0 0 1 190.9-40.7zm-34.4 76.8c-16.3 65-24 131.8-22.9 198.8l-19.3.3a8.7 8.7 0 0 0-8.5 9.8l9.1 71.6a8.7 8.7 0 0 0 6.7 7.3l18 4.2a73 419 90 0 0-51.6 4 571 571 0 0 1-30.3-148.4c22-2.8 42.6-5 60.5-6.4a8.7 8.7 0 0 0 8-8.3c.8-24.1 3-50.9 6-74.5a8.7 8.7 0 0 0-9.7-9.8c-22.9 2.7-45 7-66.5 10.2.3-12.6.8-25.7 1.7-38.2 31.8-11.5 65-18.4 98.8-20.6zm67.3 33.4a8.7 8.7 0 0 0-8.4 6.1 535.6 535.6 0 0 0-21.4 166.6 8.7 8.7 0 0 0 9.6 8.4c30.5-3.5 51-14.3 62.6-30.1 11.5-15.8 13.5-35.4 10.6-54.4-5.8-38-29.8-75.9-46.8-94a8.7 8.7 0 0 0-6.2-2.6zm4 27.8c13 18.3 28 46.2 31.8 71.4 2.5 16.2.6 30.5-7.5 41.5-7 9.6-19.7 17.3-40.6 21.3-.3-46.7 5.3-92 16.3-134.2z" baseline-shift="baseline" clip-rule="nonzero" color="#000" color-interpolation="sRGB" color-interpolation-filters="linearRGB" color-rendering="auto" direction="ltr" display="inline" dominant-baseline="auto" font-family="sans-serif" font-size="medium" font-stretch="normal" font-style="normal" font-variant="normal" font-weight="400" image-rendering="auto" letter-spacing="normal" opacity="1" overflow="visible" shape-rendering="auto" style="line-height:normal;font-variant-ligatures:normal;font-variant-position:normal;font-variant-caps:normal;font-variant-numeric:normal;font-variant-alternates:normal;font-feature-settings:normal;text-indent:0;text-align:start;text-decoration-line:none;text-decoration-style:solid;text-decoration-color:#000;text-transform:none;text-orientation:mixed;white-space:normal;shape-padding:0;isolation:auto;mix-blend-mode:normal;solid-color:#000;solid-opacity:1" text-anchor="start" text-decoration="none" text-rendering="auto" transform="scale(.2301) rotate(1 10008.2 9336)" vector-effect="none" visibility="visible" word-spacing="normal" writing-mode="lr-tb"/><g id="g18991" stroke="none" stroke-dasharray="none" stroke-linecap="round" stroke-linejoin="round" stroke-miterlimit="4" stroke-opacity="1" clip-path="url(#clipPath19075)" transform="translate(-33.6 -319.7)"><path id="rect18839" fill="url(#linearGradient18997)" fill-opacity="1" stroke-width="1.1" d="M96.7 285.3h174.6v130H96.7z" transform="rotate(1)"/><path id="path18915" fill="#99f" fill-opacity=".2" stroke-width="1.2" d="m82.6 350 50.7-14 33.4 5.1c2.3.3 23-3.6 23-3.6l28 7.4 23.4-10.7 34.1-10-.3 2.8-32.9 13-29.8 13.7-27.5-11.4-30.9 3.2-25-4.8-47.3 23z"/><path id="path18851" fill="#fff" fill-opacity="1" stroke-width=".8" d="M196 299.8a11.2 11.2 0 0 0-10.5 6.9 7.3 11.8 74.2 0 1 .1 0 7.3 11.8 74.2 0 1 13.3 3.8 7.3 11.8 74.2 0 1-8.8 10 11.2 11.2 0 0 0 5.5 1.6 11.2 11.2 0 0 0 11.4-11 11.2 11.2 0 0 0-11-11.3z"/><path id="path18856" fill="#005" fill-opacity=".2" stroke-width=".8" d="M197.5 300a11.2 11.2 0 0 0-4.5 1 2.3 1.5 1 0 1 2 1.4 2.3 1.5 1 0 1-2.4 1.5 2.3 1.5 1 0 1-2.3-1.4 11.2 11.2 0 0 0-3.3 4.4 7.3 11.8 74.2 0 1 12.5 2.1 3 1.9 66.7 0 1 .7-.8 3 1.9 66.7 0 1 .6-.1 3 1.9 66.7 0 1 2.3 2 3 1.9 66.7 0 1-.5 3.5 3 1.9 66.7 0 1-2.1-.7 7.3 11.8 74.2 0 1-9 7.9 11.2 11.2 0 0 0 5.6 1.6 11.2 11.2 0 0 0 11.3-11 11.2 11.2 0 0 0-6-10.1 2.3 1.5 26.5 0 1 .3 1.6 2.3 1.5 26.5 0 1-2.7.3 2.3 1.5 26.5 0 1-1.4-2.4 2.3 1.5 26.5 0 1 .8-.5 11.2 11.2 0 0 0-2-.2zm3.7 17a1.9 3 40.9 0 1 .8.3 1.9 3 40.9 0 1-.5 3.5 1.9 3 40.9 0 1-3.3 1 1.9 3 40.9 0 1 .5-3.5 1.9 3 40.9 0 1 2.5-1.3z"/><path id="path18869" fill="#654e4e" fill-opacity=".2" stroke-width="1" d="M198.6 300s4.7 4 4.7 4.2v3.2l2.3 1.5-1.2 6.2-3.3 4.4-5.2 1.5-2 1.9 8.4-1 6-5.8.7-9.6-4-5z"/><use xlink:href="#path18901" fill-opacity="1" stroke-width="1.2"/><use xlink:href="#path18917" fill-opacity=".2" stroke-width="5" transform="rotate(1 -7766.8 8094.2) scale(.1272)"/><use xlink:href="#path18917" id="path18919" fill-opacity=".2" stroke-width="5" transform="rotate(15.3 -396.1 975.4) scale(.1272)"/><use xlink:href="#path18917" id="path18921" fill-opacity=".2" stroke-width="5" transform="rotate(41 -92.3 385.4) scale(.1272)"/><use xlink:href="#path18917" id="path18923" fill-opacity=".2" stroke-width="5" transform="rotate(17.1 -361 455.5) scale(.1272)"/><use xlink:href="#path18917" id="path18925" fill-opacity=".1" stroke-width="5" transform="rotate(17.1 -707 609) scale(.0734)"/><use xlink:href="#path18917" id="path18927" fill-opacity=".1" stroke-width="5" transform="rotate(17.1 -661.7 819) scale(.0734)"/><use xlink:href="#path18917" id="path18929" fill-opacity=".1" stroke-width="5" transform="rotate(17.1 -720.2 471.7) scale(.0734)"/><circle id="path18931" cx="240" cy="317.1" r=".6" fill="#fff" fill-opacity=".3" stroke-width=".3" transform="rotate(1)"/><circle id="circle18933" cx="244.9" cy="306" r=".6" fill="#fff" fill-opacity=".3" stroke-width=".3" transform="rotate(1)"/><circle id="circle18935" cx="191" cy="305.5" r=".6" fill="#fff" fill-opacity=".3" stroke-width=".3" transform="rotate(1)"/><circle id="circle18937" cx="160.5" cy="311.2" r=".6" fill="#fff" fill-opacity=".3" stroke-width=".3" transform="rotate(1)"/><circle id="circle18939" cx="128.1" cy="306.1" r=".6" fill="#fff" fill-opacity=".3" stroke-width=".3" transform="rotate(1)"/><circle id="circle18941" cx="110.5" cy="330.1" r=".6" fill="#fff" fill-opacity=".3" stroke-width=".3" transform="rotate(1)"/><circle id="circle18943" cx="173.6" cy="324.6" r=".6" fill="#fff" fill-opacity=".3" stroke-width=".3" transform="rotate(1)"/><circle id="circle18945" cx="245.7" cy="318.7" r=".3" fill="#ff0" fill-opacity=".3" stroke-width=".2" transform="rotate(1)"/><circle id="circle18947" cx="244.3" cy="327.2" r=".3" fill="#ff0" fill-opacity=".3" stroke-width=".2" transform="rotate(1)"/><circle id="circle18949" cx="208.1" cy="325.5" r=".3" fill="#ff0" fill-opacity=".3" stroke-width=".2" transform="rotate(1)"/><circle id="circle18951" cx="202.2" cy="323" r=".3" fill="#ff0" fill-opacity=".3" stroke-width=".2" transform="rotate(1)"/><circle id="circle18953" cx="154.5" cy="302.4" r=".3" fill="#ff0" fill-opacity=".3" stroke-width=".2" transform="rotate(1)"/><circle id="circle18955" cx="136.7" cy="312.1" r=".3" fill="#ff0" fill-opacity=".3" stroke-width=".2" transform="rotate(1)"/><circle id="circle18957" cx="118.3" cy="321.7" r=".3" fill="#ff0" fill-opacity=".3" stroke-width=".2" transform="rotate(1)"/><circle id="circle18959" cx="172.2" cy="328.5" r=".3" fill="#ff0" fill-opacity=".3" stroke-width=".2" transform="rotate(1)"/><use xlink:href="#path18913" fill-opacity="1" stroke-width="1.2"/><path id="path18849" fill="#000" fill-opacity="1" stroke-width="5.9" d="m298.1-597.3-1.1 15.8-13.8 7.3L273-555l.3-11.8-3.4-9.9 4.8-6.8v-6.2l-11.5 12.4 2.5 15.8-2.2 11.6 9.8 11.8-1.7 10.7 12.4 12.1s2.8 17.2 2.8 18.3c0 1.1 5.7 8.5 5.7 8.5L305-479l15.5 6.8.3 15.2-18 13-10.1-5.4-13.9-10.7-20.5 1.1v-3l3.4-2.3-3.1-5.4.5-19.7-5.3-2.2-6-3.7-2-7-7 1v-3.6l6.2-7.9 1.5-5.9-5.1-13.5 3-5.3.6-19.8 6.8-6.4.3-6.5 6.2-10.3-12.1 1.8-9.6 7.6v16l-6.2 16.4 3.4 9.9-2.3 4.8-11.5 4.2-2.6-2.8-1.3-29.2.3-9.3 15.8-13.5-32.5 7.4-11.6-7-1.4-13-5.9 6-12.7 1.7-1 3.6 12.3 1.7s-11.3 4.8-12.7 5.7c-1.4.8 17-.9 17-.9l23.3 14.7-2.2 35.2-18.3-8.5-5.7-4.5-2.2-17.7 6.2-6.5-3.1-1.4-11.3 4.5-7-2.5-12.2 3.3-3 8.8 11.8-3.7 2.2 6-7.6 8.7 9.6-1.4 6.2-6 3.4 15.8 3 9.9-.5 11.5 6.8 7 11.8 1 12.4 7.8 7.3-1.7s5.7-1.7 6.8-1.7c1.1 0 8.7 6.5 9.8 6.8 1.2.3 2.3 7.9 2.3 7.9l-3.1 10.7-13.8-.6-10.1 6.5-6.2 8.7-21.2-.8-3.6-3.1.2-7.6 8.2-6 11.6-2.5 5-5v-8.5l-10.4 9-15.8 1.1-6.4-3.6-4.5-10.4-6.2-6.8-1.7-19.2-7.6-14.6-26 1.4 7.7 8.2 4.2-.3 5.6-3.4 7.6 9.3.3 5.6-16.3-3.6-1.7 8.4-7.4 7.3h-13l-7 5.7 21.5-1.1 4.7-3.4 4.8-.3 6.8-8.2 13.5 16.4 2.5 9.3h-4.2l-7-6.2-5.4-.6-5 4.8-29 12.7-1.7 16.6 4.7-10.2 21.7-11 3.4 2.6-2.8 9.6 1.1 15.2 8.2-18.9 2.2-8.4s10.7 2.2 11.9 2.2c1.1 0-.3 6-.9 7.3a77.5 77.5 0 0 0 3.1 13.8l7.6 10.5 15.8 6.7L203-433h15.8l2.8 12.6 7.6 8.8-1.7 17.7-6.5 9.3-10.7 9.9-2.8 9-9 8.4-.6 10.5-16.6 13.8-1.7 10.1 3.1 17.2.9 18c0 1.4 9 8.2 9 8.2l7.3 11.8.4 3.5-2.1-2.3 2.2 3.6 1.5 13.8v13.1c-4.1-4.8-8.3-9.5-12.7-14.2 4.5 6.2 8.7 12.5 12.6 18.8l-.2 13a1755 1755 0 0 1-12.1 40.8c.1-8.5 1.4-17.3 4.6-26.7a110 110 0 0 0-10.6 33l-5.3 1.5c-2-16.3-3-33.7-1.2-55.2-2.2.3-6 35.1-7.7 57.6l-1.5.4c-2.7-24.6-9-65.4-13.4-65 3 1.4 5.2 42.7 5.2 67.3C66.9-138.3 14-101 13.9-61.7c0 37.2 47.2 72.8 131.3 99 84.1 26.3 198.2 41 317.2 41s233-14.7 317.1-41c84.1-26.2 131.4-61.8 131.4-99-.3-48.5-80.8-93.4-213-119a312.3 312.3 0 0 1 32.9-63c-17 19.7-35.6 39-48 60.2l-11.8-2a224.8 224.8 0 0 0-30.9-53.6c9 17.6 16.8 35.1 20.2 52l-6.6-1a383 383 0 0 0-44.3-61.6c10.7 19.8 24.7 39.6 30 59.4-21.9-2.8-44.4-5.2-67.4-7-.6-25 4.1-51.2 8.2-77.3a48 48 0 0 0 14.5-12.3l25.5 4.2 6.8-41.2-23.6-3.9a48 48 0 0 0-19.7-28.4l4.2-25.6-41.2-6.8-4.4 26.4a48 48 0 0 0-26 20l-24.4-4-6.8 41.2 26.5 4.4a48 48 0 0 0 12 18.7l3.5 11.4-4.6 28a153 153 0 0 0-14.4-21.8c4.9 9.7 9.3 19.4 13.2 29l-5.8 35a1424 1424 0 0 0-83-1c1.3-9.5 6.1-18.9 12.7-28.3a69.4 69.4 0 0 0-18.6 28.4l-4.2.2c.9-10.8 4.6-21.9 8.4-33a149 149 0 0 0-13.8 33.2c-18.3.6-36.5 1.5-54.4 2.7l-8.3-57.8 30-4.3-2.6-17.7-30 4.3-4.3-30-17.6 2.6 4.3 30-30 4.3 2.5 17.6 12-1.7c3.7 14.6 5.9 29 7.1 43.2l-2.2-8.2-16.7-18.4-13-18.8-7.2-15.5-9-5.7-28.5-1.7-6-4.2-11-9-7.2-24.8 2-16.6 14-17.5 12.4-14.9-.3-15.2 8-7.6 1.9-8.7-6-15.8-.2-18 9-13.6 7.3-2.5 9 5 12.2 2 3.6 6-1.7 9.5 20.9-8.7.8-7.9 15.8-9.9 4-13 7.3 1.2 6.4-6.5 9.3 3.4 5.1-6.7 5.7-.6 6.7 7-12.1 18 16.6-12.3-1.7-12.7-9.2-7.7 27.5-2.4 9.9-6.5-42.8 4.4-6.8 10.2-13.5.3-4.5-3.4-1.7-6.7v-20l4.2-3.7.3-6.5 2.4-7c-.9-5 5-12 4-16.7-2 1.8-16.5 18.5-16.5 19.5 0 1.1-13 22.8-13 22.8l-7.3-2.8-11.3-7.6.3-6.5 13.8-17.2 7.6 2-.3-4.2 8.5-5.7s-11.9 2-14.7 2c-2.8 0-.3-9.6-.3-9.6l17.5-9.3 13.5-3 13 3.9 7.6-6.8-12.4 1.7-8.7-7.9-4 3.7-11.8-.3-2 4-8.7 1.4.3-7.6 7-4.8 6.5-9-14.1.5-9.6 5.4-.8 25-13.3 21.2-4.2-3.1-7.6-2.6.3-5.6 2.8-8.2 11.8-11 5.4-8.1-6.5 4.5v-11.8l-4 13.8-12.6 5.9.6-5.7 5.9-16 5.6.3 4.2-4 8.2-.3-4.2-5zm253 250-2.8 17-17.2-2.9a30.2 30.2 0 0 1 20-14.2zm21.4 3.6a30.2 30.2 0 0 1 14.1 19.7l-16.9-2.8zm-45 32 17.3 2.8-2.9 17.2a30.2 30.2 0 0 1-14.4-20zm38.7 6.3 17 2.8a30.2 30.2 0 0 1-19.9 14.4zm-41.4 24.6 3.5 3-.6 3.8-3-6.8zm54.1 7a615.8 615.8 0 0 0-18 75.7l-3.3-.3 11.9-71.7a48 48 0 0 0 9.4-3.7zm-242.3 20.4 3.7 26c-2 10.4-3.3 20.9-3.6 31.4l-2.1.2c-3-18.4-7.2-36.8-14.5-55.2z" transform="matrix(.23007 .00402 -.00402 .23007 68.7 435)"/><path id="path19073" fill="#99f" fill-opacity=".1" stroke-width="1.2" d="m82.2 335.5 52.2-9.7 31.8 9.6 25.6-4.2 11 4.1 79.5-18.9-80.7 22.6-16.3-4.2-24.4 3-30.1-8.7-50.5 11.7z"/></g><path id="path24" fill="none" stroke="#001b21" stroke-linejoin="round" stroke-opacity="1" stroke-width="4" d="M125.2 10.3c7 7.7 21.2 35-5.5 37.6-.1-13.2 1.8-26 5.5-37.6zm37-33c-10 .7-15.3 11-14.5 17.5.1 6.3 3.6 11.5 8.4 13.6l-3.8.8c-.1 20-.2 39.9-1.9 58.9-6-4-12.7-6.7-19.8-8 39.5-21.8 1.1-65-11.3-74l1.5-5.4a135 135 0 0 0-48.5 9.2c-2 10.3-3.8 18.2-4.5 27.9l-7.5 1.1c-.8 5.5-1 11-.8 16.5l7.6-1c-.2 23.7 3.4 45.8 10 66.5l22.5-12c-9.3-17.6-14.5-37-15.2-56.8 6-.7 11.3-1.1 16-1.4.3-5.6.9-11.8 1.7-17.3-6 .6-12 1.7-17.7 2.4.1-4 .4-8.6.8-12.6a85 85 0 0 1 27.3-5c-4.6 16.2-6.9 33-6.7 49.8h-6.4l1.8 16.5 5.6 1.4c.5 6.2 1.2 12.2 2 18.2l15-2.6a125 125 0 0 1-2.5-11.5 32 32 0 0 1 21.1 20.4l5.6-2.8c-.5 3-1 6-1.7 9l25.7-8.3c-.5-9.1-.6-18.2-.5-27.3 4.3 11 10.7 21 18.8 29.7 23.5-27.7 28.8-67.7 26-112.4l-21.8 10.3a137 137 0 0 1-4.4 77.2 94.5 94.5 0 0 1-8.5-54.2l-8.2 2.4.5-9.7-2.8.6a18 18 0 0 0 5-13c-.4-10.6-7.7-14.9-13.9-14.6z"/><circle id="circle20" cx="164.8" cy="-8.2" r=".8" fill="none"/><circle id="circle14" cx="227.4" cy="-17.6" r="3.4" fill="none" stroke="#001b21" stroke-opacity="1" stroke-width="2.7"/><g id="g18" style="line-height:1.25" transform="translate(7.7 .7) scale(1.03558)"><path id="path16" d="M212-18c.4 0 .4-.2.4-.4s-.2-.3-.4-.3h-.3v.7zm-.3.5v1h-.7v-2.8h1.1c.5 0 1 .2 1 .8 0 .5-.2.7-.5.8.3 0 .4.3.5.5l.4.8h-.8l-.3-.7c-.2-.3-.3-.4-.5-.4z" aria-label="R" font-family="sans-serif" font-size="99.3" font-weight="700" letter-spacing="0" style="-inkscape-font-specification:'sans-serif Bold'" word-spacing="0"/></g><g id="g14042" transform="rotate(1 5470.4 3539.1) scale(.43285)"><g id="g13926" stroke-dasharray="none" stroke-miterlimit="4" stroke-opacity="1" transform="matrix(.7877 0 0 .7877 -858.1 -8.5)"><path id="path13918" fill="#b3b3c8" fill-opacity="1" stroke="#7b7ba0" stroke-width="3.2" d="m1492.4 413.8-22-7.3 22-7.3h69.2v14.6z"/><path id="path13920" fill="#a05a2c" fill-opacity="1" stroke="#803300" stroke-width="3.2" d="M1607.2 400.3a39.7 8.6 0 0 0-26.4-2.2 39.7 8.6 0 0 0-19.2 1v15.1a39.7 8.6 0 0 0 19.2 1.1 39.7 8.6 0 0 0 26.4-2.2z"/><path id="path13922" fill="#fc0" fill-opacity="1" stroke="#c87137" stroke-width="3.2" d="M1567.9 388.2a8.6 8.6 0 0 0-8.7-8.6 8.6 8.6 0 0 0-8.6 8.6 8.6 8.6 0 0 0 5.4 8V417a8.6 8.6 0 0 0-5.4 8 8.6 8.6 0 0 0 8.6 8.7 8.6 8.6 0 0 0 8.7-8.7 8.6 8.6 0 0 0-5.2-7.9v-21a8.6 8.6 0 0 0 5.2-8z"/><path id="path13924" fill="#a05a2c" fill-opacity="1" stroke="#803300" stroke-width="3.2" d="M1615.1 406.7a9.9 9.9 0 0 0-9.5-9.9v19.8a9.9 9.9 0 0 0 9.5-9.9z"/><path id="path15228" fill="#000" fill-opacity=".2" stroke="none" stroke-linecap="round" stroke-linejoin="round" stroke-width="1.7" d="M1607.2 414.8c3.3-1.2 6-3.1 6.3-8.4-1.9 1-3 3.7-6.3 4.4z"/><path id="path15230" fill="#000" fill-opacity=".2" stroke="none" stroke-linecap="round" stroke-linejoin="round" stroke-width="1.7" d="M1564.3 409.5c18.1.6 28.7-3 39.7-6.3v8.9c-13.5 2-26.7 2-39.8.9z"/><path id="path15232" fill="#000" fill-opacity=".2" stroke="none" stroke-linecap="round" stroke-linejoin="round" stroke-width="1.7" d="M1565.4 384.7c1.4 2.7 1.8 8-4.3 10.4V413c-.8-8-.9-17.4-3.4-21.1 4.8-1.1 6.9-3.4 7.7-7.2z"/><path id="path15234" fill="#000" fill-opacity=".2" stroke="none" stroke-linecap="round" stroke-linejoin="round" stroke-width="5.8" d="M3355 2632.4a21 21 0 0 1 2 8.7 21 21 0 0 1-21 21 21 21 0 0 1-12.2-4 21 21 0 0 0 19 12.3 21 21 0 0 0 21-21 21 21 0 0 0-8.8-17z" transform="matrix(.3359 0 0 .3359 436.4 -464.9)"/><path id="path15239" fill="#000" fill-opacity=".2" stroke="none" stroke-linecap="round" stroke-linejoin="round" stroke-width="1.7" d="m1554.4 399.1-5.4 16.3h5.4z"/><ellipse id="path15241" cx="1277.9" cy="970.1" fill="#fff" fill-opacity="1" stroke="none" stroke-linecap="round" stroke-linejoin="round" stroke-width="1.7" rx="4" ry="2.1" transform="rotate(-23.3)"/><ellipse id="ellipse15243" cx="1263.1" cy="1004.2" fill="#fff" fill-opacity="1" stroke="none" stroke-linecap="round" stroke-linejoin="round" stroke-width="1.7" rx="4" ry="2.1" transform="rotate(-23.3)"/></g><g id="g13932" fill-opacity="1" stroke="none" stroke-dasharray="none" stroke-miterlimit="4" stroke-opacity="1" transform="matrix(.7599 0 0 .7599 -1096.4 1.1)"><path id="path13928" fill="#d94267" stroke-width="2.2" d="M5296.1 618.5a52.4 49 0 0 0-49.4 32.7 49 52.4 87.2 0 0-50.9-30.3 49 52.4 87.2 0 0-44.3 27 79.9 85.4 87.2 0 0-37-6 79.9 85.4 87.2 0 0-80.1 66.3 60.7 65 87.2 0 0-1.9 0 60.7 65 87.2 0 0-61.9 63.9 60.7 65 87.2 0 0 7 24.5 60.7 65 87.2 0 0-13.3 39.6 60.7 65 87.2 0 0 67.9 57.5 60.7 65 87.2 0 0 41.7-17l.7 14.3 177.8-8.7h178V868a65 60.7 0 0 0 42.5 15 65 60.7 0 0 0 65-60.8 65 60.7 0 0 0-15.2-39 65 60.7 0 0 0 5.7-24.7 65 60.7 0 0 0-64.9-60.8 65 60.7 0 0 0-1.9.1 85.4 79.9 0 0 0-83.2-62.3 85.4 79.9 0 0 0-36.7 7.8 52.4 49 0 0 0-45.6-24.8z" transform="matrix(.27426 0 0 .27426 382.5 126.4)"/><path id="path13930" fill="#961e3b" fill-rule="nonzero" stroke-dashoffset="0" stroke-linecap="butt" stroke-linejoin="miter" stroke-width="14.5" d="M5299.3 612.4h-1.4c-21.7 0-41 11.1-51.4 27.8a60.6 60.6 0 0 0-52.7-25.2h-1.5c-14.6.5-36.5 11-45.4 26a97.4 97.4 0 0 0-34.5-5c-41 2-75.5 29.3-85.3 66.8-37.8 3.5-67.2 34.3-65.4 70.9.4 8 2.7 15.9 6 23.3-8.5 12-13 26.3-12.3 40.8 1.9 37.7 36 66.3 75.4 64.4a75.5 75.5 0 0 0 34.8-10.5l.4 8.2 186.6-9.1h186.8v-8.3a75.5 75.5 0 0 0 35.3 8.9c39.5 0 72.1-30.3 72.1-68 0-14.6-5.2-28.6-14.3-40.2 3-7.5 5-15.5 5-23.6 0-36.6-31-66-68.9-67.6a91.8 91.8 0 0 0-88.4-62.6 97.4 97.4 0 0 0-34.3 6.7c-9.5-14.5-32-24-46.6-23.7zm-1.4 14.5c15 0 29 7 37.2 18.2-32.4 28.2 14.5 81.6 22.3 81.3-10.4-24-30.5-58.6-11.7-75 11.5-4.5 24-7.4 34.5-7.5 35.7 0 66.4 22.5 75.4 54-.6 29.1-16.6 29-43.4 35.1 2.8 11.3 51.4 17 54.7-26.8 31.4.8 56 24.6 56 53.4 0 5.4-.8 10.8-2.6 16-52-21.5-58.6 23.2-54.2 27.2 17.5-15.3 23.8-35.3 53-13.5a51.1 51.1 0 0 1 13.3 34.1c0 13.7-5.6 26.3-14.8 35.8-6.2-45.2-58.2-31.6-56.8-24 27.5 4 43.5 2.7 46.1 32.6-9.2 5.7-20.2 9-32.2 9-23.6-1.8-33.1-9.2-49.8-22.8v22.3h-30.1c-5.9-18.3-13.1-31-21.4-39.8 6.6-15.6 11.1-29.7 14.1-42.6 39.8 16.8 58.1-16.8 54.1-27.3-23 10-15.7 21.8-51.7 14.9 6.6-40.3-2.5-68.8-10.2-98.4-.3 17 .2 34.6-.1 51.7-56.1-3.1-46.9 42.8-35.6 51.5 5.8-28.1 10-40.4 35.2-39.9-1.3 30.3-6.1 58.1-23.1 77.2-17-8.2-40.5-22.6-55-8.3 42.5 12.5 72.1 23.1 68.7 61h-69.7c-3.7-20.9 5-27 33.7-37-13.8-.1-49.2-6.8-45.8 37h-23.7c-2-28.8-5-55.8-7.7-82.8V772c25.1-37 29.3 10.3 45.2 17.5 1.6-9.4-6.3-63.5-44.4-36.9.2-22.8.5-26.9-.8-51.5 25.4 23.1 58-20.2 53-29.6-19.5 13-44.5 33.6-54 8.3a53.3 53.3 0 0 0-1-22.6 44.7 44.7 0 0 1 43.3-30.4zm-101 2.5a44.5 44.5 0 0 1 42.5 28.3c-.8 3.5-1.2 7.2-1.2 11 0 2.7.5 7 1.2 11.6-8.4 25.8-36.2 37.3-56.2 25.3-4 11.2 35.2 30.4 56.1-4-1 24.4-.9 48.6 3.6 72.3-69.9-13.1-31.2 31.9-23.5 39-.2-10-15-43.1 24.4-19.1-.5 11.8-8.2 27.5-8.8 39.4-.8 15.5 5.5 27.4 5.2 43.7l-23.7 1.1c1.3-43.9-33.8-35.5-47.5-34.7 29.1 8.6 38.1 14.3 35.4 35.3l-69.6 3.4c-5.3-37.7 23.8-49.7 65.6-64.3-18.7 1.8-45.6 11.3-55.5 3.1-17.2-14-14.7-15.4-17.5-45.6-4.2-23.2 30.7-40.8 51.8-10.8 10.5-10-6.2-46-55.9-23-1.1-17 3-20 1.8-37-13.2 13.2-23.5 44-15 84-13.8 10.8-18 4.8-37 3.3 10 10.3 15.7 27.1 40 9a226 226 0 0 0 16.1 41.7 103.3 103.3 0 0 0-19.3 40.8l-30.1 1.5-1.1-22.2c-16 14.3-25.2 22.2-48.6 25.2-12 .6-23.2-2.2-32.6-7.4 1.1-30 54-24.6 81.2-30 1-7.7-88.4-23.6-92.3 21.9a51.3 51.3 0 0 1-16.6-35 51.1 51.1 0 0 1 11.6-34.8c28.1-23.2 63.8 6 82 20.3 4.3-4.1-32.9-58-83.8-34-2-5-3.2-10.3-3.5-15.7-1.4-28.9 22-53.8 53.5-56.1 5.4 43.6 57 43 59.2 31.6-27.1-4.7-46.4-11.4-48.4-40.5 7.5-31.9 37-55.8 72.7-57.6 10.4-.4 23.1 2 34.8 5.9 19.6 15.4 14 12.6 4.7 37 7.8 0 39.3-17.3 5.6-44a46.4 46.4 0 0 1 36.3-19.9h2.3z" baseline-shift="baseline" clip-rule="nonzero" color="#000" color-interpolation="sRGB" color-interpolation-filters="linearRGB" color-rendering="auto" direction="ltr" display="inline" dominant-baseline="auto" font-family="sans-serif" font-size="medium" font-stretch="normal" font-style="normal" font-variant="normal" font-weight="400" image-rendering="auto" letter-spacing="normal" opacity="1" overflow="visible" shape-rendering="auto" style="line-height:normal;font-variant-ligatures:normal;font-variant-position:normal;font-variant-caps:normal;font-variant-numeric:normal;font-variant-alternates:normal;font-feature-settings:normal;text-indent:0;text-align:start;text-decoration-line:none;text-decoration-style:solid;text-decoration-color:#000;text-transform:none;text-orientation:mixed;white-space:normal;shape-padding:0;isolation:auto;mix-blend-mode:normal;solid-color:#000;solid-opacity:1" text-anchor="start" text-decoration="none" text-rendering="auto" transform="matrix(.27426 0 0 .27426 382.5 126.4)" vector-effect="none" visibility="visible" word-spacing="normal" writing-mode="lr-tb"/></g><path id="path15290" fill="#000" fill-opacity=".2" stroke="none" stroke-dasharray="none" stroke-miterlimit="4" stroke-opacity="1" stroke-width="1.7" d="M3070.5 2270.3c-17.5 0-33 10.3-38.9 25.8a41.2 41.2 0 0 0-40.1-23.9 41.9 41.9 0 0 0-34.9 21.3 71.2 71.2 0 0 0-29.2-4.7 66.4 66.4 0 0 0-63 52.2h-1.5c-28.2 1.4-50 23.9-48.8 50.3.4 6.7 2.2 13.3 5.5 19.3a46 46 0 0 0-10.4 31.2c1.2 26.4 25.2 46.7 53.4 45.3 12.3-.6 24-5.4 32.9-13.4l.5 11.3 140-6.9h140.3V2467a53.3 53.3 0 0 0 33.5 11.7c28.2 0 51.1-21.4 51.1-47.8a46 46 0 0 0-11.9-30.7 45.2 45.2 0 0 0-7.6-50.5c-8.4 23-21.6 41.2-56.3 37.4-31.7 4.7-70.4 35.5-94.7 12.1-19.7-21.7-25.6-44-31.7-66.4-8-22.2-2.4-42.8 11.8-62.4z" transform="matrix(.26458 0 0 .26458 -514.4 -374.6)"/><path id="path13956" fill="#008b70" fill-opacity="1" stroke="#000" stroke-dasharray="none" stroke-miterlimit="4" stroke-opacity="1" stroke-width="4.2" d="m351.9 268.9-23.3 2.2-.5 20.1-11.8-18.9-90 8.7c-2.1 8-3 16.6-2.6 25.4 3.7 66.2 36.3 104.7 73.8 102.6 37.4-2 65.7-42.2 62-110.1a81 81 0 0 0-7.6-30z"/><g id="g13942" stroke="none" stroke-opacity="1" transform="matrix(1.57424 0 0 1.57424 -1293.6 -1.8)"><path id="path13934" fill="#000" fill-opacity="1" stroke-linecap="butt" stroke-linejoin="miter" stroke-width=".3" d="M1018.2 259.3c.1 1.8-2.4 12 5 16.4v3.1c-2.6.2-3.2 1.4-3.9 2.6-.4 1.6-.5 3.2 1.7 4.5-2.3 1.1-3.3 3.4-2.9 7-.4.4-.5.6-.6 1-.2 1.2-.2 2 0 2.8 0 1.4 1.4 2.2 3.5 2.5 2.6.5 5.1.9 10.2.7 1.2-.1 2.8-.3 4.9-3.4 1-2.3 2.5-4.4 2.5-12.1.2-1 .5-1.8-.2-3.5.5-6.2-1-8.3-2.4-10.3a7.1 7.1 0 0 0-11.5-1.8c-1.9-1.3-1.2-8-1.3-12.4z"/><path id="path13936" fill="#008b70" fill-opacity="1" stroke-linecap="butt" stroke-linejoin="miter" stroke-width=".3" d="M1019.9 266.3c1-.1 2.1 1 2.4 2 1 3 2.5 4.8 8.3 3.1.5.3 1 1.5.6 2.3-11 3-10.5-5-11.3-7.4z"/><path id="path13938" fill="#fff" stroke-dasharray="none" stroke-linecap="butt" stroke-linejoin="miter" stroke-miterlimit="4" stroke-width=".1" d="M1028.9 268.5c-2 .2-2.7 1.3-3.2 2.1 1.6.5 3 .2 4.2-.2-.3-.7-1.3-.6-2.5-.4.2-.2 2.5-1.7 4.8.7 1 1 .8 5 .4 8h1c.8-3 .8-6.9.1-7.9-.9-1.2-2-2.3-4.8-2.3zm7 4.5c-.4 0-.3.4-.3.4.4.9.5 5.7.4 6l.6.1c0-2.4.2-4.8-.8-6.5zm0 6.5zm-11.3-4.3v.9l1.2-.5zm4 3.8c-.5 0-1 .2-1.3.5-.5.7-.3 1.2-.2 1.7.3 1 1.3.9 2.3.7-.1-1.6.1-2 .3-2.6a3 3 0 0 0-1.1-.3zm3.3.9h-1.5c-.3.3-.2.5-.2.7a8 8 0 0 1 3.8.2c.9.3 1.8.5 2.2 1.9-.1.9-.8 1.2-1.8 1-1 0-2-1-2.8-1.8l-.2.5c.6.7 1 1.5 2.3 2 1 .1 2 .4 3-.6.6-1.1.4-2.2-.8-3.2a10 10 0 0 0-4-.7zm-5.6 0c-1.7 0-3.1.4-4.2 1-.9.6-1 1.6-1 2.3.5 1.3 1.7 1 2.7.4-1.8 0-2-.6-1.8-1.3.3-1.5 3.6-1.5 4.3-1.4-.2-.4-.1-.7 0-1zm.4 2.4c-.2 0-1.3.7-1.4.9 2.3 0 4.6.2 6.9 1.6-.7-.8-1.3-1.7-2.3-2.4a3.4 3.4 0 0 1-3.2-.1zm-.1 1.6c-2.4 0-3.9 1.2-4 1.6 3-.3 5.7-.9 9.1 1.4.2-.4.3-.8.2-1.2a9.7 9.7 0 0 0-5.3-1.8zm10.2 1.3s-1.3.1-1.6.4c-.8 2.8.3 8.7-5.6 9.5-2.4.3-7 0-10.2-1.3v.8c2.4.9 4.8 2 10.8 1.2 4-.5 4.7-3.8 5.6-6.6 0 1.8-1 7-5.1 7.5-6.3.8-8.4-.5-11.4-1.3-.1.6-.2 1 0 1.5 3.9 1.3 7.8 1.8 11.5 1 1-.1 6-1.5 6-12.7zm-10.3 1.2c-1 0-2 0-3.2.3-2.8.9-3.5 3.2-3.4 6 1.6.8 3.7 1.8 8.4 1.7 3.3-.2 5-.8 5.3-4.1-1.5-3-4-4-7-4z"/><path id="path13940" fill="#f60" fill-opacity="1" stroke-dasharray="none" stroke-miterlimit="4" stroke-width=".1" d="M1035.4 276c-.2 1.1-.4 2.2-.7 3l.5.4c.4-1 .2-2.4.2-3.4zm-6.6.3h-1c-2.3.1-2.7.9-2.8 1.7v1.3c.4 0 .5-.2 1.5 0 .4-.6.8-1.1 2.2-1.1.5 0 1.3 0 1.7 1.2.8.2 1-.4.8-2-.4-1-1.3-1-2.4-1zm3.2 5.2c.9.7 1.8 1.6 2.3 1.6.6 0 1.5.2.7-.8-1.8-1-2.1-.6-3-.8zm-6.6.2c-1 0-2.8.3-2.7.7-.2.7.6.8 1 .6.5-.5 1.6-.8 2.4-1.2l-.7-.1zm7.5 3.4-.4.6c.3 1-.1 1.4-.4 1.7l1 1 .5-3zm1.1.5-.5 3.6.5.3.6-3.7z"/></g><g id="g13954" stroke="none" stroke-opacity="1" transform="scale(1.27946) rotate(13 1118.3 -4187.3)"><path id="path13944" fill="#000" fill-opacity="1" stroke-linecap="butt" stroke-linejoin="miter" stroke-width=".3" d="M1251.9 406.1c2.9 3 5.2 6.7 5.2 12.7-3 .6-3.6 1.5-4.5 2.4-.7 1.1-1.2 2-1.1 3.8a6 6 0 0 0 1.1 3.2l-1 4.6-.7.3c-.6 1-1 2.2-1 3.3 2.3 4.1 3 8 9 12.5 3.4 2 7.6 2.2 12.2 1.5 2.6-.6 5.1-1.5 7.6-2.8 2.4-1.4 1.8-4.2 1.8-6.7-.3-.5-.6-.7-1-.9-.4-2.6-1.6-5-4.6-6.6.9-.7 2.3-1.3 2.2-3.7-.7-3.1-3.4-3-3.4-3-1.4-.1-2.7 0-4 .4l-.1-2.6c-.3-2.2-1.8-2.4-3.2-2.7-.6-1.1-1.4-2-2.4-2.5.4-6.8-2.2-10.6-4.9-15.3z"/><path id="path13946" fill="#008b70" fill-opacity="1" stroke-linecap="butt" stroke-linejoin="miter" stroke-width=".3" d="M1260.7 411.2c-1.2.6-2 1.5-1.7 4.5.4 4.5.4 5.5 0 11.2l1 .1c0-3 1.4-3.4 2.1-3.8-.2-7.8-.1-7.5-1.4-12z"/><path id="path13948" fill="#fff" stroke-linecap="butt" stroke-linejoin="miter" stroke-width=".3" d="M1257.6 420.8c-1.2.2-2.2.5-3 1.1-1.1 1.1-1.2 2-1.3 2.7 0 1.3.2 2.5 1.8 4.1a9 9 0 0 0 5.3 2.2c-.3-1-.3-1.7-.4-2.2-1.3 0-3-.5-3.7-1-1.6-1.5-1.6-2.5-1.6-3.3 0-1.7 1.7-2.2 2.3-2.3-2.5 2.2-.8 3.8 0 4.3.4-1.7.7-3.4.6-5.6zm14.8 7.7c-1 0-2.3.2-3.7.6l.2.8c.8-.4 1.7-.6 2.7-.7 1 0 2.3.1 2.6.8 0 .6 0 1.2-1.3 1.5-1 .2-1.8.2-2.7 0 .5.4 1 1 2.7.8.8-.1 1.5-.2 2-1.1.5-1 .2-1.8-.7-2.4-.5-.2-1.1-.3-1.8-.3zm-6 .3c-.6 0-1 .3-1.5.7.5.5 1 1 1.2 2.3.4 0 .8 0 1.3-.2s1-.5.9-1.3c0-.8-.5-1.3-1.1-1.5h-.7zm-1.8 1.5c-2 .4-3.6 1-5 1.6-1 .7-1.6 1.4-1.8 2.1 0 .7-.2 1.4.6 2 1 .6 1.4.3 2 .3 1.2-.3 1.9-1 2.5-1.8.4-.7.5-1.2.5-1.6-1.6 2-2.6 2.4-3.5 2.6-1 .2-1.3-.3-1.3-.8 0-.8.7-1.5 1.2-2 2.1-1.3 3.5-1.5 5-1.7 0-.2 0-.5-.2-.7zm3.4 1.7-2.7.5-.6 1.5c1.1-.7 2.5-1.2 4-1.6l-.7-.4zm2.2 1.1c-1.6 0-3.7.5-6 2-.6.5-.8 1-1 1.3.1.7.5.6 1 .3 2-2.4 5.4-2.5 8.5-3.2a9 9 0 0 0-2.5-.4zm-18.4 1.5-.5 1.6c7.8 18.2 22 12.3 27.4 9l.1-1.6c-11 7-17.7 2.9-20.7.6 4.8 3.4 13.5 4.1 20.8-1.3v-1c-6.6 4.9-20.5 7.9-27.1-7.3zm20.3.3c-7.4 0-9.6 6.1-10.6 8.8a17 17 0 0 0 16.3-2.6c-.6-2.5-2-6.1-5.7-6.2z"/><path id="path13950" fill="#f60" stroke-linecap="butt" stroke-linejoin="miter" stroke-width=".3" d="M1266.4 423.5c-1.9-.1-4.9.8-5 2.7.1 1.3.2 2.2.7 3.2.6-.1 1.2-.2 1.9 0 .2-1 1.1-2.2 4.2-1.6.3-2.6-.2-4-1.8-4.3zm-11.8 5.6-.7 3.4c1.8 3 3.8 6.4 7 8.4a9.8 9.8 0 0 1 2.2-3.4c-.4-.4-.6-.9-.8-1.4-2.6 1.6-4.2 1-5.6-.3-1.4-1.9.5-3.7 1.3-4.5-1.6-.6-2.4-1.4-3.4-2.2zm8.3 3c-1 .2-2.1.6-2.8 1.5-.9 1.2-.3 1.2.8.6 1-.6 1.5-1.4 2-2.1zm-9.4 1.3-.4.8c1.2 3.3 4 6.3 7.1 8.6l.4-1c-3.2-1.7-5-4.7-7-8.4z"/><path id="path13952" fill="#f60" fill-opacity="1" stroke-dasharray="none" stroke-miterlimit="4" stroke-width="0" d="M1270.1 430.2c1.3-.5 1.8-.4 2.4-.4 1 .3.9 1 .6 1a8 8 0 0 1-3 0z"/></g><g id="g13962" fill-opacity="1" stroke="none" stroke-dasharray="none" stroke-miterlimit="4" stroke-opacity="1" stroke-width=".1" transform="matrix(.7877 0 0 .7877 -458.1 66.3)"><use xlink:href="#path13958"/><use xlink:href="#path13960"/></g><g id="g13968" fill-opacity="1" stroke="none" stroke-dasharray="none" stroke-miterlimit="4" stroke-opacity="1" stroke-width=".1" transform="matrix(-.7877 0 0 .7877 1058.1 84)"><use xlink:href="#path13958" id="path13964"/><use xlink:href="#path13960" id="path13966"/></g><g id="g13984" fill-opacity="1" stroke="none" stroke-dasharray="none" stroke-miterlimit="4" stroke-opacity="1" transform="matrix(.7877 0 0 .7877 -623.6 190)"><path id="path13970" fill="#003127" stroke-width="12.7" d="M1161.3 163.3c1.3 19.4-7.2 32-21 32-14 0-22.7-14.2-25.2-31.2-2.7-18 5.5-32.8 25.1-31.2 13.8 1.2 19.9 13.3 21 30.4z"/><circle id="circle13972" cx="1141" cy="174.4" r="15.1" fill="#ffe680" stroke-width="7"/><path id="path13974" fill="#005a49" stroke-width="12" d="M1130.3 136.8c-14 1.9-19.7 14.2-17.5 28.8 2.4 15.8 10.8 28.9 24.2 28.9 6.3 0 11.4-2.6 15-7.2a17.7 17.7 0 0 1-11.8 4.2c-12.8 0-21-12.7-23.2-27.8-2-12.7 2.4-23.7 13.3-27z"/><path id="path13976" fill="#000" stroke-width="5.3" d="M1146.8 124.1c-17-1-33 5.9-51 19.6 8.1-12.5 27.7-29 46.8-24.3z"/><circle id="circle13978" cx="1140.1" cy="173.8" r="14.1" fill="#fff" stroke-width="6.5"/><circle id="circle13980" cx="1143.8" cy="177.8" r="6.2" fill="#004336" stroke-width="5.3"/><circle id="circle13982" cx="1140.4" cy="175.1" r="4.2" fill="#fff" stroke-width="1.9"/></g><g id="g14002" fill-opacity="1" stroke-dasharray="none" stroke-miterlimit="4" stroke-opacity="1" transform="matrix(-.7877 0 0 .7877 1210.5 187)"><path id="path13986" fill="#003127" stroke="none" stroke-width="12.7" d="M1161.3 163.3c1.3 19.4-7.2 32-21 32-14 0-22.7-14.2-25.2-31.2-2.7-18 5.5-32.8 25.1-31.2 13.8 1.2 19.9 13.3 21 30.4z"/><path id="path13988" fill="#6a6a92" stroke="#50506f" stroke-width="3.2" d="m1132 151 22.1 7.3-22 7.4h-17.5c-.4-5-1-9.8 1.1-14.6z"/><circle id="circle13990" cx="1141" cy="174.4" r="15.1" fill="#ffe680" stroke="none" stroke-width="7"/><path id="path13992" fill="#005a49" stroke="none" stroke-width="12" d="M1130.3 136.8c-14 1.9-19.7 14.2-17.5 28.8 2.4 15.8 10.8 28.9 24.2 28.9 6.3 0 11.4-2.6 15-7.2a17.7 17.7 0 0 1-11.8 4.2c-12.8 0-21-12.7-23.2-27.8-2-12.7 2.4-23.7 13.3-27z"/><path id="path13994" fill="#000" stroke="none" stroke-width="5.3" d="M1146.8 124.1c-17-1-33 5.9-51 19.6 8.1-12.5 27.7-29 46.8-24.3z"/><circle id="circle13996" cx="1140.1" cy="173.8" r="14.1" fill="#fff" stroke="none" stroke-width="6.5"/><circle id="circle13998" cx="1143.8" cy="177.8" r="6.2" fill="#004336" stroke="none" stroke-width="5.3"/><circle id="circle14000" cx="1147.3" cy="174.8" r="4.2" fill="#fff" stroke="none" stroke-width="1.9"/></g><g id="g14012" fill-opacity="1" stroke="none" stroke-dasharray="none" stroke-miterlimit="4" stroke-opacity="1" transform="scale(1.55963) rotate(-12.2 748.9 4817.4)"><path id="path14004" fill="#003127" stroke-width=".1" d="M1181.7 211.8c2.2 1 2.6 2.5 2.4 4.2l-1.4 12.3c-.4 1.9-1.1 1.5-1.8 1.3-6-3-11.5-3.7-17-4.4-3-.3-3.3-1.7-3.1-3.4 1-5.2 4.8-8.5 6.6-9.6 5.7-3.2 10.7-1.6 14.3-.4z"/><path id="path14006" fill="#fea" stroke-width=".1" d="M1163.8 224c.6-1 1.5-2 2.8-3.1 1.1-.3 2.2-.3 3.4 0 .3.6.4 1.4.3 2.2l.5.1c0-1 .7-1.9 1.3-2 2.9.5 5.6 1.3 8.3 2.5.4.2.6.5.8 1 .3 1.4.1 2.5 0 3.7-6.2-3.1-11.8-3.7-17.4-4.3z"/><path id="path14008" fill="#782121" stroke-width=".1" d="M1171 220.4c.5-.5 1.1-.6 1.7-.6 2.7.7 5 1.4 7 2.2-1.3-2.9-6.5-9-13.7-7.1-1.7.4-4.8 6.6-3 8.4 2-2 3.4-5.8 8-2.9z"/><path id="path14010" fill="#a58400" stroke-width="0" d="M1189.7-107h2.6l.3 4.4-3-.1z" transform="matrix(.96218 .27242 -.29643 .95505 0 0)"/></g><g id="g14018" fill-opacity="1" stroke="none" stroke-dasharray="none" stroke-miterlimit="4" stroke-opacity="1" transform="matrix(.6046 0 0 .6046 -402.8 235.7)"><ellipse id="ellipse14014" cx="1224.6" cy="245.7" fill="#008b70" stroke-width=".3" rx="8.2" ry="8.9"/><use xlink:href="#path14016" stroke-width="0"/></g><g id="g14024" fill-opacity="1" stroke="none" stroke-dasharray="none" stroke-miterlimit="4" stroke-opacity="1" transform="matrix(-.56537 0 0 .56537 928.4 215.3)"><ellipse id="ellipse14020" cx="1224.6" cy="245.7" fill="#008b70" stroke-width=".3" rx="8.2" ry="8.9"/><use xlink:href="#path14016" id="path14022" stroke-width="0"/></g><path id="path14026" fill="#000" fill-opacity="1" stroke="none" stroke-dasharray="none" stroke-miterlimit="4" stroke-opacity="1" stroke-width="0" d="M350.3 317.9a19 19 0 0 0-3.3 8.5c0 3.3.6 6.3 3.8 7.5 2.4.9 4.6 1 6.5-1.5 1.2-2.6 1.2-4.1 1.3-6.1-.1-4-1.2-6.7-2.2-9.5.1 3.7.3 7.5-.3 10.5-.7 2.3-1.3 3.7-2.4 4-1.7.6-4-.8-4.1-3.4-.5-3.6.4-6.6.7-10z"/><path id="path14028" fill="#000" fill-opacity="1" stroke="none" stroke-dasharray="none" stroke-miterlimit="4" stroke-opacity="1" stroke-width="3.1" d="M267 383.5c-.5 1.2.3 3 1.9 4.8-1 1.4-1.8 2.9-1.6 3.8 1-1 1.5-1.4 2.6-2.7a31 31 0 0 0 2 1.8c-.9 1.4-1.2 3-.9 3.9.9-1.4 1.4-1.8 2.2-2.7l3 2.2c-.7 1.1-1.1 2.2-1 3a13 13 0 0 1 2-2.4l3 1.7c-.7 1.3-1 2.5-.6 3.1 1-1.3.8-1.7 1.5-2.6 3.2 1.5 6.1 2.4 8 1.9-2.6-1.3-4.6-2.3-6.6-3.5l3.7-3.2c-1.6 0-3.3 1.2-4.7 2.6-.9-.5-1.8-1-2.7-1.7l3-3.4c-.8-.5-2.6.8-4.1 2.6l-2.7-2.1a84 84 0 0 0 2.6-3c-1.7 0-3.1.7-4.2 1.7l-2-1.8 2.5-3c-.7-.3-2.2.6-3.6 2l-3.3-3z"/><g id="g14040" fill="#00aad4" transform="rotate(-44.3 758.3 1808.2) scale(.8389)"><path id="path14030" fill="navy" fill-opacity="1" stroke="#000051" stroke-dasharray="none" stroke-miterlimit="4" stroke-opacity="1" stroke-width="3.2" d="M1741.5 396c-2-8-37.6 5.3-56.2 13.6-4.2 1.8-12.7 3.8-16.7 11.3-.3 3-.9 6.1 2.3 9 3.3 3.2 6.6 3.1 9.9 2.3 7.7-4 15.7-9.1 23.1-13l4-2c26.8 20.5 52.5 27.4 75.4-7.9z"/><path id="path14032" fill="navy" fill-opacity="1" stroke="#000051" stroke-dasharray="none" stroke-miterlimit="4" stroke-opacity="1" stroke-width="3.2" d="M1772.1 348a6.3 4 0 0 0-6.3 4 6.3 4 0 0 0 1.3 2.4 85 85 0 0 0-34.1 7.3c-18.8 9.8-18.7 23.9-23.1 37 9.2-5.9 25.6-1.5 43.2 4.7a391.6 391.6 0 0 0 59.9 17c5.2 1 8.5-.6 9-5.7.2-12-3-22-6-32.1-8.9-18.9-21-26.1-34.8-27.8l-4.3-.2a6.3 4 0 0 0 1.5-2.6 6.3 4 0 0 0-6.3-4z"/><path id="path14034" fill="#000051" fill-opacity="1" stroke="none" stroke-dasharray="none" stroke-miterlimit="4" stroke-opacity="1" stroke-width=".3" d="M1708.4 415.4c-2.2-1.5-10.8-5.3-11-4.3 3 2.2 6.8 4.3 8.5 7.1z"/><path id="path14036" fill="none" fill-opacity="1" stroke="#000051" stroke-dasharray="none" stroke-linecap="round" stroke-miterlimit="4" stroke-opacity="1" stroke-width="2.1" d="M1718 416c21.6 14.7 38.1 16.3 55.8-4.2"/><path id="path14038" fill="none" fill-opacity="1" stroke="#000051" stroke-dasharray="none" stroke-linecap="round" stroke-miterlimit="4" stroke-opacity="1" stroke-width="2.1" d="M1777 354.6c16 9.9 30.4 21 22.2 49.7"/><path id="path4526" fill="#fff" fill-opacity=".2" stroke="none" stroke-linejoin="round" stroke-width=".8" d="M1761.8 377.3a.9.9 0 0 0-1.1.5.9.9 0 0 0 .5 1.1.9.9 0 0 0 1.1-.5.9.9 0 0 0-.5-1.1zm-11.5-4v-.1c-2-.5-3.5 1-3.7 2.2-.4 1.1-.1 2.3.6 3l-.7-.2c-1.3 3.6-2.5 7.1-4 10.4-.8-1-1.9-2-3-2.6 8.3-1.5 4.2-11.5 2.5-14l.6-.8c-3-1-6-1.5-9.2-1.3-1 1.7-1.8 3-2.5 4.6l-1.4-.2c-.5.9-.9 1.9-1.2 2.9l1.5.2a39.8 39.8 0 0 0-2.4 12.5l4.8-.7a25 25 0 0 1 .8-11l3 .7c.3-1 .8-2 1.3-3l-3.3-.7c.2-.7.6-1.5 1-2.2 1.7 0 3.4.3 5 .8a32.8 32.8 0 0 0-4.2 8.5l-1.1-.4-.7 3 .9.6-.8 3.4 2.8.4.3-2.2a6 6 0 0 1 2.5 5l1.2-.2-.9 1.5 5 .1 1.7-4.9c0 2.3.6 4.5 1.5 6.5 5.9-3.5 9.3-10.3 11.6-18.4l-4.5.5c-.6 5-2.5 9.6-5.6 13.4-.4-3.4.2-7 1.8-10.1l-1.6-.1.7-1.7h-.5c.8-.5 1.4-1.2 1.7-2 .5-2-.4-3.1-1.5-3.5zm-8.7 3.5c.8 1.8 1.6 7.5-3.3 6.3.8-2.3 2-4.5 3.3-6.3z"/></g><path id="path15274" fill="#000" fill-opacity=".2" stroke="none" stroke-dasharray="none" stroke-miterlimit="4" stroke-opacity="1" stroke-width=".3" d="M3300.4 2523.6c-37.1 272.4-172.8 370.1-339.7 412.8a195.4 195.4 0 0 0 107.6 25.4c58.4-3.2 110.8-30.9 151.3-80.3a9 11.8 29.5 0 0 12-6.5 9 11.8 29.5 0 0 1.2-11 321 321 0 0 0 26-44.8 169.4 169.4 0 0 0 51.4 18.9 46 46 0 0 0-5.3 25.8c2.3 17.2 16 34.4 37.5 32 15.7-3.4 15-15.1 18.2-27.4 18.6 4.5 42 4.3 58.2-7 9.6.1 7.4 16.9 8.5 16.2-1 2.5 21 4.2 23.2.7 8.9-4.8 13.9-18.6 10.8-30.6 12.4 8.9 20 8.2 26.4 1.4 12.7-5.7 2.9-22.8.3-31.7-13-19.2-28.4-30-47-29.3-1.4-4-3-7.5-4.8-10.6a56.4 31 0 0 1-33.8 6.2 56.4 31 0 0 1-47.8-14.6c-3.2 5.1-4.7 10.6-6.1 15.5-26 5-51 2.2-73.7-4.4 22.2-63.4 32.8-142.2 27.6-234.6-.4-7.5-1-14.8-2-22.1zm-464.5 387a17.8 28.2 21.4 0 0-22 20.5 17.8 28.2 21.4 0 0 6.3 32.7 17.8 28.2 21.4 0 0 26.9-19.7 17.8 28.2 21.4 0 0-6.4-32.8 17.8 28.2 21.4 0 0-4.8-.8z" transform="matrix(.26458 0 0 .26458 -514.4 -374.6)"/></g><g id="g50" transform="rotate(1 -4129.7 3110.9) scale(.26301)"><path id="path26" fill="#381400" stroke="#28170b" stroke-linecap="round" stroke-linejoin="round" stroke-width="4" d="M32.2-46.3c3-.5 32.2-10.8 32.2-10.8A163 163 0 0 0 68-14.5S52.2-8.8 51.7-9.8c1.3-2.3-18.4-37.3-19.5-36.5z"/><ellipse id="ellipse28" cx="35.3" cy="-36.4" fill="#401800" stroke="#28170b" stroke-linecap="round" stroke-linejoin="round" stroke-width="4" rx="17.4" ry="9.6" transform="matrix(.919 -.395 .29 .957 26.4 -3.6)" vector-effect="none"/><g id="g36"><path id="path30" fill="#fdb002" d="M37 122.4c14.3-8.3 32.6-13.1 48.1-5.1a40.3 40.3 0 0 0 22.5 6.3 54.6 54.6 0 0 0 39-14.4 43.8 43.8 0 0 0 14.1-25C165 60 161.8 32 148.8 11a101.1 101.1 0 0 0-25-27.2C110.7-26.9 87-33 66.4-31.8c-15.3.7-31 2.6-45 8.8C-1.7-12.6-24 4-34.5 28a89.5 89.5 0 0 0-7.6 38.4c.5 18.8 6.5 36 22.2 49.9a53 53 0 0 0 45.2 9.7c4-1 8-2.1 11.8-3.6z"/><path id="path32" fill="maroon" fill-opacity=".3" d="m72.2-32-6 .2c-10.7.6-21.8 1.7-32.2 4.5C35-19.4 43.8-13 55.3-12 49.5 32.6 74 68.3 91.1 106 79.3 65 51.6 18.9 64.3-12.3c9-1.6 16-6.7 17.8-13 37 31.8 55.8 76.4 34.6 148.8 11-1.5 21.6-7.1 29.8-14.1a43.8 43.8 0 0 0 14.1-25c4.3-24.4 1.1-52.3-11.9-73.3a100.7 100.7 0 0 0-25-27.2C111.7-26 91.3-32 72-32ZM7.5 1.8C5.2 20.7-2.1 35.9.7 58.6c4.2 17.6 18.1 35 27.2 52.5A199.1 199.1 0 0 1 7.5 1.7Z"/><path id="path34" fill="#fff" fill-opacity=".2" d="M5.9-15a96 96 0 0 0-40.6 43 89.2 89.2 0 0 0-7.6 38.4C-42 83.4-37 99-24.6 112-29.6 80.6-13.3 17 6-15z"/></g><path id="path38" fill="none" stroke="#7a0700" stroke-width="4" d="M37 122.4c14.3-8.3 32.6-13.1 48.1-5.1a40.3 40.3 0 0 0 22.5 6.3 54.6 54.6 0 0 0 39-14.4 43.8 43.8 0 0 0 14.1-25C165 60 161.8 32 148.8 11a101.1 101.1 0 0 0-25-27.2C110.7-26.9 87-33 66.4-31.8c-15.3.7-31 2.6-45 8.8C-1.7-12.6-24 4-34.5 28a89.5 89.5 0 0 0-7.6 38.4c.5 18.8 6.5 36 22.2 49.9a53 53 0 0 0 45.2 9.7c4-1 8-2.1 11.8-3.6z"/><path id="path40" fill="#fdb002" stroke="#7a0700" stroke-linecap="round" stroke-width="4" d="M-7.9 107.5c43.3 29.9 91 34.7 146.4-3"/><path id="path42" stroke="#7a0700" stroke-linecap="round" stroke-linejoin="round" stroke-width="4" d="M-4.7 47c1.5-2.8 49.7-1.7 53.7-.7C55 47.8 28-1 23.6 4.6a90 90 0 0 0-23.5 39"/><path id="path44" stroke="#7a0700" stroke-linecap="round" stroke-linejoin="round" stroke-width="4" d="M53.6 66c-2.1-2.9 12-30.4 14.4-30.4a55.8 55.8 0 0 1 20.3 23.8c-13.2.2-24.4 2.9-34.7 6.6Z"/><path id="path46" stroke="#7a0700" stroke-linecap="round" stroke-linejoin="round" stroke-width="4" d="M134.5 27.3c-8-11-18-23.6-34.4-28.3-7.2 15.1-12 30.4-10 46.2 16.6-10.6 33.2-15 49.8-18.7"/><path id="path48" stroke="#7a0700" stroke-linecap="round" stroke-linejoin="round" stroke-width="4" d="m7.1 63.1 6.7 6-4.5 12.2C8.2 83.9 29 95.8 30.1 93.7c.5-.4 7.2-15.3 7.2-15.3l12.8 1.4-.6 14.7c13 1.7 26.5.4 37.9-5.8l-4.8-15.2c5.8-1 10.2-2.8 13.8-5.5 1.1 4.7 3 8.5 5.4 11.7a66.4 66.4 0 0 0 21-15.6c-3.4-6-5.8-8.6-10-12.7l10.4-8 10.2 2.8c3.7 12.4 7 29.6-20.5 55.1L108.6 90a52.2 52.2 0 0 0-20 10.5l4 11.4a97.5 97.5 0 0 1-43.7 6l1.3-13.9a49.2 49.2 0 0 0-22.7-1.6l-2.3 8.4a49.5 49.5 0 0 1-31-35c3.4-5 7.2-9.8 13-12.6Z"/></g><g id="g19059" stroke="none" stroke-dasharray="none" stroke-linecap="round" stroke-linejoin="round" stroke-miterlimit="4" stroke-opacity="1" clip-path="url(#clipPath18993)" transform="translate(-28 -643)"><path id="rect18999" fill="url(#linearGradient19061)" fill-opacity="1" stroke-width="1.1" d="M96.7 285.3h174.6v130H96.7z" transform="rotate(1)"/><path id="path19001" fill="#99f" fill-opacity=".2" stroke-width="1.2" d="m83 322.5 50.8-14.2s31.1 5 33.4 5.2c2.3.3 23-3.6 23-3.6l28 7.4 23.4-10.7 34.1-10-.3 2.8-32.9 13-29.8 13.7-27.5-11.4-31 3.2-25-4.8L82 336z"/><path id="path19003" fill="#fff" fill-opacity="1" stroke-width="3.9" d="M713.5 1461a54.5 54.5 0 0 0-50.6 34.4 35.6 57.6 73.2 0 1 .3 0 35.6 57.6 73.2 0 1 65.4 17.4 35.6 57.6 73.2 0 1-42.3 49.9 54.5 54.5 0 0 0 27.2 7.3 54.5 54.5 0 0 0 54.5-54.5 54.5 54.5 0 0 0-54.5-54.5Z" transform="scale(.2301) rotate(1 10008.2 9336)"/><path id="path19005" fill="#005" fill-opacity=".2" stroke-width="3.9" d="M720.6 1462a54.5 54.5 0 0 0-21.7 4.6 7.3 11.2 90 0 1 9.6 7.2 7.3 11.2 90 0 1-11.3 7.3 7.3 11.2 90 0 1-11.1-6.6 54.5 54.5 0 0 0-16 22 35.6 57.6 73.2 0 1 .3-.1 35.6 57.6 73.2 0 1 60.7 9.1 14.4 9.3 65.7 0 1 3.7-4.2 14.4 9.3 65.7 0 1 2.7-.5 14.4 9.3 65.7 0 1 11.6 9.8 14.4 9.3 65.7 0 1-2.5 16.9 14.4 9.3 65.7 0 1-10.2-3.2 35.6 57.6 73.2 0 1-43 39.4 54.5 54.5 0 0 0 27.2 7.4 54.5 54.5 0 0 0 54.5-54.5 54.5 54.5 0 0 0-30.7-49 11.2 7.3 25.5 0 1 2.2 7.9 11.2 7.3 25.5 0 1-13.3 1.7 11.2 7.3 25.5 0 1-7-11.4 11.2 7.3 25.5 0 1 3.7-3 54.5 54.5 0 0 0-9.4-.7zm19.5 82.3a9.3 14.4 39.9 0 1 4.2 1.5 9.3 14.4 39.9 0 1-2 17 9.3 14.4 39.9 0 1-16.4 5 9.3 14.4 39.9 0 1 2.1-17 9.3 14.4 39.9 0 1 12.1-6.5z" transform="scale(.2301) rotate(1 10008.2 9336)"/><path id="path19007" fill="#654e4e" fill-opacity=".2" stroke-width="1.2" d="m199 299.2 5.3 4.8v3.7l2.6 1.6-1.4 7-3.6 5-5.8 1.6-2.4 2.2 9.5-1.2 6.8-6.4.7-10.8-4.5-5.7z"/><use xlink:href="#path18901" id="path19009" fill-opacity="1" stroke-width="1.2"/><use xlink:href="#path18917" id="path19011" fill-opacity=".2" stroke-width="5" transform="rotate(1 -7976 7881.4) scale(.1272)"/><use xlink:href="#path18917" id="path19013" fill-opacity=".2" stroke-width="5" transform="rotate(15.3 -396.1 975.4) scale(.1272)"/><use xlink:href="#path18917" id="path19015" fill-opacity=".2" stroke-width="5" transform="rotate(41 -92.3 385.4) scale(.1272)"/><use xlink:href="#path18917" id="path19017" fill-opacity=".2" stroke-width="5" transform="rotate(17.1 -361 455.5) scale(.1272)"/><use xlink:href="#path18917" id="path19019" fill-opacity=".1" stroke-width="5" transform="rotate(17.1 -708.2 599.8) scale(.0734)"/><use xlink:href="#path18917" id="path19021" fill-opacity=".1" stroke-width="5" transform="rotate(17.1 -661.7 819) scale(.0734)"/><use xlink:href="#path18917" id="path19023" fill-opacity=".1" stroke-width="5" transform="rotate(17.1 -720.2 471.7) scale(.0734)"/><circle id="circle19025" cx="238.7" cy="317.1" r=".6" fill="#fff" fill-opacity=".3" stroke-width=".3" transform="rotate(1)"/><circle id="circle19027" cx="244.9" cy="306" r=".6" fill="#fff" fill-opacity=".3" stroke-width=".3" transform="rotate(1)"/><circle id="circle19029" cx="191" cy="305.5" r=".6" fill="#fff" fill-opacity=".3" stroke-width=".3" transform="rotate(1)"/><circle id="circle19031" cx="160.5" cy="311.2" r=".6" fill="#fff" fill-opacity=".3" stroke-width=".3" transform="rotate(1)"/><circle id="circle19033" cx="128.1" cy="306.1" r=".6" fill="#fff" fill-opacity=".3" stroke-width=".3" transform="rotate(1)"/><circle id="circle19035" cx="109.5" cy="330.1" r=".6" fill="#fff" fill-opacity=".3" stroke-width=".3" transform="rotate(1)"/><circle id="circle19037" cx="173.6" cy="324.6" r=".6" fill="#fff" fill-opacity=".3" stroke-width=".3" transform="rotate(1)"/><circle id="circle19039" cx="239.7" cy="323.7" r=".3" fill="#ff0" fill-opacity=".3" stroke-width=".2" transform="rotate(1)"/><circle id="circle19041" cx="244.3" cy="327.2" r=".3" fill="#ff0" fill-opacity=".3" stroke-width=".2" transform="rotate(1)"/><circle id="circle19043" cx="208.1" cy="325.5" r=".3" fill="#ff0" fill-opacity=".3" stroke-width=".2" transform="rotate(1)"/><circle id="circle19045" cx="196.7" cy="323" r=".3" fill="#ff0" fill-opacity=".3" stroke-width=".2" transform="rotate(1)"/><circle id="circle19047" cx="154.5" cy="302.4" r=".3" fill="#ff0" fill-opacity=".3" stroke-width=".2" transform="rotate(1)"/><circle id="circle19049" cx="136.7" cy="314.9" r=".3" fill="#ff0" fill-opacity=".3" stroke-width=".2" transform="rotate(1)"/><circle id="circle19051" cx="118.3" cy="321.7" r=".3" fill="#ff0" fill-opacity=".3" stroke-width=".2" transform="rotate(1)"/><circle id="circle19053" cx="168" cy="328.5" r=".3" fill="#ff0" fill-opacity=".3" stroke-width=".2" transform="rotate(1)"/><use xlink:href="#path18913" id="path19055" fill-opacity="1" stroke-width="1.2"/><path id="path19057" fill="#000" fill-opacity="1" stroke-width="5.9" d="m468.2 1463.4-1 15.8-13.9 7.3-10.1 19.2.3-11.9-3.4-9.8 4.8-6.8v-6.2l-11.6 12.4 2.5 15.8-2.2 11.5 9.9 11.9-1.7 10.7 12.4 12s2.8 17.3 2.8 18.4c0 1.1 5.6 8.4 5.6 8.4l12.7 9.6 15.5 6.8.3 15.2-18 13-10.2-5.4-13.8-10.7-20.6 1.1v-3l3.4-2.3-3.1-5.4.6-19.7-5.4-2.3-5.9-3.6-2-7-7 1v-3.6l6.2-7.9 1.4-5.9-5-13.5 3-5.4.6-19.7 6.7-6.5.3-6.5 6.2-10.3-12 1.9-9.7 7.6v16l-6.2 16.4 3.4 9.9-2.2 4.7-11.6 4.3-2.5-2.8-1.3-29.2.3-9.4 15.8-13.5-32.6 7.5-11.5-7-1.4-13-6 6-12.6 1.7-1.1 3.6 12.3 1.7s-11.2 4.8-12.6 5.6c-1.4.9 16.9-.8 16.9-.8l23.3 14.7-2.1 35.2-18.4-8.5-5.6-4.5-2.3-17.8 6.2-6.4-3.1-1.4-11.3 4.5-7-2.6-12.1 3.4-3.1 8.7 11.8-3.6 2.3 5.9-7.6 8.7 9.5-1.4 6.2-5.9 3.4 15.8 3.1 9.8-.6 11.6 6.8 7 11.8.9 12.4 7.9 7.4-1.7s5.6-1.7 6.7-1.7c1.1 0 8.8 6.5 9.9 6.7 1.1.3 2.2 8 2.2 8l-3 10.6-13.9-.5-10.1 6.5-6.2 8.7-21.1-.9-3.7-3 .3-7.7 8.2-5.9 11.5-2.5 5-5v-8.5l-10.3 9-15.8 1.1-6.5-3.7-4.5-10.4-6.2-6.7-1.7-19.2-7.6-14.6-26 1.4 7.7 8.1 4.2-.2 5.6-3.4 7.7 9.3.2 5.6-16.3-3.7-1.7 8.5-7.3 7.3h-13l-7 5.7 21.4-1.2 4.8-3.4 4.8-.2 6.7-8.2 13.6 16.3 2.5 9.3h-4.2l-7-6.2-5.4-.5-5.1 4.8-29 12.6-1.7 16.7 4.8-10.2 21.7-11 3.4 2.6-2.9 9.5 1.2 15.2 8.1-18.8 2.3-8.5s10.7 2.3 11.8 2.3c1.1 0-.3 5.9-.8 7.3-.6 1.4 3 13.8 3 13.8l7.7 10.4 15.7 6.8 23.4-2.3h15.8l2.8 12.7 7.6 8.7-1.7 17.8-6.4 9.3-10.7 9.8-2.9 9-9 8.5-.5 10.4-16.7 13.8-1.7 10.2 3.1 17.2.9 18c0 1.4 9 8.2 9 8.2l7.3 11.8.4 3.5-2.1-2.3 2.2 3.6 1.5 13.8v13.1c-4-4.8-8.3-9.5-12.7-14.3 4.5 6.3 8.7 12.6 12.6 18.8 0 6.3 0 12.2-.2 13a1755 1755 0 0 1-12 40.8c0-8.4 1.3-17.3 4.5-26.7a110 110 0 0 0-10.5 33l-5.4 1.5c-2-16.2-3-33.6-1.2-55.1-2.2.3-6 35-7.7 57.6l-1.5.4c-2.6-24.6-9-65.4-13.3-65 2.8 1.4 5.1 42.7 5.1 67.2-92.6 26.5-145.4 63.9-145.6 103.1 0 37.1 47.3 72.7 131.4 99 84 26.2 198.2 41 317.1 41 119 0 233-14.8 317.1-41 84.1-26.3 131.4-61.9 131.4-99-.2-48.5-80.8-93.5-213-119a312.3 312.3 0 0 1 33-63c-17.1 19.7-35.7 39-48 60.2l-11.8-2a224.8 224.8 0 0 0-31-53.6c9 17.6 16.9 35 20.3 52l-6.6-1a383 383 0 0 0-44.3-61.6c10.7 19.8 24.6 39.6 30 59.4-22-2.9-44.4-5.2-67.5-7-.5-25 4.2-51.2 8.2-77.3a48 48 0 0 0 14.5-12.3l25.5 4.2 6.8-41.2-23.5-4a48 48 0 0 0-19.8-28.3l4.3-25.6-41.3-6.9-4.4 26.5a48 48 0 0 0-25.9 20l-24.4-4-6.9 41.2 26.5 4.4a48 48 0 0 0 12 18.7l3.6 11.4-4.7 28a153 153 0 0 0-14.3-21.9c4.8 9.8 9.3 19.5 13.2 29.1l-5.8 34.9a1424 1424 0 0 0-83-1c1.3-9.4 6-18.8 12.6-28.2a69.4 69.4 0 0 0-18.6 28.4l-4.1.2c.8-10.8 4.5-21.9 8.3-33a149 149 0 0 0-13.7 33.2c-24.4.7-48.5 2-72.2 4-.9-25.6 3.7-51.2 6.9-76.8-7.3 25.7-14.2 51.5-15 77.6l-2.2.2c-3.5-21.5-8.6-43-18.4-64.5 5.2 17.9 8 35.4 9.5 52.6l-2.2-8.2-16.6-18.3-13-18.9-7.3-15.5-9-5.6-28.5-1.7-5.9-4.2-11-9-7.3-24.8 2-16.6 14-17.5 12.5-15-.3-15.1 7.9-7.6 2-8.8-6-15.8-.3-18 9-13.5 7.4-2.5 9 5 12.1 2 3.7 6-1.7 9.5 20.8-8.7.9-8 15.7-9.8 4-13 7.3 1.2 6.5-6.5 9.3 3.4 5-6.8 5.7-.5 6.7 7-12 18 16.5-12.4-1.6-12.6-9.3-7.7 27.6-2.5 9.8-6.5-42.8 4.5-6.7 10.2-13.6.3-4.5-3.4-1.7-6.8v-20l4.3-3.6.2-6.5 2.5-7c-1-5 4.9-12 4-16.7-2 1.8-16.6 18.5-16.6 19.5 0 1.1-13 22.8-13 22.8l-7.3-2.8-11.2-7.6.2-6.5 13.8-17.2 7.6 2-.2-4.2 8.4-5.7s-11.8 2-14.6 2c-2.9 0-.3-9.6-.3-9.6l17.4-9.3 13.6-3 13 3.9 7.5-6.8-12.4 1.7-8.7-7.9-4 3.7-11.8-.3-2 4-8.7 1.3.3-7.6 7-4.8 6.5-9-14 .6-9.6 5.3-.9 25.1-13.2 21.1-4.2-3-7.7-2.6.3-5.6 2.8-8.2 11.9-11 5.3-8.2-6.4 4.6v-11.9l-4 13.8-12.7 6 .6-5.7 6-16 5.5.2 4.3-4 8.1-.2-4.2-5zm253 249.9-2.8 17-17.2-2.8a30.2 30.2 0 0 1 20-14.2zm21.5 3.7a30.2 30.2 0 0 1 14 19.7l-16.8-2.8zm-45.1 31.9 17.3 2.9-2.9 17.2a30.2 30.2 0 0 1-14.4-20.1zm38.7 6.4 17 2.8a30.2 30.2 0 0 1-19.8 14.4zm-41.4 24.6 3.6 3-.7 3.8-2.9-6.8zm54.1 7a615.8 615.8 0 0 0-18 75.6l-3.3-.2 11.9-71.8a48 48 0 0 0 9.4-3.7z" transform="scale(.2301) rotate(1 10008.2 9336)"/></g><path id="path19063" fill="none" stroke="#000" stroke-linejoin="round" stroke-width="4" d="M130.9-313.4c7 7.7 21.2 35-5.5 37.6-.1-13.2 1.8-26 5.5-37.6zm37-33c-10 .7-15.3 11-14.5 17.5 0 6.3 3.6 11.5 8.4 13.6l-3.8.8c-.1 20-.2 39.9-2 58.9-6-4-12.7-6.8-19.7-8 39.5-21.8 1-65-11.3-74l1.5-5.4a135 135 0 0 0-48.5 9.2c-2 10.3-3.8 18.2-4.5 27.9l-7.5 1c-.8 5.6-1 11-.8 16.6l7.6-1c-.2 23.7 3.4 45.8 10 66.5l22.5-12c-9.3-17.6-14.5-37-15.2-56.8 6-.7 11.3-1.1 16-1.4.3-5.6.9-11.8 1.7-17.3-6 .6-12 1.7-17.7 2.4 0-4 .4-8.6.8-12.6a85 85 0 0 1 27.3-5c-4.7 16.2-7 33-6.7 49.8H105l1.8 16.5 5.6 1.4c.5 6.2 1.2 12.2 2 18.2l15-2.6a125 125 0 0 1-2.5-11.5 32 32 0 0 1 21 20.4l5.7-2.8c-.5 3-1 6-1.7 9l25.7-8.3c-.5-9.1-.6-18.2-.5-27.3 4.3 11 10.7 21 18.8 29.7 23.5-27.7 28.8-67.7 26-112.4l-21.8 10.3a137 137 0 0 1-4.4 77.2 94.5 94.5 0 0 1-8.5-54.2l-8.2 2.4.5-9.7-2.8.6a18 18 0 0 0 5-13c-.5-10.6-7.8-14.9-14-14.6z"/></g></svg>