<svg xmlns="http://www.w3.org/2000/svg" xmlns:xlink="http://www.w3.org/1999/xlink" width="900" height="673" viewBox="0 0 238.1 178.1"><defs/><defs><linearGradient id="a"><stop offset="0" stop-color="#ff8200"/><stop offset="1" stop-color="#ffdc00"/></linearGradient><linearGradient id="f" x1="8.4" x2="-41" y1="660.4" y2="535.2" gradientTransform="translate(0 -.5)" gradientUnits="userSpaceOnUse" xlink:href="#b"/><linearGradient id="b"><stop offset="0" stop-color="#a05500" stop-opacity=".4"/><stop offset="1" stop-color="#fcff00" stop-opacity="0"/></linearGradient><linearGradient id="g" x1="2047" x2="2219" y1="1900" y2="2252" gradientTransform="matrix(.26458 0 0 .26458 -674.7 -24.2)" gradientUnits="userSpaceOnUse" xlink:href="#c"/><linearGradient id="c"><stop offset="0" stop-color="#fff"/><stop offset="1" stop-color="#fff" stop-opacity="0"/></linearGradient><linearGradient id="i" x1="-255.4" x2="-139.9" y1="427" y2="445.9" gradientTransform="matrix(.7082 0 0 .7082 -65.4 126.1)" gradientUnits="userSpaceOnUse" xlink:href="#c"/><linearGradient id="h" x1="-168.5" x2="-91" y1="160.3" y2="305.2" gradientUnits="userSpaceOnUse" xlink:href="#d"/><linearGradient id="d"><stop offset="0" stop-color="#8c0000"/><stop offset="1" stop-color="#640000"/></linearGradient><radialGradient id="e" cx="11.2" cy="797.8" r="131" fx="11.2" fy="797.8" gradientTransform="matrix(.13632 -.99066 1.67431 .2304 -1306.3 472.4)" gradientUnits="userSpaceOnUse" xlink:href="#a"/></defs><g transform="matrix(.70393 0 0 .70393 152.6 -299.6)"><path fill-opacity=".1" d="M-165.4 573.4c18.5-91.9 61.8-107.8 143-71.8C79.9 549 166 627.6 3.6 668.2c-106.1 23.6-187.4 12.6-168.9-94.8z"/><path fill="url(#e)" d="M-173.3 561.3c18.5-92 61.8-107.9 143-71.8C72 536.8 158 615.5-4.5 656c-106 23.5-187.3 12.6-168.8-94.8z"/><path fill="url(#f)" d="M47.4 548.5c33.5 34.6 30.8 71.3-61.2 94.2-61 13.5-112.7 14.3-137.5-12.4a78.2 127.7 75.1 00-1.9 16.9c29.4 24.7 84.5 23.1 148.7 8.9 93.4-23.3 104.7-59.3 78-94.6a78.2 127.7 75.1 00-26.1-13z"/><path fill="url(#g)" d="M-97.1 471.6c-39.6-.2-63.7 27.1-76.3 89.6a132 132 0 00-.3 50.7 73.6 120.1 69 0013 4.3c-6.6-14.3-8.3-33.3-4-58.2 11.2-55.8 32.7-80.3 68.1-80 16.7 0 36.5 5.6 59.7 15.9A382.2 382.2 0 0120.3 526a73.6 120.1 69 001.5-8.6 456.9 456.9 0 00-52.1-28c-26-11.6-48.2-17.8-66.8-18z"/><ellipse cx="-345.5" cy="364.5" fill="#fff" fill-opacity=".8" rx="18.3" ry="2.6" transform="rotate(-29)"/><ellipse cx="-43.6" cy="489.2" fill="#fff" fill-opacity=".6" rx="11.9" ry="2.9" transform="rotate(5.1)"/><ellipse cx="-592.9" cy="-124.8" fill="#fff" fill-opacity=".6" rx="19.3" ry="4.8" transform="rotate(-85.8)"/><circle cx="-128.6" cy="480.4" r="6.4" fill="#fff"/><circle cx="-128.6" cy="480.6" r="8.5" fill="#fff" fill-opacity=".8"/><circle cx="-124.6" cy="460.8" r="4.9" fill="#fff" fill-opacity=".4"/><circle cx="-153.4" cy="437.1" r="1.8" fill="#fff" fill-opacity=".4"/><circle cx="-152.6" cy="438.4" r="2.3" fill="#fff" fill-opacity=".4"/><circle cx="-124.7" cy="464.9" r="3.4" fill="#fff" fill-opacity=".4"/><path fill="none" stroke="#000" stroke-linejoin="round" stroke-opacity=".2" stroke-width="3.9686999999999997" d="M-67.1 511.9h-.7c-8.3.5-12.7 9.1-12 14.5 0 5.3 3 9.6 7 11.3l-3.2.7c-.1 16.6-.2 33.2-1.6 49a43 43 0 00-16.5-6.6c33-18.2 1-54.1-9.4-61.6l1.3-4.6a112 112 0 00-40.5 7.7c-1.7 8.6-3 15.2-3.7 23.2l-6.3 1c-.6 4.6-.8 9.2-.6 13.7l6.3-.9c-.2 19.8 2.9 38.2 8.3 55.5l18.8-10a110.2 110.2 0 01-12.6-47.3c5-.6 9.3-1 13.2-1.2.3-4.7.8-9.8 1.5-14.4-5 .5-10 1.4-14.8 2 .1-3.4.4-7.1.7-10.5a70.5 70.5 0 0122.8-4.2 145.2 145.2 0 00-5.7 41.5h-5.3l1.5 13.8 4.6 1.2 1.7 15.1 12.6-2.2c-.9-3.2-1.6-6.4-2.1-9.6 7.4 2.7 14 7.1 17.6 17l4.6-2.3-1.4 7.5 21.4-7c-.4-7.5-.5-15-.4-22.7a77.6 77.6 0 0015.7 24.8c19.5-23 24-56.4 21.6-93.7l-18.1 8.7a114 114 0 01-3.7 64.3c-6-11.5-9-26.1-7.1-45.2l-6.9 2 .5-8.1-2.4.5a15 15 0 004.2-10.8c.1-7-4-12.3-11-12.1zm52.1 1.8a2.8 2.8 0 00-2.7 2.8 2.8 2.8 0 002.7 2.7 2.8 2.8 0 002.8-2.7 2.8 2.8 0 00-2.8-2.8zm-83.6 25.6c5.8 6.4 17.7 29.1-4.5 31.3a98 98 0 014.5-31.3z"/><path fill="url(#h)" d="M-104.3 136.7c-15.1.9-23.1 16.6-22 26.5.3 9.6 5.5 17.4 12.8 20.6l-5.7 1.3c-.2 30.3-.4 60.6-2.9 89.4a78.4 78.4 0 00-30-12.1c60-33.1 1.6-98.7-17.2-112.4l2.2-8.3c-28 .6-51 5-73.7 14-3.2 15.7-5.7 27.7-6.9 42.4l-11.4 1.7c-1.1 8.4-1.4 16.8-1.1 25.1l11.4-1.7c-.2 36.2 5.3 69.7 15.1 101.2l34.4-18.1a201 201 0 01-23-86.5c9-1 17-1.6 24.1-2 .5-8.6 1.4-18 2.7-26.4-9.2 1-18.2 2.7-27 3.6.3-6 .7-13 1.3-19 13.6-4.9 24.7-7 41.5-7.7a265 265 0 00-10.2 75.8l-9.7-.1 2.6 25.1 8.5 2.2c.9 9.3 2 18.4 3.1 27.6l23-4c-1.7-5.8-3-11.7-3.9-17.5 13.6 5 25.5 13 32 31.1l8.6-4.4c-.8 4.7-1.6 9.2-2.6 13.7l39-12.6c-.7-13.8-1-27.6-.8-41.5A141.5 141.5 0 00-61.4 309c35.6-42 43.6-102.9 39.5-170.8L-55 153.8a208 208 0 01-6.8 117.3c-10.8-20.9-16.5-47.6-13-82.4l-12.4 3.7.9-14.9-4.4 1c4.8-4.9 7.8-12 7.6-19.7.3-13-8-23-21.2-22.1zm-56 50.1c10.4 11.6 32.1 53-8.4 57-.3-20 2.6-39.5 8.3-57z" transform="matrix(.54818 0 0 .54818 -11.7 434.8)"/><path fill="#ff4600" fill-opacity=".4" d="M-68.2 509.7h-.7c-8.3.6-12.6 9.2-12 14.6.1 5 2.8 9.2 6.6 11a13.1 13.1 0 01-3.7-9c-.6-5.3 3.7-14 12-14.4 2.1-.2 4 .1 5.6.9-2-2-4.6-3.1-7.8-3zm44.5.8l-18.2 8.6c4.4 19.2 4.4 39.6-2.9 62 .7 1.5-1.5 1-.8 2.4 8.2-20.4 11.8-27.7 7.5-62.6l14.6-7-.2-3.4zm-79.6 2a112 112 0 00-40.4 7.7c-1.7 8.6-3.1 15.2-3.8 23.2l-6.2 1c-.7 4.6-.8 9.1-.7 13.7l2.9-.4c0-3.7.2-7.5.7-11.3l6.2-.9c.7-8 2-14.6 3.8-23.2 11.5-4.6 23-7 37-7.6zm-4 16.7l-3.5.2a145.5 145.5 0 00-5 39.2h-5.3l1.4 13.7 2.8.8-1.3-12.4h5.3c-.1-12 1.2-26.3 5.6-41.5zm33.2 6.4l-3 .7c0 16.6-.2 33.2-1.5 49a44 44 0 00-11.9-5.6c-.6.4-2.8-.6-3.4-.3 5.8 1 13 4.6 18.2 8 1.3-15.8 1.4-32.4 1.6-49l3-.7c-1-.5-2-1.2-3-2zm21.4 2.7l-3.7 1c-.1 1 3.3-2.5 3.3-1.5l.2 3.5.2-3zm-44 1l-.4 1.2c5.5 8.3 11.5 24.2-4.2 27.5v2.6c22.2-2.2 10.3-25 4.6-31.3zm-22.2.5c-4 .4-7.9 1-11.7 1.6l-.1 2.4c3.7-.4 7.6-1 11.5-1.6l.3-2.4zm-29.2 17.4c-1 .1 1 2.4 0 2.5.1 18.9 3.2 36.4 8.3 53l3.1-1.3c-4.8-16.3-11.5-35.6-11.4-54.2zm89.9 28.5c0 1.4 0-1.4 0 0a72 72 0 0012.8 18.5l.5-.6c-5.8-6.7-9.9-9.8-13.3-17.9zm-56.7-.8l1.6 13.8 2.6-.5-1.4-12.6-2.8-.7zm21.6 7.2c3.3 2.8 6 6.5 8 11.9l-.4-.5c-2.5-5.1-3.7-9-7.6-11.4zm12.3 15.4l-.3-2-.7 3.6 3.5-1.2c.3-1.4-2.7 1-2.5-.4z"/><path fill-opacity=".1" d="M-23.6 541.7a456.5 456.5 0 01-15.4 6.5c-.3 11.2-2.3 23-6.6 35.3a71.4 71.4 0 01-7.6-30.6c-9.2 2.6-17.3 3.9-24 4.3-.3 9.6-.6 19-1.4 28.1a43 43 0 00-16.5-6.6c10.4-5.8 14.4-13.4 14.5-21.3-4.1.2-7.6 0-10.7-.2 0 5.6-3.3 10.3-12.9 11.3 0-4.6.2-9.2.7-13.7a295 295 0 00-11.4-3.9c-.7 6.3-1 12.3-1 17.7h-5.2l1.4 13.7c1.6.5 3.1.9 4.7 1.2.5 5.2 1 10.2 1.7 15.2l12.6-2.2c-1-3.2-1.7-6.4-2.2-9.6 7.5 2.7 14 7.1 17.6 17l4.7-2.3-1.4 7.5 21.3-7c-.4-7.5-.5-15-.4-22.7a77.6 77.6 0 0015.7 24.8c14-16.4 20.1-38 21.8-62.5zm-119.6 3.8c-3.9 0-7.5.5-10.8 1.5-.4 3.7-.5 7.4-.4 11.1l6.3-1c-.1 19.8 2.9 38 8.2 55.3h.7l18.2-9.7a110.2 110.2 0 01-12.6-47.4c5-.5 9.4-.9 13.3-1 0-1.7.2-3.3.3-5-9.1-2.5-16.6-3.9-23.2-3.8z"/><path fill="#ff0" fill-opacity=".1" d="M-68.2 509.7h-.7a13 13 0 00-11.1 8.7 7.6 11 61.6 007.3-1.7 7.6 11 61.6 006.2-6.9 12 12 0 00-1.7 0zm-35 2.8c-7.9.2-15 .9-21.6 2.2a7.6 19 88.9 009.9.8 7.6 19 88.9 0011.3-2zm71 2l-9.7 4.6 1.4 6.8a7.6 11 61.6 001.9-.9 7.6 11 61.6 006.5-10.5zm-101.1 2.2c-3.5 1-7 2.1-10.4 3.5l-1.6 7.8a7.6 11 61.6 005.4-1.7 7.6 11 61.6 006.6-9.6zm-13.4 19.6l-.8 7.1-6.2 1a69 69 0 00-.4 3.3 5.5 8 61.6 004.6-1.2 5.5 8 61.6 004.3-8.7 5.5 8 61.6 00-1.5-1.5zm27.8 3.5c-3.5.3-7 .9-10.4 1.4a5.7 8.1 80.7 007 1.3 5.7 8.1 80.7 003.2-1l.2-1.7zm27.6 16.5c.2 5.4-2.3 10.2-10.2 11.8a5.5 8 42.1 00.4.5 5.5 8 42.1 009.4-2.2 5.5 8 42.1 001.2-9.5 5.5 8 42.1 00-.8-.6zm-24.4 5c-.1 2.5-.2 5-.1 7.3h-5.3l.5 4.6a5.5 8 61.6 003.4-1.2 5.5 8 61.6 004.4-8.6 5.5 8 61.6 00-3-2.1zm-32 9.8c.8 10.2 2.3 20 4.6 29.4a7.6 23 .6 00.5-7 7.6 23 .6 00-5-22.4z"/><path fill="none" stroke="#000" stroke-linejoin="round" stroke-width="2.6458" d="M-68.6 509.3h-.7c-8.3.5-12.7 9.1-12 14.5 0 5.3 3 9.6 7 11.3l-3.2.8c-.1 16.5-.2 33.2-1.6 49a43 43 0 00-16.5-6.7c33-18.1 1-54-9.4-61.6l1.3-4.5a112 112 0 00-40.5 7.7c-1.7 8.5-3 15.1-3.7 23.2l-6.3 1c-.6 4.5-.8 9.1-.6 13.7l6.3-1c-.2 19.9 2.9 38.2 8.3 55.5l18.8-10A110.2 110.2 0 01-134 555c5-.5 9.3-1 13.2-1.1.3-4.7.8-9.9 1.5-14.5-5 .5-10 1.5-14.8 2 .1-3.3.4-7.1.7-10.4a70.5 70.5 0 0122.8-4.2 145.2 145.2 0 00-5.7 41.5h-5.3l1.5 13.7 4.6 1.2 1.7 15.1 12.6-2.2c-.9-3.2-1.6-6.3-2.1-9.5 7.4 2.7 14 7 17.6 17l4.6-2.4-1.4 7.5 21.4-6.9c-.4-7.5-.5-15.1-.4-22.7a77.6 77.6 0 0015.7 24.7c19.5-23 24-56.4 21.6-93.6l-18.1 8.6A114 114 0 01-46 583c-6-11.5-9-26.1-7.1-45.2l-6.9 2 .5-8-2.4.5a15 15 0 004.2-10.8c.1-7-4-12.4-11-12.2zm52.4 2.2a3.1 3.1 0 00-3.1 3.1 3.1 3.1 0 003.1 3.2 3.1 3.1 0 003.1-3.2 3.1 3.1 0 00-3-3zm-83.9 25.3c5.8 6.4 17.7 29-4.5 31.2a98 98 0 014.5-31.2z"/><g transform="matrix(.03952 0 0 .03952 -55.7 507.4)"><circle cx="1001.7" cy="180.5" r="67.7" fill="#590000"/><g style="line-height:1.25"><path fill="#140000" stroke-width="2.5" d="M998.8 171.8q6.6 0 9.4-2.4 3-2.5 3-8 0-5.6-3-8-2.8-2.4-9.4-2.4H990v20.8zm-8.8 14.5V217h-21v-81.3h32q16.1 0 23.6 5.4t7.5 17q0 8-4 13.2-3.8 5.2-11.6 7.7 4.3 1 7.6 4.4 3.5 3.4 7 10.5l11.3 23h-22.3l-9.9-20.1q-3-6.1-6-8.4-3.1-2.2-8.3-2.2z" aria-label="R" font-family="sans-serif" font-size="99.3" font-weight="700" letter-spacing="0" style="-inkscape-font-specification:'sans-serif Bold'" word-spacing="0"/></g></g><path fill="url(#i)" d="M-140.2 445.3l-82.9-11.7-14.1 82.5 11.7-82.9-82.5-14.1 82.9 11.7 14.1-82.5-11.7 82.9z" transform="scale(.74325) rotate(51.4 -421 592.2)"/><g><path fill="green" stroke="#000" stroke-linecap="round" stroke-linejoin="round" stroke-width="2.6" d="M20.7 552.1l-30.4 27.5H2.6v12.7h36.2v-12.7h12.3z"/><g fill="none" stroke="#00fe00" stroke-width="1.8"><path d="M9.4 578.8v4.8h6.4M10.3 577.9H14M14.9 577v-3.7M14 572.4h-3.8M9.3 573.3v1.8M18 577v-4.6h6.5M18.9 576h3.8M23.6 577v5.7M22.6 583.6H19M18 582.7v-3.9M32.2 582.7v-9.4M31.3 572.4h-3.7M26.6 573.3v9.4M31.3 583.6h-3.7"/></g><path fill="none" stroke="#000" stroke-linecap="round" stroke-linejoin="round" stroke-opacity=".2" stroke-width="3.9" d="M22.8 554.7l-30.4 27.6H4.7V595h36.2v-12.7h12.3z"/></g></g></svg>