<svg xmlns="http://www.w3.org/2000/svg" width="900" height="673" viewBox="0 0 238.1 178.1"><defs/><defs><linearGradient id="a" x1="140.2" x2="137.1" y1="122.4" y2="244.3" gradientUnits="userSpaceOnUse"><stop offset="0" stop-color="#00004f"/><stop offset="1" stop-color="#2f2fff"/></linearGradient><clipPath id="b"><ellipse cx="233.3" cy="122.5" fill="#b3ff80" rx="17.7" ry="8.1" transform="rotate(-35.6)"/></clipPath></defs><g transform="scale(1.15008) rotate(-1 -5987.5 1857)"><path fill="url(#a)" d="M221.1 122.4a4.6 4.6 0 00-4.7 4.5 4.6 4.6 0 004.5 4.7 4.6 4.6 0 004.7-4.5 4.6 4.6 0 00-4.5-4.7zm-64.7-.5h-.6c-10 .7-15.3 11-14.5 17.5.1 6.3 3.6 11.5 8.4 13.6l-3.8.8c0 20-.2 40-1.9 59-6-4-12.7-6.8-19.8-8 39.5-21.9 1.1-65-11.3-74l1.5-5.5a135 135 0 00-48.5 9.2c-2 10.3-3.8 18.2-4.5 28l-7.5 1c-.8 5.5-1 11-.8 16.5l7.6-1c-.2 23.7 3.4 45.8 10 66.5l22.5-12C84 216 78.8 196.5 78 176.7c6-.7 11.3-1 16-1.4.3-5.6 1-11.8 1.7-17.3-6 .6-12 1.7-17.7 2.4.1-4 .4-8.6.8-12.6a85 85 0 0127.3-5c-4.6 16.2-6.9 33-6.7 49.8H93l1.8 16.5 5.6 1.4c.5 6.2 1.2 12.2 2 18.2l15-2.6a125 125 0 01-2.5-11.5A32 32 0 01136 235l5.6-2.8c-.5 3-1 6-1.7 9l25.7-8.3c-.5-9-.6-18.2-.5-27.3a93 93 0 0018.8 29.7c23.5-27.7 28.8-67.7 26-112.4l-21.8 10.3a137 137 0 01-4.4 77.2 94.5 94.5 0 01-8.5-54.2l-8.2 2.4.5-9.7-2.8.6a18 18 0 005-13c-.4-10.2-7.2-14.6-13.3-14.6zm-37.6 33c7 7.7 21.2 35-5.5 37.6 0-13.2 1.8-26 5.5-37.6z"/><path fill="#292939" d="M151.1 142.5l-5.9 7.3c1.3 1.4 2.8 2.5 4.5 3.2l-3.8.8c0 20-.2 40-1.9 59-6-4-12.7-6.8-19.8-8 21-11.7 20-29.3 12.6-44.7l-9 11.1c2.8 9.6 1.3 19.8-14.5 21.3a123 123 0 014.2-33l-4-6.6-12.7 15.7c-1 8-1.5 16-1.4 24H93l1.8 16.5 5.6 1.4c.5 6.2 1.2 12.2 2 18.2l15-2.6a125 125 0 01-2.5-11.5A32 32 0 01136 235l5.6-2.8c-.5 3-1 6-1.7 9l25.7-8.3c-.5-9-.6-18.2-.5-27.3a93 93 0 0018.8 29.7c17-20 24.5-46.6 26.3-76.7l-12-13.4-7 6.9a137 137 0 01-7.5 58.3 94.5 94.5 0 01-9.4-42l-4.8 4.6zm-72.8 12.2l-25.1 16.7c-.2 2.9-.2 5.8 0 8.6l7.5-1c-.2 23.7 3.4 45.8 10 66.5l22.5-12C84 216 78.8 196.5 78 176.7c6-.7 11.3-1 16-1.4l.6-7.4-6.8-8.8c-3.3.4-6.6 1-9.8 1.3l.3-5.7z"/><path fill="#23232e" d="M203.5 162.8l-12.8 18a137 137 0 01-7 29.6c-3.8-8-6.5-16.4-8-25.1l-7.5-9-3 3.3-3.3-8.3-10.4 13-5.9-3.7c-.2 11-.6 21.7-1.6 32.1-6-4-12.7-6.7-19.8-8 13-7.1 17.6-16.7 17.4-26.5l-8-4.9-4.8 2.9c.9 7.9-2.4 15-15.5 16.3 0-5.7.3-11.4 1-17l-8.7-7-5.3 4.5c-.6 6.5-1 13-.9 19.6H93l1.8 16.5 5.6 1.4c.5 6.2 1.2 12.2 2 18.2l15-2.6a125 125 0 01-2.5-11.5A32 32 0 01136 235l5.6-2.8c-.5 3-1 6-1.7 9l25.7-8.3c-.5-9-.6-18.2-.5-27.3a93 93 0 0018.8 29.7c15.4-18 23-41.3 25.6-67.7zm-136.3 2.9L53 176.9v3.1l7.6-1c-.2 23.7 3.4 45.8 10 66.5l22.5-12C84 216 78.8 196.5 78 176.7l1.6-.1z"/><path fill="#bbf" d="M177 191.6c-11.5-.1-22 .6-31.7 1.6-.3 6.6-.7 13.1-1.3 19.5-6-4-12.7-6.7-19.8-8a37 37 0 0012.5-10.5c-14.7 1.8-28.3 4-43 4.7l1.1 10.2 5.6 1.4c.5 6.2 1.2 12.2 2 18.2l15-2.6a125 125 0 01-2.5-11.5A32 32 0 01136 235l5.6-2.8c-.5 3-1 6-1.7 9l25.7-8.3c-.5-9-.6-18.2-.5-27.3a93 93 0 0018.8 29.7 104.6 104.6 0 0020.7-40.8c-5.5-1.2-10.9-2-15.7-2.4-1.3 6.2-3 12.3-5.2 18.3-2.9-6-5.2-12.3-6.7-18.8zm-115.6 6.8c1.4 16.5 4.6 32.2 9.3 47.1l22.5-12c-5.7-10.8-9.9-22.4-12.4-34.4h-3.4l-16-.7z"/><path fill="#ffffd0" d="M160.3 127.3a9.9 11.6 17.7 012.4 8.3 9.9 11.6 17.7 01-11.1 11.3 9.9 11.6 17.7 01-4-1.1 9.9 11.6 17.7 006.6 3.2 9.9 11.6 17.7 0011-11.2 9.9 11.6 17.7 00-4.9-10.5z"/><path fill="#656582" d="M151.1 142.5l-5.9 7.3c1.3 1.4 2.8 2.5 4.5 3.2l-3.8.8v1.1l3.2 5.5 3.2-4.9 3.5 5.2 1.7-4.2 2 2.8 1-1.2zm47.1 2.7l-7 6.9.2 3.6 5.2 4.7 3.4-6 5 9.4 5.2-4.8v-.4zm-84.8 7.7l-5 6.4 1.7 2.3 1.7-2.9 2 7.5 2-6.7 1.2 2 .5-2zm-35.1 1.8l-2.5 1.6 2.3 8.2 4.6-2.9 2.1 3.4 4-4.7-1-1.2c-3.3.4-6.6 1-9.8 1.3l.3-5.7z"/><path fill="#040" d="M68.2 190.6l-1.8 2.5.7-.1-1.2 1.3 1-.1-1.2 1.4 1.2-.1-1.8 1.8 1.8-.2-2.3 1.4h3v1.7h.8v-1.6h3l-2.4-1.5 2 .2-1.8-1.9 1.3.3-1.1-1.5.8.2-1.3-1.4.7.1z"/><path fill="#003d00" d="M74.5 191.2l-1.6 2.2.6-.1-1 1.2.8-.2-1 1.3 1-.1-1.6 1.6 1.7-.2-2.1 1.2h2.6v1.5h.7v-1.4h2.7l-2-1.3 1.6.2-1.5-1.6 1 .2-1-1.3.8.1-1-1.2.5.1z"/><ellipse cx="74.1" cy="198.9" fill-opacity=".1" rx="5.4" ry="1.5" transform="rotate(1)"/><path fill="#005c00" d="M71.5 192.2l-2.3 3.2.9-.2-1.5 1.8 1.2-.2-1.5 1.9 1.5-.2-2.3 2.3 2.4-.3-3 1.9h3.8v2.2h1v-2.1h4l-3-2 2.4.4-2.2-2.5 1.5.4-1.4-2 1 .2-1.5-1.7.8.2z"/><path fill="#040" d="M130.9 186.1l-1.8 2.6.7-.1-1.2 1.4 1-.2-1.3 1.5 1.2-.2-1.8 2 1.9-.3-2.4 1.5h3v1.7h.9v-1.7l3.1.1-2.4-1.6 2 .3-1.8-2 1.2.3-1.1-1.6.8.2-1.2-1.4.6.1z"/><ellipse cx="134.2" cy="221.7" fill-opacity=".1" rx="4" ry="1.3" transform="matrix(.98268 -.18533 -.01745 .99985 0 0)"/><path fill="#004f00" d="M124.2 187.7L122 191l.8-.2-1.5 1.7 1.2-.2-1.5 2 1.5-.3-2.3 2.3 2.4-.3-3 2h3.8v2l1 .1v-2h4l-3-2 2.4.3-2.2-2.4 1.6.3-1.5-2 1 .3-1.5-1.8.8.2z"/><path fill="#004100" d="M100.2 190.4l-1.5 2.2.6-.2-1 1.2.8-.2-1 1.3 1-.1-1.5 1.5 1.5-.2-2 1.2h2.6v1.5h.6v-1.4h2.6l-2-1.3 1.6.2-1.4-1.6 1 .2-.9-1.2.7.1-1-1.1h.5z"/><path fill="#80809c" d="M151.1 142.5l-1.7 2 5.8 4.9zm47.1 2.7l-4 3.9 5.8-2zm-84.8 7.7l-1.3 1.7 2.9.9z"/><path fill="#ffffb0" d="M70.9 143.5l-1-.6-.6.9.3-1.1-1-.4h1l.1-1.2.4 1 1-.2-.8.7zM126 153l-1-.7-.7.9.4-1-1-.5h1l.1-1.1.4 1 1-.3-.8.7zM204.6 135.7l-.6-.9-1 .6.7-.9-.8-.7 1 .3.4-1v1l1.1.2-1 .3z"/><circle cx="108.4" cy="131.7" r=".3" fill="#909090" transform="rotate(1)"/><circle cx="92.1" cy="136.1" r=".3" fill="#909090" transform="rotate(1)"/><circle cx="156.8" cy="125.9" r=".3" fill="#909090" transform="rotate(1)"/><circle cx="198.7" cy="134.2" r=".3" fill="#909090" transform="rotate(1)"/><circle cx="118.1" cy="138.2" r=".2" fill="#fff" transform="rotate(1)"/><circle cx="84.2" cy="133.8" r=".2" fill="#fff" transform="rotate(1)"/><circle cx="149.1" cy="131.7" r=".2" fill="#fff" transform="rotate(1)"/><circle cx="74.5" cy="145.9" r=".2" fill="#fff" transform="rotate(1)"/><circle cx="207.6" cy="137.2" r=".2" fill="#fff" transform="rotate(1)"/><g transform="translate(60.5 130.7) scale(.24449)"><path fill="#5c2500" d="M178 265l16-18 13 14.9.1 23.6-29.5-.3z"/><path fill="#421b00" d="M168.5 261.3l11.5.2-.5 23.8-11.4-.2z"/><path fill="none" stroke="#4d1f00" stroke-linecap="round" stroke-linejoin="round" stroke-width="1.8" d="M170.7 262.1l14-15.2M173 262.1l14-15.1M175.3 262.2l14-15.2M177.6 262.2l14-15.2"/><path fill="none" stroke="#5f2700" stroke-linecap="round" stroke-linejoin="round" stroke-width="1.8" d="M168.3 262l14.1-15.1"/><path fill="#301400" d="M199 245.2h4.8l-.3 13.4h-4.8z"/><path fill="#421b00" d="M194 247l-16 18v2.6c6.9-5 14.2-9.3 29-5v-.7z"/><path fill="none" stroke="#5f2700" stroke-linecap="round" stroke-linejoin="round" stroke-width="1.8" d="M179.9 262.3l14-15.2 13.6 15.6"/><ellipse cx="198.1" cy="255.5" fill="olive" stroke="#742f00" stroke-linecap="round" stroke-linejoin="round" stroke-width="1.8" rx="2.7" ry="3.6" transform="rotate(1)"/><path fill="#b3b300" stroke="#742f00" stroke-linecap="round" stroke-linejoin="round" stroke-width="2" d="M187.6 268.5l12 .2-.1 9.8-12-.2z"/><path fill="none" stroke="#848400" stroke-linecap="round" stroke-width="2.3" d="M185.8 279.3l15.4.3"/><path fill="none" stroke="#742f00" stroke-width="1.2" d="M193.7 268.3l-.2 10.1M198.7 273.9l-10.2-.2"/><path fill="none" stroke="#bbf" stroke-width="3.5" d="M162.3 284.2c9.3-.9 18.6 3.4 27.8 2 12.4-2 20-1.8 23.8-2.5"/><path fill-opacity=".1" d="M168.1 282.5l-13.5 7.1c-6.9 5 15.5 10.4 20.5 9.8 3.2-.5 8.5-2.3 16.2-6.4l15.9-10.4c-2.7-3.3-29.3 1.3-39-.1z"/><path fill="#fff" fill-opacity=".1" d="M202.5 243s-3.6-10.6-3.5-16.6c.2-10.6 6.8-18.5 7.2-29 .3-8-2.6-15-3.9-22.6 0 0 .9 13 3.4 19.9 5 13.5-10.3 23.3-9.2 35 .8 9.2 6.2 13.6 6 13.4z"/><path fill="#5c0009" stroke="#4a0000" stroke-linecap="round" stroke-linejoin="round" stroke-width=".3" d="M181.4 273.5l2.1-.7c.2 1.7.4 3.2.4 4.6l-1.5 1.6c-.8.7-1 .3-1.3.2-.5-.3-.3-.7 0-1.1l1-1.3c.2-1-.3-2.2-.7-3.3z"/><circle cx="187.9" cy="270.2" r=".2" fill="#2b1100" transform="rotate(1)"/></g><ellipse cx="74.4" cy="218.4" fill-opacity=".1" rx="4" ry="1.3" transform="matrix(.98268 -.18533 -.01745 .99985 0 0)"/><ellipse cx="128" cy="224.2" fill-opacity=".1" rx="4" ry="1.3" transform="matrix(.98268 -.18533 -.01745 .99985 0 0)"/><ellipse cx="103.5" cy="218.2" fill-opacity=".1" rx="4" ry="1.3" transform="matrix(.98268 -.18533 -.01745 .99985 0 0)"/><path fill="#fff" d="M94.3 204.7l.5 4.4 5.6 1.4c.5 6.2 1.2 12.2 2 18.2l15-2.6a125 125 0 01-2.5-11.5A32 32 0 01136 235l5.6-2.8c-.5 3-1 6-1.7 9l25.7-8.3c-.3-6.5-.5-13-.5-19.4-7-1-13.8-2.2-20.9-3.3l-.2 2.5c-2-1.3-4.2-2.6-6.4-3.7-13.2-2.1-27-4-43.3-4.3zm-12.2.1c-6 .3-12.8 1.3-19.8 2.7 1.7 13.2 4.5 25.8 8.4 38l22.5-12c-4.8-9.1-8.5-18.7-11-28.7zM169 214c4 7.7 9 15 15 21.3 5.1-6 9.4-12.6 12.9-19.8h-2.6c-8.9.1-17.2-.5-25.3-1.5z"/><path fill="#ddf" d="M149.2 227a26.4 9.5 1 00-14.6 1.3 32 32 0 012.5 5.7l5.6-2.8c-.5 3-1 6-1.7 9l25.7-8.3-.1-2.2a26.4 9.5 1 00-17.4-2.7z"/></g><g transform="scale(-.65939 .65939) rotate(-9.5 1706 2052)"><path fill="#804633" stroke="#502c1f" stroke-linecap="round" stroke-width="1.2" d="M254.4-81.3c-2.4.1-5.5 5.4-7.3 12.2-.8 3.2-1.2 6.3-1.2 9a12 12 0 00-6.6.1c.1-2.6-.3-5.8-1.2-9-1.9-7.3-4.1-8.7-6.5-8.1-2.4.6-3.9 3-2 10.3 1 4.2 2.8 8 4.5 10.2-2 2.1-3 5-3.1 7.8h0v.2l-.2 11.1c9.3 2.2 14.4 10.5 23.3 8.3l.8-19.4v-.2h0c0-3-1.3-6-3.5-8.2 1.7-2.3 3.2-5.9 4.3-9.9 1.9-7.3 1.5-13.7-.9-14.3-.1 0-.3-.1-.4 0z"/><g transform="translate(226.9 187.2) scale(.36944)"><circle cx="29.5" cy="-638.5" r="8.7" fill="#fff"/><circle cx="29.4" cy="-638.3" r="5.7"/><circle cx="27.1" cy="-640.8" r="3.4" fill="#fff"/></g><g transform="translate(236.8 187.2) scale(.36944)"><circle cx="29.5" cy="-638.5" r="8.7" fill="#fff"/><circle cx="29.4" cy="-638.3" r="5.7"/><circle cx="27.1" cy="-640.8" r="3.4" fill="#fff"/></g><path fill="none" stroke="#ff8dc8" stroke-linecap="round" stroke-width="1.5" d="M249.5-44.2h2.6"/><path fill-opacity=".2" d="M255.5-80.9c1.4 2.1 1 8-1 14.1-1.3 4-4.1 8-6 10.2 2.1 2.4 4.5 5.6 4.1 8.5v.1A33.5 33.5 0 01246-30c2.7 1.2 5.4 1.3 8 .6.3-6.4-.2-5.8 0-12.2.9-9-.1-12.7-2.6-15.3 1.6-2.3 3.2-5.9 4.3-9.9 1.6-6.5 1.6-12.4-.2-14zm-19.8 5c.6 1.8.8 3.6 1.2 5.6.7 3.5.5 10.6-.2 12.6l3.3-2c0-2.4-1.1-6.5-1.9-9.3-.6-2.5-1.5-4.9-2.4-6.9z"/><path fill="#fff" fill-opacity=".3" d="M234.8-55.6c-.9.8-1.3 1.9-1.9 3-1.3 3-1 5.2 0 5.7.8.4 2-.8 3.3-3.4v-3.8c-.1-1.2-.7-2-1.4-1.5z"/><path fill="none" stroke="#000" stroke-linecap="round" stroke-linejoin="round" d="M238.9-43.3c0 .7.9 1.3 2 1.3 1 0 2-.6 2-1.3M242.9-43.3c0 .7.9 1.3 2 1.3 1 0 2-.6 2-1.3" paint-order="stroke markers fill"/><ellipse cx="242.9" cy="-44.1" rx="2" ry="1"/><path fill="none" stroke="#ff8dc8" stroke-linecap="round" stroke-width="1.5" d="M233.4-44.3h2.6"/><ellipse cx="223.2" cy="-135.2" fill="#ff8dc8" rx="2.9" ry="9.5" transform="rotate(15.7)"/></g><g fill="none" stroke="#b80000" transform="scale(1.15008) rotate(-1 2303 2150)"><path stroke="#012c00" stroke-linejoin="round" stroke-width="4.003914" d="M227.5-22.2a4.6 4.6 0 00-4.7 4.5 4.6 4.6 0 004.5 4.7 4.6 4.6 0 004.7-4.6 4.6 4.6 0 00-4.5-4.6zm-64.7-.5h-.6c-10 .7-15.3 11-14.5 17.5.1 6.3 3.6 11.5 8.4 13.6l-3.8.8c-.1 20-.2 39.9-1.9 58.9-6-4-12.7-6.7-19.8-8 39.5-21.8 1.1-65-11.3-74l1.5-5.4a135 135 0 00-48.5 9.2c-2 10.3-3.8 18.2-4.5 27.9l-7.5 1.1c-.8 5.5-1 11-.8 16.5l7.6-1c-.2 23.7 3.4 45.8 10 66.5l22.5-12c-9.3-17.6-14.5-37-15.2-56.8 6-.7 11.3-1.1 16-1.4.3-5.6.9-11.8 1.7-17.3-6 .6-12 1.7-17.7 2.4.1-4 .4-8.6.8-12.6a85 85 0 0127.3-5c-4.6 16.2-6.9 33-6.7 49.8h-6.4l1.8 16.5 5.6 1.4c.5 6.2 1.2 12.2 2 18.2l15-2.6a125 125 0 01-2.5-11.5 32 32 0 0121.1 20.4l5.6-2.8c-.5 3-1 6-1.7 9l25.7-8.3c-.5-9.1-.6-18.2-.5-27.3 4.3 11 10.7 21 18.8 29.7 23.5-27.7 28.8-67.7 26-112.4l-21.8 10.3a137 137 0 01-4.4 77.2 94.5 94.5 0 01-8.5-54.2l-8.2 2.4.5-9.7-2.8.6a18 18 0 005-13c-.4-10.3-7.3-14.6-13.3-14.6zm-37.6 33c7 7.7 21.2 35-5.5 37.6-.1-13.2 1.8-26 5.5-37.6z"/><circle cx="227.1" cy="-21.5" r="3.6" stroke="none" transform="rotate(1)"/><path stroke="none" d="M227.4-17.8c.5 0 .5-.2.5-.5s-.2-.4-.5-.4h-.4v1zm-.4.7v1.3h-1v-3.7h1.5c.7 0 1.3.3 1.3 1s-.2 1-.6 1.1c.4 0 .5.4.6.7l.6 1h-1l-.5-1c-.2-.3-.3-.4-.6-.4z" aria-label="R" font-size="99.3" font-weight="700" letter-spacing="0" word-spacing="0"/><path fill="#ffffb0" stroke="none" d="M227.3-17.8c.4 0 .4-.2.4-.4s-.1-.3-.4-.3h-.3v.7zm-.3.5v1h-.7V-19h1.1c.5 0 1 .2 1 .8 0 .5-.1.7-.5.8.4 0 .4.3.5.5l.5.9h-.9l-.3-.8c-.2-.3-.3-.3-.5-.4z" aria-label="R" font-size="99.3" font-weight="700" letter-spacing="0" word-spacing="0"/></g><path fill="navy" d="M-29.3 460.5h-.7c-11.4 1-17.3 13-16.3 20.4.1 3.8 1.3 7.3 3.3 10h24.8c3.1-4 4.8-8.9 4.5-13.9-.6-11.8-8.6-16.6-15.6-16.5z"/><path fill="none" stroke="#f60" stroke-dasharray="2.3 .6" stroke-linejoin="round" stroke-opacity=".5" stroke-width=".690048" d="M218.4 16.5a5.3 5.3 0 100 10.5 5.3 5.3 0 000-10.5zm-74.4.7h-.7c-11.5 1-17.4 13-16.3 20.5A17 17 0 00137 53l-4.4 1c.3 23 .5 46-1 67.8-7-4.5-14.8-7.5-23-8.8 45-25.9 0-74.8-14.4-84.9l1.6-6.6c-9.5.2-19 1-28.3 3.2-9.5 2.3-18.1 4.8-27 8.4-1 5.9-2.3 11-2.8 16.3-.5 5.2-1.5 10.3-1.8 15.8l-9 1.2c-.3 3.1-.2 6.4-.7 9.5-.4 3 0 6.3.2 9.4l8.7-.6c.2 27.3 4.8 52.6 12.8 76.3 8.6-4.4 17.2-8.8 25.7-14.3A176.3 176.3 0 0155 82.5c6.8-1 12.8-2.2 18.2-2.6.6-6.4 1.3-12.9 1.6-19.3l-20.3 2.5c0-4.6.3-10 .7-14.5 8.1-3 19-5 30.8-6C83.6 52 82.5 61.5 81 71c-1.5 9.4-1.3 19-1 28.8l-7.4.1 2.4 19 5.8 1c1 7.1 3 14.6 3.3 21.3l9.4-1.8 8.5-1.2c-1.3-4.4-3-9-3.8-13.4a36.8 36.8 0 0124.7 23l6.4-3.3c-.5 3.4-1 6.9-1.8 10.3l29.4-10c-.7-10.5-1-21-1.1-31.4a107 107 0 0022.2 33.8c26.5-32.3 31.5-77.6 27.4-129l-24.6 11.5c8.5 29.3 6.4 60.2-3.5 88.8a108.7 108.7 0 01-10.9-62.1l-9.4 3 .4-11.2-3.2.7c3.8-4 5.8-9.5 5.5-15-.7-11.8-8.7-16.7-15.6-16.6zM101.4 56a50.8 50.8 0 0111.8 23.6c1.4 9.4-2 18-17.3 19.8-.2-7.6.6-15 1-22.4.6-7.5 2.5-14.3 4.5-21z"/><g transform="rotate(-1 2078.3 -5030) scale(.62187)"><ellipse cx="122.8" cy="201.3" fill-opacity=".2" rx="112.3" ry="17" transform="rotate(1)"/><path fill="#803300" d="M162.1 208.4c44.1 9.1 64.3-25 70.3-45.6 7.9-62.7-18-71.8-47.9-79.3-26.4-6.6-63.3 15.6-70.2 42-8 30.8 2.7 60.6 47.8 82.9z"/><path fill="#2b0000" d="M52.7 91.8C45.4 91.8 35 90 31 83.6c-2-3.3-.6-8.7 1.5-11.8 1.2-1.2 4-8.1 15.4 3.9 3.7-10 6.7-10.6 5.2 9.3 0 0 1.9 6.8-.4 6.8z"/><path fill="#d40000" d="M109.6 36.1c-1.8 0-3.7.1-5.6.4-16.8 3-36 15.3-29.7 60L52.8 82.9l-6.4 8.1 23.1 23.9c-10.3 16.5-16.6 32.8-9.5 48l-3 6.1 6.7 2.2-5.4 3.1 6.2 11L81 176a87.9 87.9 0 0028.9 1.4l3.4 17.2 12.5-2.5-3.4-16.9c5.3-1.2 11-2.8 17-5-4-8.7-3.7-17.3-3.4-25.8 21.5-11-1-23.5-7.2-35.4 1.6-44.5 16.8-19.7 27-19.9-5.2-26.6-24.1-52.4-46-53z"/><path fill="#f7d6ae" d="M73.6 74.9l.1-.3 4.7-17.4 29.1-6.1 25.8 19.2-3.3 22.3z"/><path fill-opacity=".1" d="M148.6 68c3.6 11.2-.1 15-7.6 14.9 4.8 1.6 10.3 6.3 14.8 6.2a86.3 86.3 0 00-7.2-21zm-47.4 36c-4.5 0-8 1.5-9.5 4.4-2.7 5.2 1.6 12.9 9.7 17.2 8.1 4.3 17 3.6 19.7-1.6 2.7-5.2-1.6-13-9.7-17.2-3.4-1.8-7-2.8-10.2-2.8zm27.6 2.5l-6 20.6-.5-1-12.5 12.8c3 .4-1.4 6.2 13.9-2.3 2.3 3.2 1 7.2.7 11-5.9 22.5-13.8 19.7-22.2 27.8l24.2-2.8.3 1.5c4-1 8.2-2.3 12.6-4-4-8.6-3.7-17.2-3.4-25.7 21.5-11-1-23.5-7.2-35.4v-2.5zm-44.4 19.6c-1.7-.1-3.5 2-4 4.8-.5 3 .6 5.6 2.5 5.9 1.8.3 3.7-1.8 4.2-4.8s-.6-5.6-2.4-6h-.3zM80 143c-1.7-.1-3.5 2-4 4.8-.5 3 .6 5.6 2.4 5.9 1.9.3 3.8-1.8 4.3-4.8s-.6-5.6-2.4-6h-.3zm-16.7 28.5l-5 2.7 6.3 11 15.8-9zm58.8 2.3l-12.6 1.7 1.8 9 12.8-.6z"/><path fill="#803300" d="M120.6 119.8c-7 3-14 5.8-21.4 6.3 1.6 1.5 0 4 8 3.5-3 1-3.5 2.5-3.4 4.1 3.7-.7 4.6 1 5.7 2.5-3.1 1.2-2.2 2.9-2.2 4.4 8.6-1.5 12.5-10 18.7-15.2 7.5-4.2 15.4-1.5 23.2.5l-13.6-26.1c-5.9 7.3-9.1 16.3-15 20z"/><path fill="#ff0" fill-opacity=".2" d="M175.7 82.2a69.7 69.7 0 00-56.6 32.2C154.8 95.2 183 89.3 203.4 89a147 147 0 00-18.7-5.6c-3-.7-6-1.1-9-1.2z"/><path fill="#fff" d="M105.3 37.1h-2.8c-.8.1-4.3.3-8.6 1.8a24.8 24.8 0 00-16 16.7c-2.6 1-5 2.3-7.1 4.1a15 15 0 00-5.4 12.1c0 1.4.3 2.7.8 4a15.2 15.2 0 00-5 13.6 15 15 0 0018.4 12.5 15 15 0 0027.3 12.4 15.2 15.2 0 0024.7-16.5 14 14 0 008.2-11.5c0-1 .2-3.3-.8-6.5a21 21 0 00-2.3-5c-1.2-2-1-1.3-1-1.9 3.9-11.8-2.2-23.9-12.8-30.5-5-3.2-11.1-5.2-17.6-5.3zm-6.6 18c1.5 0 3 .2 4.3.4a33.8 33.8 0 0120.7 10.2c3.3 3.4 5.7 7.8 6.6 11 0 3.6-1.1 7.6-2.8 10.4-1.9-5-6.5-9.2-10.8-10.7-5.5-1.9-8.8-1.5-14-1.4-1.6-1.1-5.3-6.2-16.3-6.8-4.7 0-9.2 3.2-9.5 3.2.3-3.3 1.4-6.6 3.2-9.4 4.2-5 12-7 18.6-6.9zM154 77a9.4 9.4 0 00-9.6 9.2 9.4 9.4 0 009.2 9.6 9.4 9.4 0 009.6-9.3A9.4 9.4 0 00154 77z"/><path fill="#fff" d="M121 66.9c0 .4 0 1-.4 1.3-.7.5-1.8-1-3.4-2.2-3-2.5-7.2-2.6-7.1-3.8 0-.5.4-.8.8-1 2.9-1.4 9.6 2.4 10.1 5.7z" class="st2"/><path fill="#fffffe" d="M102.8 59.4a3 3 0 00-1.4-1.2c-2.7-1.2-6.5-1-9.1.3a6 6 0 00-1.2.8c-1 .8-.3 2 .6 2 2.4-.4 3.6-1.5 8.3-.7 1.4.2 2.5.4 2.9-.2.1-.3 0-.7-.1-1z" class="st14"/><path fill="none" stroke="#803300" stroke-linecap="round" stroke-width="2.1" d="M92.6 63.5c2.6-1.1 5.5-.8 7.1 2M109.6 68.3c2.3-1 5.5-.5 7.2 2"/><circle cx="103.9" cy="72.3" r="5.7" fill="#ffc2ae" transform="rotate(1)"/><path fill="none" stroke="#f55" stroke-linecap="round" stroke-width="2.5" d="M105.4 85.4c-2.6 2.3-9 1-10.2-2.8"/><path fill="#2b0000" d="M112.2 194.2l1.8 9.2c-3.7 3-3 5.4-2.9 7.9l11.4-2.2 2.8-2.9.6 2.1 4.4-1.9-4-16.5zM59.4 172.5l-8.5 4c-3.9-2.8-6-1.4-8.3-.7l5 10.4 3.4 2-1.8 1.2 3 3.7 15-8.1zM119.8 131c6.3 1.3 9.2-3.6 10-6.6 1.2-9-2.5-10.3-6.8-11.4-3.8-1-9 2.3-10 6-1.2 4.5.3 8.8 6.8 12z"/><path fill-opacity=".2" d="M233.5 134a189 189 0 01-10.2 19 5.2 18 15.6 00-1.5-13 5.2 18 15.6 00-10 16 5.2 18 15.6 00-1.8 14.6c-28.3 29.8-58 15-88.8 4.6 7.9 12.1 21 23.4 40.9 33.2 44.1 9.1 64.3-25 70.3-45.6a148 148 0 001.1-28.9z"/><path fill="none" stroke="#fefefe" stroke-linecap="round" stroke-width="5.3" d="M58.5 168c17.3 5.5 35 15.7 79.6 2"/><path fill="none" stroke="#fff" stroke-linecap="round" stroke-width="5.3" d="M46.4 91v0l6.4-8.2M121 131.7v0l9-5.1M112.2 194.2v0l14-4.3M67.1 185v0l-7.7-12.5"/><path fill="none" stroke="#000" stroke-width="3.5" d="M58.5 162.3c25.6 8.7 51.6 7.3 78.8-.6"/><path fill="none" stroke="#842424" stroke-width="5.3" d="M32.8 51c1.2-2.7-3.5-35.4 4.3 1.2 10.7-30 17-16.1 8.4-3.1"/><path fill="#ff0" d="M21 44.9l31 .5-.5 31.1-31.1-.5z"/><path fill-opacity=".1" d="M47.8 45.4l-.5 27.5-26.9-.4V76l31 .5.6-31z"/><path fill="navy" stroke="#a02c2c" stroke-width="7.4" d="M36.8 44l-.6 33.5M53.3 61l-33.6-.6"/><path fill="none" stroke="#f60" stroke-dasharray="4.2 1.1" stroke-opacity=".5" stroke-width="1.1" d="M109.4 39.3c-10.1-.1-25.4 3.2-28.4 18-4.8 2.1-16 8.8-11 18.3-3 4-7.2 8.6-6 18l-12.8-8V71.8c-2 .4-1.2.6-3.9 1l2-24.6-25.7.2v24.3h12.2c-2 2.3-3.4 5-2.6 8.9 5.1 6.2 9.8 5.5 14.5 6.2l26.8 27.6c-10.3 10.8-16 31.9-13 42.6 0 5.8-1 10.6 2.4 15l-12 5.8-5.2-1.1 8.3 10.5 23.6-14.1a67 67 0 0033.2 1.7l5.2 27.7-3.4 5 7.2-1.4 4.8-5-6.7-31.7c16.3 15.9 31.4 33.4 54 36.5 12.3 0 23.3-1.8 40-17.4 14-14.2 15.5-26.7 17.3-46.6-.9-25.1-10.4-41.2-24.4-48.7a74 74 0 00-45.3-7.3c-1.4-7.8-7.3-8.4-9.6-7.5-13-26-25.4-37.9-36.6-39.8l-5-.4z"/><ellipse cx="103.4" cy="114.7" fill="#fc0" rx="3.4" ry="5.4" transform="rotate(9.7)"/><ellipse cx="101.8" cy="132.1" fill="#fc0" rx="3.4" ry="5.4" transform="rotate(9.7)"/><path fill="none" stroke="#fc0" stroke-linecap="round" stroke-linejoin="round" stroke-width="3.5" d="M71.9 162l11.1 1.4-.7 8-11.5-1.6z"/><ellipse cx="206.6" cy="118.9" fill-opacity=".1" rx="13.8" ry="6.6" transform="rotate(17.3)"/></g><path fill="#f0f0f0" d="M222 10.6c-2.6 0-5.4.6-7.8.5-2.7-.1-5.5-.6-8.1 0-4.1 1.2-7.2 4.6-11 6.4-5.7 2.7-13.6 2-17.6 6.8-2 2.5-2.2 6.2-1.6 9.2.5 2.4 1.6 5.8 4 6 3.8.3 4-7.9 7.8-8.5 2.5-.3 4 4.6 6.5 3.9 2.7-.8 1.1-6.6 3.8-7.6 1.7-.6 3.3 3 5 2.3 3-1.2.6-7.6 3.5-9.2 1.6-1 3.6 1.4 5.4 1 1.7-.4 2.5-2.4 4.1-3 1.4-.5 3.1-1 4.5-.4 3 1.4 2.3 7.8 5.6 8 1.9.2 3.5-2.2 4-4 .8-3.3-.2-7.6-2.8-9.8a8 8 0 00-5.3-1.6zm-79.6 1.2c-3.8 0-7.7 1-10.7 3.2-5 3.8-9.6 10.1-9.4 16.4.1 2 1.5 4.2 3.3 4.7 1.7.6 3.7-.6 5-1.8 2.2-2 .8-7 3.6-8 1-.4 1.8 1.8 2.9 1.6 2.8-.4 3.2-6.1 6.1-6 1.6 0 1.8 2.7 3.2 3.4 2 .9 4.7-1 6.3.4 3.2 2.6-.1 9.7 3.4 11.7 2.3 1.4 6.6.4 8-2 2.7-4.8-1.2-11.8-4.8-16.1a22.5 22.5 0 00-16.9-7.5zM92 17.5c-6.8 0-13.6 2.3-20.4 3.4-8.2 1.2-16.7 1.5-24.7 4-5.1 1.7-11.5 2.7-14.5 7.2-.7 1.1-.2 2.6-.1 4 0 3-1.9 7.7.9 9 4.2 1.9 6.7-8.2 11.4-8.2 2.9 0 4.2 5.8 7 5 3.4-.8 1.9-7.4 4.8-9.3 3-1.9 7 .1 10.3-.6 3.3-.8 6-3.5 9.3-4 4.2-.5 9-.2 12.7 1.8 2.8 1.5 3.6 5.5 6.4 7 1.3.8 2.8.7 4.3.8 3.4.2 8.8 2.6 10.3-.5 2-4.2-7-6.8-8.5-11.2-.6-2 1.3-4.4.2-6-1.5-2-4.7-2-7.2-2.3H92zm76.3 34.1c-1 0-2.3.3-3 .4-1.6.2-4 .6-4.3 2.1-.2 2 2.7 3.2 4.6 3.8 2 .5 3 2.2 4 .5 1.1-2 1.8-6.6-1.3-6.8zm-96.1 2.3c-2.9 1.2-7.4 1.6-9.4 3-1 .8-1.8 2.3-1.3 3.3 1.2 2.2 5 .8 7.2 1.9 2 1 3.2 3.9 5.5 3.8 2.2 0 4.2-2 5-4 .8-1.7.8-3.9-.2-5.3-1.8-1.8-4.6-3.5-6.8-2.7zm-46.7 8.5c-.8 0-3.3 2.6-3 3.6.4 2-1.3 3 .4 4.5 1.5 1.3 4-.8 5.7-2 1.9-1.3 5.2-3.2 4.4-5.3-.5-1.2-2.7-.6-4-.5-.9 0-2.4-.4-3.5-.3z"/><path fill="#ddf" d="M215.7 14c-3.7-.1-7.3.5-10 2.5-2 1.4-1 5.6-3.3 6.4-.6.3-1.2-.8-1.8-.7-3.6.6-4.5 7-8.2 7.3-1.5.2-2.3-2.5-3.8-2.4-4 .3-5.1 7-9 8.1l-3 .6c.6 1.8 1.6 3.6 3.3 3.7 3.8.3 4-7.9 7.8-8.4 2.5-.4 4 4.5 6.5 3.8 2.7-.8 1.1-6.6 3.8-7.5 1.7-.6 3.3 3 5 2.3 3-1.3.6-7.7 3.4-9.3 1.7-.9 3.7 1.4 5.5 1 1.6-.4 2.5-2.4 4.1-3 1.4-.5 3.1-1 4.5-.3 3 1.4 2.3 7.8 5.6 8 1.8.2 3.5-2.2 4-4l.2-1.7c-3.1-1.2-6.3-5.5-9.8-6-1.6-.3-3.2-.4-4.8-.4zm-71.9 3.4c-4.3 3.3-8.2 5.2-13.5 7.8-3.8 1.8.2 5-3.8 6.6-1.3.6-2.7.6-4 .4.2 1.7 1.5 3.5 3 4 1.8.5 3.8-.7 5.1-1.9 2.1-2 .8-7 3.5-8 1.1-.3 1.9 1.8 3 1.7 2.8-.4 3.2-6.2 6.1-6.1 1.6 0 1.8 2.7 3.2 3.4 1.9 1 4.7-.9 6.3.4 3.2 2.6-.2 9.7 3.4 11.8 2.3 1.3 6.5.4 8-2l.5-1.3c-1.6-.7-3.1-1.5-4.5-2.5-2.9-2.1-2-7.5-5-9.4-2-1.2-2.6 2.5-4.6 1.5-1.8-.9-4.2-6-6.2-6.4h-.5zM83.2 23a6 6 0 00-1.3.1c-6.6 1.2-13.7 1.3-19.9 3.5-4.4 1.6-6.6 8-11.3 8.5-3.3.3-5.6-4.8-8.9-4.3-4.2.5-6.9 4.5-9.8 8-.4 2.6-.8 5.4 1.2 6.3 4.2 2 6.7-8.1 11.4-8.1 2.9 0 4.2 5.7 7 5 3.4-.8 1.9-7.5 4.8-9.4 3-1.9 7 .2 10.3-.6 3.3-.8 6-3.5 9.2-4 4.3-.5 9-.2 12.8 1.8 2.8 1.5 3.6 5.6 6.4 7.1 1.2.7 2.8.6 4.2.7 3.5.2 8.9 2.7 10.3-.5 1-2.1-.8-3.9-3-5.6-1 1.3-2 2.7-3.5 2.8-3.2.3-5.6-3.4-8.4-5-3.8-2-7.4-6.2-11.5-6.3zm81.3 31.7a20 20 0 00-3.4.3c.5 1.5 2.9 2.5 4.5 2.9 2 .5 3 2.2 4 .5.5-.8.9-2.1 1-3.4l-6.1-.3zM74 61.2c-3.6 0-8.7-1.8-12.7-1.5l.2.6c1.1 2.2 5 .8 7.2 1.8 2 1 3.2 4 5.5 3.9 2.1-.1 4.2-2.1 5-4.1.4-.8.6-1.6.6-2.5-2.3-.1-3.4 1.8-5.8 1.8zm-41 3c-3.7 2.2-7.5 4.2-10.5 3-.2 1.2-1 2.1.4 3.4 1.5 1.3 4-.9 5.7-2 1.6-1.1 4.1-2.6 4.4-4.3z"/><g transform="scale(-.72218 .72218) rotate(-9.5 1600.6 1993.3)"><path fill="#804633" stroke="#502c1f" stroke-linecap="round" stroke-width="1.20405" d="M231.1-81.2c2.3.5 5.3 5.5 7 12.2a36 36 0 011.2 8l-5.7 3.7c-1.6-2.3-3-5.7-4-9.5-1.9-7.3-1.5-13.7.8-14.4h.7z"/><path fill-opacity=".2" d="M235.7-75.9c1 2 1.8 4.4 2.4 6.9.8 2.8 1.9 7 1.9 9.4a28 28 0 00-3.3 2c.7-2.1.9-9.2.2-12.7-.4-2-.6-3.8-1.2-5.6z"/><ellipse cx="243.5" cy="-5.4" fill="#ff8dc8" rx="2.9" ry="9.5" transform="rotate(-15.4)"/><ellipse cx="230.9" cy="-75" fill="#fff" fill-opacity=".3" rx="1.7" ry="5"/></g><g transform="matrix(.4005 -.14136 .14136 .4005 -26 21.5)"><path fill="#d40000" d="M69.4 328.8c19.7-21.2 48-14.4 39.5 23l-3.1 2.8c4-18.1-18.3-31.9-36.4-25.9"/><ellipse cx="168" cy="279.8" fill="#fff" fill-opacity=".2" paint-order="markers fill stroke" rx="7" ry="2.6" transform="matrix(.95708 .28984 -.22716 .97386 0 0)"/><path fill-opacity=".2" d="M85 318.2c0 3.5.7 7.1 1.7 10.2a30 30 0 00-17.3.4c4.9-5.3 10.4-8.9 15.6-10.6zM100.7 332.8a7.6 13.3 0 017.6 13.3 7.6 13.3 0 01-1.3 7.5l-1.2 1c1.8-8.3-1.9-15.7-8.1-20.7a7.6 13.3 0 013-1z"/><path fill="none" stroke="maroon" stroke-width=".9" d="M69.4 328.8c19.7-21.2 48-14.4 39.5 23l-3.1 2.8c4-18.1-18.3-31.9-36.4-25.9"/><path fill="#fff" d="M77.5 325.1a20 10.2 17.7 00-11.4 5.4 20 10.2 17.7 00-.2 2.6 20.2 9 21 0122.4.4 20.2 9 21 0114.5 11.5 20 10.2 17.7 001.5-2.3 20 10.2 17.7 00-16-15.9 20 10.2 17.7 00-10.8-1.7z" paint-order="markers fill stroke"/><path fill-opacity=".2" d="M77.5 325.1h2.3c-.7 1.8 2.7 4.4 2.5 6.4-6.3-1.7-14.7-1.4-16.4 1.6-.1-.9 0-1.8.2-2.6 1-3.3 5.4-5.4 11.4-5.4z" paint-order="markers fill stroke"/><path fill="none" stroke="#666" stroke-linecap="round" stroke-linejoin="round" stroke-width=".9" d="M77.5 325.1a20 10.2 17.7 00-11.4 5.4 20 10.2 17.7 00-.2 2.6 20.2 9 21 0122.4.4 20.2 9 21 0114.5 11.5 20 10.2 17.7 001.5-2.3 20 10.2 17.7 00-16-15.9 20 10.2 17.7 00-10.8-1.7z" paint-order="markers fill stroke"/><g paint-order="markers fill stroke" transform="rotate(67.7 113.4 347.6)"><circle cx="117.4" cy="355.6" r="3.7" fill="#fff" stroke="gray" stroke-linecap="round" stroke-linejoin="round" stroke-width=".9"/><ellipse cx="-96.7" cy="363.4" fill-opacity=".2" rx="2.2" ry="1.2" transform="rotate(-33.2)"/></g></g><g clip-path="url(#b)" transform="scale(.65937 -.65937) rotate(-24.3 -279 329.4)"><path fill="none" stroke="#502c1f" stroke-linecap="round" stroke-width="7" d="M269.7-44.4l3.1 10.8"/><path fill="#663829" stroke="#663829" stroke-linecap="round" stroke-width="4.8" d="M269.7-44.4l3.1 10.8"/><g fill="#ff8dc8" transform="matrix(1.1927 -.37276 .37276 1.1927 -35 109)"><circle cx="269.4" cy="-43.7" r=".8"/><ellipse cx="269.4" cy="-45.3" rx=".5" ry=".7"/><ellipse cx="261.5" cy="74.9" rx=".5" ry=".7" transform="rotate(-25.5)"/><ellipse cx="-224.8" cy="-156.9" rx=".5" ry=".7" transform="scale(-1 1) rotate(-25.5)"/></g></g></svg>