<?xml version="1.0" encoding="UTF-8"?>
<svg width="900" height="230" version="1.1" viewBox="0 0 238.12 60.854" xmlns="http://www.w3.org/2000/svg" xmlns:cc="http://creativecommons.org/ns#" xmlns:dc="http://purl.org/dc/elements/1.1/" xmlns:rdf="http://www.w3.org/1999/02/22-rdf-syntax-ns#">
<metadata>
<rdf:RDF>
<cc:Work rdf:about="">
<dc:format>image/svg+xml</dc:format>
<dc:type rdf:resource="http://purl.org/dc/dcmitype/StillImage"/>
<dc:title/>
</cc:Work>
</rdf:RDF>
</metadata>
<g transform="translate(0 -236.15)">
<ellipse cx="43.072" cy="285.81" rx="36.303" ry="11.185" fill-opacity=".2" style="paint-order:normal"/>
<path d="m37.378 241.36c2.5399 3.5747-2.0176 5.5232-5.4337 6.8088-4.3458 1.404-7.0847 6.339-5.9414 10.743-5.6355 0.25282-9.8868 6.4002-8.1161 11.721-6.0999 0.38778-10.192 7.6142-7.413 13.009 2.2267 5.6551 9.6665 6.2049 14.028 3.9553 4.1005 2.6468 9.1522 0.76707 13.583 0.22066 5.627-1.2324 11.173 1.0618 16.795 0.77712 7.3373-0.0211 18.744-2.3216 16.715-10.852-1.1191-4.0662-4.2886-3.2993-4.5823-7.0235-0.44304-3.5964-2.6443-7.4514-6.2354-8.0535 1.638-4.7343-2.0522-10.271-7.0736-10.626-0.78952-5.6964-4.0568-11.505-9.7338-13.542-4.4765 0.0431-9.4584 0.15163-6.5921 2.862z" fill="#784421" style="paint-order:markers fill stroke"/>
<path d="m46.575 240.02c3.379 9.4565-6.2187 13.66-12.882 18.524 8.1588-1.1214 13.801-4.0095 20.01-6.4996-0.12856-0.0155-0.25825-0.0317-0.38896-0.0409-0.63828-4.6058-2.8977-9.2836-6.7397-11.983zm13.315 16.59c-7.3814 4.1052-14.168 8.1332-28.732 13.175 0 0 11.738-1.4299 20.862-3.9964-1.061 10.219-15.776 17.097-29.805 17.473 0.30433 0.6089 8.9276-0.28866 9.4823 0.16175-6.3339 1.1252-12.92 2.1347-19.56 3.1198 3.204 2.8224 8.5427 2.7879 11.975 1.0172 4.1006 2.6468 9.1525 0.76767 13.584 0.22126 5.627-1.2324 11.172 1.0607 16.794 0.776 7.3374-0.021 18.744-2.321 16.715-10.852-0.72701-2.6416-2.3155-3.2471-3.4226-4.3656-0.22752 0.11048-0.46217 0.21739-0.6936 0.32612 0.73742-3.2199-5.2126-15.086-9.6763-9.6865 1.1784-0.49004 2.2145-1.007 3.0368-1.552 0.61255-1.9573 0.3339-4.0347-0.56078-5.818z" fill-opacity=".13333" style="paint-order:markers fill stroke"/>
<path d="m36.99 241.32c2.5399 3.5746-2.0175 5.5229-5.4337 6.8085-4.3458 1.404-7.0847 6.3394-5.9415 10.743-5.6355 0.25283-9.8872 6.4001-8.1164 11.721-6.0999 0.38778-10.191 7.6137-7.4124 13.009 1.0382 2.6367 3.2095 4.1631 5.6738 4.8138-0.80713-0.74475-1.4725-1.6759-1.9223-2.8184-2.7787-5.395 1.3131-12.622 7.4131-13.009-1.7707-5.3208-6.1117-9.4804-0.47627-9.7332-1.1432-4.4037 10.188-11.326 14.534-12.73 3.4162-1.2856 7.9735-3.2346 5.4337-6.8092-0.77081-1.019-4.6166-4.158-1.8954-4.1004 0.08772 4e-3 0.18302 8e-3 0.28476 0.0155 2.659-0.0881 5.3672 0.19021 7.877 1.1025-1.0228-0.78249-2.1646-1.422-3.4261-1.8746-4.0681 0.19257-8.2587 0.20688-6.5917 2.8624z" fill="#ff0" fill-opacity=".2" style="paint-order:markers fill stroke"/>
<path d="m34.325 243.06c-3.2567-0.27807 1.5847-2.8017 2.3805-1.7498 2.5398 3.5746-2.0176 5.5232-5.4337 6.8088-4.3458 1.404-7.0847 6.339-5.9414 10.743-5.6355 0.25287-9.8868 6.4002-8.1161 11.721-6.0999 0.38781-10.192 7.6142-7.413 13.009 2.2268 5.655 9.6665 6.2049 14.028 3.9552 4.1005 2.6468 9.1522 0.76708 13.583 0.22069 5.6271-1.2324 11.173 1.0617 16.795 0.7771 7.3374-0.0211 18.744-2.3216 16.715-10.852-1.1191-4.0662-4.2885-3.2994-4.5823-7.0235-0.44302-3.5965-2.6443-7.4514-6.2353-8.0535 1.638-4.7343-2.0522-10.271-7.0737-10.626-0.78954-5.6964-4.0568-11.505-9.7338-13.542-2.6002-1.0101-0.10672 1.763-2.8811 1.8547z" fill="none" stroke="#5c3419" stroke-linecap="round" stroke-linejoin="round" stroke-width="2.1149" style="paint-order:markers fill stroke"/>
<path d="m27.728 262.3c0.58708 5.8729 11.573 6.204 12.191 0" fill="none" stroke="#28170b" stroke-linecap="round" stroke-width="1.8521"/>
<path d="m43.557 262.3c0.58708 5.8729 11.573 6.204 12.191 0" fill="none" stroke="#28170b" stroke-linecap="round" stroke-width="1.8521"/>
<ellipse cx="40.98" cy="277.06" rx="2.1027" ry="3.4022" fill="#28170b" style="paint-order:normal"/>
<g transform="translate(79.375)">
<ellipse cx="43.072" cy="285.81" rx="36.303" ry="11.185" fill-opacity=".2" style="paint-order:normal"/>
<path d="m37.378 241.36c2.5399 3.5747-2.0176 5.5232-5.4337 6.8088-4.3458 1.404-7.0847 6.339-5.9414 10.743-5.6355 0.25282-9.8868 6.4002-8.1161 11.721-6.0999 0.38778-10.192 7.6142-7.413 13.009 2.2267 5.6551 9.6665 6.2049 14.028 3.9553 4.1005 2.6468 9.1522 0.76707 13.583 0.22066 5.627-1.2324 11.173 1.0618 16.795 0.77712 7.3373-0.0211 18.744-2.3216 16.715-10.852-1.1191-4.0662-4.2886-3.2993-4.5823-7.0235-0.44304-3.5964-2.6443-7.4514-6.2354-8.0535 1.638-4.7343-2.0522-10.271-7.0736-10.626-0.78952-5.6964-4.0568-11.505-9.7338-13.542-4.5618-0.34156-9.5949-1.1238-6.5921 2.862z" fill="#784421" style="paint-order:markers fill stroke"/>
<path d="m46.575 240.02c3.379 9.4565-6.2187 13.66-12.882 18.524 8.1588-1.1214 13.801-4.0095 20.01-6.4996-0.12856-0.0155-0.25825-0.0317-0.38896-0.0409-0.63828-4.6058-2.8977-9.2836-6.7397-11.983zm13.315 16.59c-7.3814 4.1052-14.168 8.1332-28.732 13.175 0 0 11.738-1.4299 20.862-3.9964-1.061 10.219-15.776 17.097-29.805 17.473 0.30433 0.6089 8.9276-0.28866 9.4823 0.16175-6.3339 1.1252-12.92 2.1347-19.56 3.1198 3.204 2.8224 8.5427 2.7879 11.975 1.0172 4.1006 2.6468 9.1525 0.76767 13.584 0.22126 5.627-1.2324 11.172 1.0607 16.794 0.776 7.3374-0.021 18.744-2.321 16.715-10.852-0.72701-2.6416-2.3155-3.2471-3.4226-4.3656-0.22752 0.11048-0.46217 0.21739-0.6936 0.32612 0.73742-3.2199-5.2126-15.086-9.6763-9.6865 1.1784-0.49004 2.2145-1.007 3.0368-1.552 0.61255-1.9573 0.3339-4.0347-0.56078-5.818z" fill-opacity=".13333" style="paint-order:markers fill stroke"/>
<path d="m36.99 241.32c2.5399 3.5746-2.0175 5.5229-5.4337 6.8085-4.3458 1.404-7.0847 6.3394-5.9415 10.743-5.6355 0.25283-9.8872 6.4001-8.1164 11.721-6.0999 0.38778-10.191 7.6137-7.4124 13.009 1.0382 2.6367 3.2095 4.1631 5.6738 4.8138-0.80713-0.74475-1.4725-1.6759-1.9223-2.8184-2.7787-5.395 1.3131-12.622 7.4131-13.009-1.7707-5.3208-5.8552-9.288-0.2198-9.5409-1.1432-4.4037 9.9312-11.518 14.277-12.923 3.4162-1.2856 7.9735-3.2346 5.4337-6.8092-0.77081-1.019-4.6166-4.158-1.8954-4.1004 0.08772 4e-3 0.18302 8e-3 0.28476 0.0155 2.659-0.0881 5.3672 0.19021 7.877 1.1025-1.0228-0.78249-2.1646-1.422-3.4261-1.8746-7.3598-0.67644-8.2661-0.21058-6.5917 2.8624z" fill="#ff0" fill-opacity=".2" style="paint-order:markers fill stroke"/>
<path d="m35.41 242.51c-3.2567-0.27807 0.50042-2.2569 1.2961-1.2051 2.5398 3.5746-2.0176 5.5232-5.4337 6.8088-4.3458 1.404-7.0847 6.339-5.9414 10.743-5.6355 0.25287-9.8868 6.4002-8.1161 11.721-6.0999 0.38781-10.192 7.6142-7.413 13.009 2.2268 5.655 9.6665 6.2049 14.028 3.9552 4.1005 2.6468 9.1522 0.76708 13.583 0.22069 5.6271-1.2324 11.173 1.0617 16.795 0.7771 7.3374-0.0211 18.744-2.3216 16.715-10.852-1.1191-4.0662-4.2885-3.2994-4.5823-7.0235-0.44302-3.5965-2.6443-7.4514-6.2353-8.0535 1.638-4.7343-2.0522-10.271-7.0737-10.626-0.78954-5.6964-4.0568-11.505-9.7338-13.542-2.6002-1.0101 0.49122 1.1414-2.2832 1.2331z" fill="none" stroke="#5c3419" stroke-linecap="round" stroke-linejoin="round" stroke-width="2.1149" style="paint-order:markers fill stroke"/>
<g transform="matrix(.73244 0 0 .72868 -223.1 115.35)">
<g transform="matrix(1.1957 0 0 1.1957 -46.654 -40.767)">
<circle cx="351.39" cy="204.93" r="7.7595" fill="#5c3419" style="paint-order:markers fill stroke"/>
<circle cx="349.94" cy="205.6" r="7.7595" fill="#fff" style="paint-order:markers fill stroke"/>
<path d="m354.75 199.52a7.7595 7.7595 0 0 1 1.4799 4.5417 7.7595 7.7595 0 0 1-7.7596 7.7596 7.7595 7.7595 0 0 1-4.8081-1.6797 7.7595 7.7595 0 0 0 6.2798 3.2179 7.7595 7.7595 0 0 0 7.7596-7.7596 7.7595 7.7595 0 0 0-2.9515-6.0799z" fill="#ffffc0" style="paint-order:markers fill stroke"/>
<ellipse cx="348.92" cy="206.18" rx="2.9406" ry="3.1649" style="paint-order:markers fill stroke"/>
<circle cx="347.51" cy="204.68" r="1.5148" fill="#fff" style="paint-order:normal"/>
</g>
<g transform="matrix(1.1957 0 0 1.1957 -66.653 -40.767)">
<circle cx="348.55" cy="204.6" r="7.7595" fill="#5c3419" style="paint-order:markers fill stroke"/>
<circle cx="349.94" cy="205.6" r="7.7595" fill="#fff" style="paint-order:markers fill stroke"/>
<path d="m354.75 199.52a7.7595 7.7595 0 0 1 1.4799 4.5417 7.7595 7.7595 0 0 1-7.7596 7.7596 7.7595 7.7595 0 0 1-4.8081-1.6797 7.7595 7.7595 0 0 0 6.2798 3.2179 7.7595 7.7595 0 0 0 7.7596-7.7596 7.7595 7.7595 0 0 0-2.9515-6.0799z" fill="#ffffc0" style="paint-order:markers fill stroke"/>
<ellipse cx="349.9" cy="206.2" rx="2.9406" ry="3.1649" style="paint-order:markers fill stroke"/>
<circle cx="348.5" cy="204.7" r="1.5148" fill="#fff" style="paint-order:normal"/>
</g>
</g>
<path d="m34.732 274.34 13.689-0.0503c-2.7181 12.564-12.265 10.742-13.689 0.0503" fill="#370606"/>
<path d="m41.544 279.97c-1.2151 0.0118-2.4469 0.53441-3.5608 1.6178 2.1046 1.9276 4.8116 2.0071 7.0321-0.16249-1.0493-0.96458-2.2518-1.4671-3.4713-1.4553z" fill="#c00000"/>
</g>
<g transform="translate(158.75)">
<ellipse cx="43.072" cy="285.81" rx="36.303" ry="11.185" fill-opacity=".2" style="paint-order:normal"/>
<path d="m37.378 241.36c2.5399 3.5747-2.0176 5.5232-5.4337 6.8088-4.3458 1.404-7.0847 6.339-5.9414 10.743-5.6355 0.25282-9.8868 6.4002-8.1161 11.721-6.0999 0.38778-10.192 7.6142-7.413 13.009 2.2267 5.6551 9.6665 6.2049 14.028 3.9553 4.1005 2.6468 9.1522 0.76707 13.583 0.22066 5.627-1.2324 11.173 1.0618 16.795 0.77712 7.3373-0.0211 18.744-2.3216 16.715-10.852-1.1191-4.0662-4.2886-3.2993-4.5823-7.0235-0.44304-3.5964-2.6443-7.4514-6.2354-8.0535 1.638-4.7343-2.0522-10.271-7.0736-10.626-0.78952-5.6964-4.0568-11.505-9.7338-13.542-4.7269-0.32986-10.806-1.9627-6.5921 2.862z" fill="#784421" style="paint-order:markers fill stroke"/>
<path d="m46.575 240.02c3.379 9.4565-6.2187 13.66-12.882 18.524 8.1588-1.1214 13.801-4.0095 20.01-6.4996-0.12856-0.0155-0.25825-0.0317-0.38896-0.0409-0.63828-4.6058-2.8977-9.2836-6.7397-11.983zm13.315 16.59c-7.3814 4.1052-14.168 8.1332-28.732 13.175 0 0 11.738-1.4299 20.862-3.9964-1.061 10.219-15.776 17.097-29.805 17.473 0.30433 0.6089 8.9276-0.28866 9.4823 0.16175-6.3339 1.1252-12.92 2.1347-19.56 3.1198 3.204 2.8224 8.5427 2.7879 11.975 1.0172 4.1006 2.6468 9.1525 0.76767 13.584 0.22126 5.627-1.2324 11.172 1.0607 16.794 0.776 7.3374-0.021 18.744-2.321 16.715-10.852-0.72701-2.6416-2.3155-3.2471-3.4226-4.3656-0.22752 0.11048-0.46217 0.21739-0.6936 0.32612 0.73742-3.2199-5.2126-15.086-9.6763-9.6865 1.1784-0.49004 2.2145-1.007 3.0368-1.552 0.61255-1.9573 0.3339-4.0347-0.56078-5.818z" fill-opacity=".13333" style="paint-order:markers fill stroke"/>
<path d="m36.99 241.32c2.5399 3.5746-2.0175 5.5229-5.4337 6.8085-4.3458 1.404-7.0847 6.3394-5.9415 10.743-5.6355 0.25283-9.8872 6.4001-8.1164 11.721-6.0999 0.38778-10.191 7.6137-7.4124 13.009 1.0382 2.6367 3.2095 4.1631 5.6738 4.8138-0.80713-0.74475-1.4725-1.6759-1.9223-2.8184-2.7787-5.395 1.3131-12.622 7.4131-13.009-1.7707-5.3208-5.4604-10.911 0.17505-11.164-1.1432-4.4037 9.5364-9.8956 13.882-11.3 3.4162-1.2856 7.9735-3.2346 5.4337-6.8092-0.77081-1.019-4.6166-4.158-1.8954-4.1004 0.08772 4e-3 0.18302 8e-3 0.28476 0.0155 2.659-0.0881 5.3672 0.19021 7.877 1.1025-1.0228-0.78249-2.1646-1.422-3.4261-1.8746-6.259-0.49927-8.8676-1.9979-6.5917 2.8624z" fill="#ff0" fill-opacity=".2" style="paint-order:markers fill stroke"/>
<path d="m36.706 241.31c2.5398 3.5746-2.0176 5.5232-5.4337 6.8088-4.3458 1.404-7.0847 6.339-5.9414 10.743-5.6355 0.25287-9.8868 6.4002-8.1161 11.721-6.0999 0.38781-10.192 7.6142-7.413 13.009 2.2268 5.655 9.6665 6.2049 14.028 3.9552 4.1005 2.6468 9.1522 0.76708 13.583 0.22069 5.6271-1.2324 11.173 1.0617 16.795 0.7771 7.3374-0.0211 18.744-2.3216 16.715-10.852-1.1191-4.0662-4.2885-3.2994-4.5823-7.0235-0.44302-3.5965-2.6443-7.4514-6.2353-8.0535 1.638-4.7343-2.0522-10.271-7.0737-10.626-0.78954-5.6964-4.0568-11.505-9.7338-13.542-3.8442 0.51258-8.1206 1.5936-6.592 2.862z" fill="none" stroke="#5c3419" stroke-linecap="round" stroke-linejoin="round" stroke-width="2.1149" style="paint-order:markers fill stroke"/>
<ellipse transform="rotate(90)" cx="276.46" cy="-41.818" rx="3.7333" ry="2.4889" fill="#28170b" style="paint-order:normal"/>
<path d="m30.528 261.2 6.7213 5.4383-10.38 0.45699" fill="none" stroke="#28170b" stroke-linecap="round" stroke-width="2.521"/>
<path d="m53.178 261.03-6.574 5.6155 10.389 0.18022" fill="none" stroke="#28170b" stroke-linecap="round" stroke-width="2.521"/>
</g>
<g transform="matrix(1.0736 -.52404 .55473 1.0142 -160.55 -33.903)">
<path d="m69.382 328.75c19.733-21.195 48.01-14.34 39.53 23.088l-3.1484 2.7986c4.0824-18.147-18.262-31.903-36.382-25.887" fill="#d40000"/>
<ellipse transform="matrix(.95708 .28984 -.22716 .97386 0 0)" cx="167.96" cy="279.8" rx="6.9582" ry="2.6444" fill="#fff" fill-opacity=".2" style="paint-order:markers fill stroke"/>
<path d="m85.03 318.17c-0.0207 3.5579 0.63064 7.1766 1.6326 10.262-5.5496-1.5098-11.621-1.5594-17.28 0.31972 4.9189-5.2832 10.369-8.823 15.648-10.581z" fill-opacity=".2"/>
<path d="m100.67 332.84a7.6115 13.295 0 0 1 7.6115 13.295 7.6115 13.295 0 0 1-1.3082 7.4311l-1.2091 1.0749c1.8724-8.3231-1.8148-15.722-8.1032-20.714a7.6115 13.295 0 0 1 3.0089-1.0873z" fill-opacity=".2"/>
<path d="m69.382 328.75c19.733-21.195 48.01-14.34 39.53 23.088l-3.1484 2.7986c4.0824-18.147-18.262-31.903-36.382-25.887" fill="none" stroke="#800000" stroke-width=".87456"/>
<path d="m77.489 325.1a20.027 10.232 17.721 0 0-11.39 5.3992 20.027 10.232 17.721 0 0-0.15766 2.6426 20.184 8.9682 21.026 0 1 22.394 0.37425 20.184 8.9682 21.026 0 1 14.424 11.497 20.027 10.232 17.721 0 0 1.4934-2.322 20.027 10.232 17.721 0 0-15.962-15.843 20.027 10.232 17.721 0 0-10.801-1.7484z" fill="#fff" style="paint-order:markers fill stroke"/>
<path d="m77.489 325.1c0.7603-1e-3 1.5404 0.0292 2.3354 0.0907-0.67665 1.7 2.6813 4.3196 2.5091 6.3216-6.2961-1.6883-14.708-1.4347-16.393 1.6296-0.1543-0.92854-0.10132-1.8165 0.15767-2.6427 1.0605-3.3183 5.3523-5.3526 11.39-5.3991z" fill-opacity=".2" style="paint-order:markers fill stroke"/>
<path d="m77.489 325.1a20.027 10.232 17.721 0 0-11.39 5.3992 20.027 10.232 17.721 0 0-0.15766 2.6426 20.184 8.9682 21.026 0 1 22.394 0.37425 20.184 8.9682 21.026 0 1 14.424 11.497 20.027 10.232 17.721 0 0 1.4934-2.322 20.027 10.232 17.721 0 0-15.962-15.843 20.027 10.232 17.721 0 0-10.801-1.7484z" fill="none" stroke="#666" stroke-linecap="round" stroke-linejoin="round" stroke-width=".87456" style="paint-order:markers fill stroke"/>
<g transform="rotate(67.735 113.38 347.56)">
<circle cx="117.41" cy="355.56" r="3.6726" fill="#fff" stroke="#808080" stroke-linecap="round" stroke-linejoin="round" stroke-width=".87456" style="paint-order:markers fill stroke"/>
<ellipse transform="rotate(-33.225)" cx="-96.658" cy="363.44" rx="2.2464" ry="1.1823" fill-opacity=".2" style="paint-order:markers fill stroke"/>
</g>
</g>
<g transform="matrix(1.0736 -.52404 .55473 1.0142 -239.9 -33.903)">
<path d="m69.382 328.75c19.733-21.195 48.01-14.34 39.53 23.088l-3.1484 2.7986c4.0824-18.147-18.262-31.903-36.382-25.887" fill="#d40000"/>
<ellipse transform="matrix(.95708 .28984 -.22716 .97386 0 0)" cx="167.96" cy="279.8" rx="6.9582" ry="2.6444" fill="#fff" fill-opacity=".2" style="paint-order:markers fill stroke"/>
<path d="m85.03 318.17c-0.0207 3.5579 0.63064 7.1766 1.6326 10.262-5.5496-1.5098-11.621-1.5594-17.28 0.31972 4.9189-5.2832 10.369-8.823 15.648-10.581z" fill-opacity=".2"/>
<path d="m100.67 332.84a7.6115 13.295 0 0 1 7.6115 13.295 7.6115 13.295 0 0 1-1.3082 7.4311l-1.2091 1.0749c1.8724-8.3231-1.8148-15.722-8.1032-20.714a7.6115 13.295 0 0 1 3.0089-1.0873z" fill-opacity=".2"/>
<path d="m69.382 328.75c19.733-21.195 48.01-14.34 39.53 23.088l-3.1484 2.7986c4.0824-18.147-18.262-31.903-36.382-25.887" fill="none" stroke="#800000" stroke-width=".87456"/>
<path d="m77.489 325.1a20.027 10.232 17.721 0 0-11.39 5.3992 20.027 10.232 17.721 0 0-0.15766 2.6426 20.184 8.9682 21.026 0 1 22.394 0.37425 20.184 8.9682 21.026 0 1 14.424 11.497 20.027 10.232 17.721 0 0 1.4934-2.322 20.027 10.232 17.721 0 0-15.962-15.843 20.027 10.232 17.721 0 0-10.801-1.7484z" fill="#fff" style="paint-order:markers fill stroke"/>
<path d="m77.489 325.1c0.7603-1e-3 1.5404 0.0292 2.3354 0.0907-0.67665 1.7 2.6813 4.3196 2.5091 6.3216-6.2961-1.6883-14.708-1.4347-16.393 1.6296-0.1543-0.92854-0.10132-1.8165 0.15767-2.6427 1.0605-3.3183 5.3523-5.3526 11.39-5.3991z" fill-opacity=".2" style="paint-order:markers fill stroke"/>
<path d="m77.489 325.1a20.027 10.232 17.721 0 0-11.39 5.3992 20.027 10.232 17.721 0 0-0.15766 2.6426 20.184 8.9682 21.026 0 1 22.394 0.37425 20.184 8.9682 21.026 0 1 14.424 11.497 20.027 10.232 17.721 0 0 1.4934-2.322 20.027 10.232 17.721 0 0-15.962-15.843 20.027 10.232 17.721 0 0-10.801-1.7484z" fill="none" stroke="#666" stroke-linecap="round" stroke-linejoin="round" stroke-width=".87456" style="paint-order:markers fill stroke"/>
<g transform="rotate(67.735 113.38 347.56)">
<circle cx="117.41" cy="355.56" r="3.6726" fill="#fff" stroke="#808080" stroke-linecap="round" stroke-linejoin="round" stroke-width=".87456" style="paint-order:markers fill stroke"/>
<ellipse transform="rotate(-33.225)" cx="-96.658" cy="363.44" rx="2.2464" ry="1.1823" fill-opacity=".2" style="paint-order:markers fill stroke"/>
</g>
</g>
<g transform="translate(-4.2253 1.1275)" fill="none" stroke="#fff">
<path d="m68.249 239.83h11.071l-11.329 13.646h11.243" stroke-opacity=".53333" stroke-width="2.1167"/>
<path d="m63.03 258.63h8.1174l-8.3062 10.005h8.2433" stroke-opacity=".73333" stroke-width="1.552"/>
<path d="m55.585 271.73h5.7665l-5.9006 7.1076h5.8559" stroke-width="1.1025"/>
</g>
<g transform="matrix(1.0442 -.55334 .60799 .93722 -96.991 -6.4068)">
<path d="m69.382 328.75c19.733-21.195 48.01-14.34 39.53 23.088l-3.1484 2.7986c4.0824-18.147-18.262-31.903-36.382-25.887" fill="#d40000"/>
<ellipse transform="matrix(.95708 .28984 -.22716 .97386 0 0)" cx="167.96" cy="279.8" rx="6.9582" ry="2.6444" fill="#fff" fill-opacity=".2" style="paint-order:markers fill stroke"/>
<path d="m85.03 318.17c-0.0207 3.5579 0.63064 7.1766 1.6326 10.262-5.5496-1.5098-11.621-1.5594-17.28 0.31972 4.9189-5.2832 10.369-8.823 15.648-10.581z" fill-opacity=".2"/>
<path d="m100.67 332.84a7.6115 13.295 0 0 1 7.6115 13.295 7.6115 13.295 0 0 1-1.3082 7.4311l-1.2091 1.0749c1.8724-8.3231-1.8148-15.722-8.1032-20.714a7.6115 13.295 0 0 1 3.0089-1.0873z" fill-opacity=".2"/>
<path d="m69.382 328.75c19.733-21.195 48.01-14.34 39.53 23.088l-3.1484 2.7986c4.0824-18.147-18.262-31.903-36.382-25.887" fill="none" stroke="#800000" stroke-width=".87456"/>
<path d="m77.489 325.1a20.027 10.232 17.721 0 0-11.39 5.3992 20.027 10.232 17.721 0 0-0.15766 2.6426 20.184 8.9682 21.026 0 1 22.394 0.37425 20.184 8.9682 21.026 0 1 14.424 11.497 20.027 10.232 17.721 0 0 1.4934-2.322 20.027 10.232 17.721 0 0-15.962-15.843 20.027 10.232 17.721 0 0-10.801-1.7484z" fill="#fff" style="paint-order:markers fill stroke"/>
<path d="m77.489 325.1c0.7603-1e-3 1.5404 0.0292 2.3354 0.0907-0.67665 1.7 2.6813 4.3196 2.5091 6.3216-6.2961-1.6883-14.708-1.4347-16.393 1.6296-0.1543-0.92854-0.10132-1.8165 0.15767-2.6427 1.0605-3.3183 5.3523-5.3526 11.39-5.3991z" fill-opacity=".2" style="paint-order:markers fill stroke"/>
<path d="m77.489 325.1a20.027 10.232 17.721 0 0-11.39 5.3992 20.027 10.232 17.721 0 0-0.15766 2.6426 20.184 8.9682 21.026 0 1 22.394 0.37425 20.184 8.9682 21.026 0 1 14.424 11.497 20.027 10.232 17.721 0 0 1.4934-2.322 20.027 10.232 17.721 0 0-15.962-15.843 20.027 10.232 17.721 0 0-10.801-1.7484z" fill="none" stroke="#666" stroke-linecap="round" stroke-linejoin="round" stroke-width=".87456" style="paint-order:markers fill stroke"/>
<g transform="rotate(67.735 113.38 347.56)">
<circle cx="117.41" cy="355.56" r="3.6726" fill="#fff" stroke="#808080" stroke-linecap="round" stroke-linejoin="round" stroke-width=".87456" style="paint-order:markers fill stroke"/>
<ellipse transform="rotate(-33.225)" cx="-96.658" cy="363.44" rx="2.2464" ry="1.1823" fill-opacity=".2" style="paint-order:markers fill stroke"/>
</g>
</g>
</g>
</svg>
