<?xml version="1.0" encoding="UTF-8" standalone="no"?>
<!-- Created with Inkscape (http://www.inkscape.org/) -->
<svg id="svg8" xmlns:rdf="http://www.w3.org/1999/02/22-rdf-syntax-ns#" xmlns="http://www.w3.org/2000/svg" height="300" width="300" version="1.1" xmlns:cc="http://creativecommons.org/ns#" xmlns:dc="http://purl.org/dc/elements/1.1/" viewBox="0 0 79.374999 79.374999">
 <metadata id="metadata5">
  <rdf:RDF>
   <cc:Work rdf:about="">
    <dc:format>image/svg+xml</dc:format>
    <dc:type rdf:resource="http://purl.org/dc/dcmitype/StillImage"/>
    <dc:title/>
   </cc:Work>
  </rdf:RDF>
 </metadata>
 <g id="layer1" transform="translate(0 -217.62)">
  <ellipse id="path4747" style="paint-order:normal" rx="36.992" ry="37.042" cy="257.31" cx="39.638" fill="#ff0"/>
  <path id="circle12728" style="paint-order:normal" d="m62.511 228.18a36.992 37.042 0 0 1 7.264 21.973 36.992 37.042 0 0 1 -36.992 37.042 36.992 37.042 0 0 1 -22.774 -7.9061 36.992 37.042 0 0 0 29.728 15.068 36.992 37.042 0 0 0 36.992 -37.042 36.992 37.042 0 0 0 -14.218 -29.136z" fill="#ffd42a"/>
  <circle id="circle12733" stroke-linejoin="round" style="paint-order:normal" cx="39.688" stroke-linecap="round" stroke="#d4aa00" cy="257.31" r="38.255" stroke-width="2.8658" fill="none"/>
  <ellipse id="path12735" style="paint-order:normal" fill-opacity=".6" rx="6.5963" ry="5.1886" transform="matrix(.87826 -.47819 -.15443 0.988 0 0)" cy="265.36" cx="64.694" fill="#fff"/>
  <g id="g1971" transform="matrix(-1.2186 -.18888 -.18901 1.2178 473.87 100.82)">
   <circle id="circle1959" style="paint-order:markers fill stroke" cx="340.49" cy="175.42" r="7.7595" fill="#d4aa00"/>
   <circle id="circle1961" style="paint-order:markers fill stroke" cy="175.31" cx="339.53" r="7.7595" fill="#fff"/>
   <path id="path1963" style="paint-order:markers fill stroke" d="m336.77 168.04a7.7595 7.7595 0 0 0 -2.7861 3.8801 7.7595 7.7595 0 0 0 5.0445 9.7455 7.7595 7.7595 0 0 0 5.091 -0.14431 7.7595 7.7595 0 0 1 -6.9595 1.1645 7.7595 7.7595 0 0 1 -5.0445 -9.7455 7.7595 7.7595 0 0 1 4.6545 -4.9002z" fill="#ffffc0"/>
   <circle id="circle1965" style="paint-order:markers fill stroke" cy="175.38" cx="339.72" r="3.2008"/>
   <circle id="circle3955" style="paint-order:markers fill stroke" cx="341.73" cy="175.66" r="1.3708" fill="#fff"/>
   <path id="path1967" style="paint-order:markers fill stroke" d="m340.04 165.78a8.8524 8.3752 8.8163 0 0 -8.7688 8.314 8.8524 8.3752 8.8163 0 0 0.0612 0.84275l17.583 0.14371a8.8524 8.3752 8.8163 0 0 0.0376 -0.84195 8.8524 8.3752 8.8163 0 0 -8.9133 -8.4586z" fill="#ffd42a"/>
   <path id="path1969" d="m331.74 175 16.87-0.38671" stroke="#d4aa00" stroke-linecap="round" stroke-width="1.5242" fill="none"/>
  </g>
  <path id="path1989" d="m50.208 272.45c0.74972-7.2876-17.982-8.5216-23.474 0.60339 6.1336-6.6804 21.195-5.3616 23.474-0.60339z" fill="#d4aa00"/>
  <g id="g12814" transform="matrix(1.2186 -.18888 .18901 1.2178 -394.57 100.92)">
   <circle id="circle12800" style="paint-order:markers fill stroke" cy="175.42" cx="340.49" r="7.7595" fill="#d4aa00"/>
   <circle id="circle12802" style="paint-order:markers fill stroke" cx="339.53" cy="175.31" r="7.7595" fill="#fff"/>
   <path id="path12804" style="paint-order:markers fill stroke" d="m344.32 169.21a7.7595 7.7595 0 0 1 1.4799 4.5417 7.7595 7.7595 0 0 1 -7.7596 7.7596 7.7595 7.7595 0 0 1 -4.8082 -1.6797 7.7595 7.7595 0 0 0 6.2798 3.2179 7.7595 7.7595 0 0 0 7.7595 -7.7596 7.7595 7.7595 0 0 0 -2.9515 -6.0799z" fill="#ffffc0"/>
   <circle id="circle12806" style="paint-order:markers fill stroke" cx="339.72" cy="175.38" r="3.2008"/>
   <circle id="circle12808" style="paint-order:markers fill stroke" cy="175.79" cx="337.77" r="1.3708" fill="#fff"/>
   <path id="path12810" style="paint-order:markers fill stroke" d="m340.04 165.78a8.8524 8.3752 8.8163 0 0 -8.7688 8.314 8.8524 8.3752 8.8163 0 0 0.0612 0.84275l17.583 0.14371a8.8524 8.3752 8.8163 0 0 0.0376 -0.84195 8.8524 8.3752 8.8163 0 0 -8.9133 -8.4586z" fill="#ffd42a"/>
   <path id="path12812" d="m331.74 175 16.87-0.38671" stroke="#d4aa00" stroke-linecap="round" stroke-width="1.5242" fill="none"/>
  </g>
 </g>
</svg>
